{
.appVersion = "1286";
copyright = "-";
customParameters = (
{
name = note;
value = "";
},
{
name = macintoshFONDName;
value = "Comic Neue Angular";
},
{
name = license;
value = "Licensed under the SIL Open Font License. Version 1.1.";
},
{
name = licenseURL;
value = "http://scripts.sil.org/OFL";
},
{
name = preferredFamilyName;
value = "Comic Neue Angular";
},
{
name = uniqueID;
value = "2.003;;Comic Neue Angular Bold Oblique";
},
{
name = versionString;
value = "Version 2.003";
},
{
name = codePageRanges;
value = (
1252,
1250
);
},
{
name = openTypeOS2FamilyClass;
value = (
0,
0
);
},
{
name = openTypeOS2Panose;
value = (
2,
0,
0,
0,
0,
0,
0,
0,
0,
0
);
},
{
name = strikeoutPosition;
value = 306;
},
{
name = strikeoutSize;
value = 50;
},
{
name = openTypeOS2SubscriptXOffset;
value = -16;
},
{
name = openTypeOS2SubscriptXSize;
value = 650;
},
{
name = openTypeOS2SubscriptYOffset;
value = 75;
},
{
name = openTypeOS2SubscriptYSize;
value = 600;
},
{
name = openTypeOS2SuperscriptXOffset;
value = 74;
},
{
name = openTypeOS2SuperscriptXSize;
value = 650;
},
{
name = openTypeOS2SuperscriptYOffset;
value = 350;
},
{
name = openTypeOS2SuperscriptYSize;
value = 600;
},
{
name = fsType;
value = (
);
},
{
name = unicodeRanges;
value = (
0,
1,
2
);
},
{
name = vendorID;
value = "    ";
},
{
name = blueFuzz;
value = 1;
},
{
name = blueScale;
value = 0.03963;
},
{
name = blueShift;
value = 7;
},
{
name = postscriptForceBold;
value = 1;
},
{
name = trademark;
value = "-";
}
);
date = "2016-09-15 09:55:57 +0000";
designer = "Craig Rozynski";
designerURL = "http://www.craigrozynski.com";
disablesNiceNames = 1;
familyName = "Comic Neue Angular";
featurePrefixes = (
{
code = "languagesystem DFLT dflt;\012languagesystem latn dflt;\012";
name = Languagesystems;
},
{

glyphs = (
{
glyphname = A;
layers = (
{
layerId = master01;
paths = (
{
closed = 1;
nodes = (
"539 45 LINE",
"443 -12 LINE",
"413 240 LINE",
"190 195 LINE",
"72 -8 LINE",
"-6 36 LINE",
"74 171 LINE",
"50 168 LINE",
"54 264 LINE",
"137 279 LINE",
"363 666 LINE",
"465 684 LINE"
);
},
{
closed = 1;
nodes = (
"402 334 LINE",
"380 518 LINE",
"253 303 LINE"
);
}
);
width = 649;
}
);
unicode = 0041;
},
{
glyphname = Aacute;
layers = (
{
layerId = master01;
paths = (
{
closed = 1;
nodes = (
"502 906 LINE",
"572 831 LINE",
"366 710 LINE",
"307 772 LINE"
);
},
{
closed = 1;
nodes = (
"539 45 LINE",
"443 -12 LINE",
"413 240 LINE",
"190 195 LINE",
"72 -8 LINE",
"-6 36 LINE",
"74 171 LINE",
"50 168 LINE",
"54 264 LINE",
"137 279 LINE",
"363 666 LINE",
"465 684 LINE"
);
},
{
closed = 1;
nodes = (
"402 334 LINE",
"380 518 LINE",
"253 303 LINE"
);
}
);
width = 649;
}
);
unicode = 00C1;
},
{
glyphname = Abreve;
layers = (
{
layerId = master01;
paths = (
{
closed = 1;
nodes = (
"539 45 LINE",
"443 -12 LINE",
"413 240 LINE",
"190 195 LINE",
"72 -8 LINE",
"-6 36 LINE",
"74 171 LINE",
"50 168 LINE",
"54 264 LINE",
"137 279 LINE",
"363 666 LINE",
"465 684 LINE"
);
},
{
closed = 1;
nodes = (
"402 334 LINE",
"380 518 LINE",
"253 303 LINE"
);
},
{
closed = 1;
nodes = (
"492 806 OFFCURVE",
"527 829 OFFCURVE",
"560 886 CURVE",
"610 822 LINE",
"573 755 OFFCURVE",
"499 718 OFFCURVE",
"432 718 CURVE SMOOTH",
"359 718 OFFCURVE",
"303 752 OFFCURVE",
"288 817 CURVE",
"361 878 LINE",
"384 809 OFFCURVE",
"419 806 OFFCURVE",
"446 806 CURVE SMOOTH"
);
}
);
userData = {
com.fontlab.hintData = {
hhints = (
{
position = 718;
width = 88;
}
);
};
};
width = 649;
}
);
unicode = 0102;
},
{
glyphname = Acircumflex;
layers = (
{
layerId = master01;
paths = (
{
closed = 1;
nodes = (
"268 756 LINE",
"472 895 LINE",
"593 751 LINE",
"514 691 LINE",
"440 773 LINE",
"314 690 LINE"
);
},
{
closed = 1;
nodes = (
"539 45 LINE",
"443 -12 LINE",
"413 240 LINE",
"190 195 LINE",
"72 -8 LINE",
"-6 36 LINE",
"74 171 LINE",
"50 168 LINE",
"54 264 LINE",
"137 279 LINE",
"363 666 LINE",
"465 684 LINE"
);
},
{
closed = 1;
nodes = (
"402 334 LINE",
"380 518 LINE",
"253 303 LINE"
);
}
);
userData = {
com.fontlab.hintData = {
hhints = (
{
position = 690;
width = 21;
}
);
};
};
width = 649;
}
);
unicode = 00C2;
},
{
glyphname = Adieresis;
layers = (
{
layerId = master01;
paths = (
{
closed = 1;
nodes = (
"539 45 LINE",
"443 -12 LINE",
"413 240 LINE",
"190 195 LINE",
"72 -8 LINE",
"-6 36 LINE",
"74 171 LINE",
"50 168 LINE",
"54 264 LINE",
"137 279 LINE",
"363 666 LINE",
"465 684 LINE"
);
},
{
closed = 1;
nodes = (
"402 334 LINE",
"380 518 LINE",
"253 303 LINE"
);
},
{
closed = 1;
nodes = (
"397 719 LINE",
"276 704 LINE",
"314 818 LINE",
"434 833 LINE"
);
},
{
closed = 1;
nodes = (
"567 719 LINE",
"446 704 LINE",
"484 818 LINE",
"604 833 LINE"
);
}
);
width = 649;
}
);
unicode = 00C4;
},
{
glyphname = Agrave;
layers = (
{
layerId = master01;
paths = (
{
closed = 1;
nodes = (
"457 700 LINE",
"335 856 LINE",
"446 912 LINE",
"551 750 LINE"
);
},
{
closed = 1;
nodes = (
"539 45 LINE",
"443 -12 LINE",
"413 240 LINE",
"190 195 LINE",
"72 -8 LINE",
"-6 36 LINE",
"74 171 LINE",
"50 168 LINE",
"54 264 LINE",
"137 279 LINE",
"363 666 LINE",
"465 684 LINE"
);
},
{
closed = 1;
nodes = (
"402 334 LINE",
"380 518 LINE",
"253 303 LINE"
);
}
);
width = 649;
}
);
unicode = 00C0;
},
{
glyphname = Aogonek;
layers = (
{
layerId = master01;
paths = (
{
closed = 1;
nodes = (
"403 -34 LINE SMOOTH",
"384 -45 OFFCURVE",
"350 -66 OFFCURVE",
"350 -91 CURVE SMOOTH",
"350 -103 OFFCURVE",
"361 -112 OFFCURVE",
"374 -112 CURVE SMOOTH",
"395 -112 OFFCURVE",
"420 -98 OFFCURVE",
"453 -75 CURVE",
"492 -131 LINE",
"459 -164 OFFCURVE",
"401 -196 OFFCURVE",
"356 -196 CURVE SMOOTH",
"297 -196 OFFCURVE",
"256 -170 OFFCURVE",
"256 -119 CURVE SMOOTH",
"256 -37 OFFCURVE",
"327 1 OFFCURVE",
"385 30 CURVE SMOOTH",
"434 55 LINE",
"413 240 LINE",
"190 195 LINE",
"72 -8 LINE",
"-6 36 LINE",
"74 171 LINE",
"50 168 LINE",
"54 264 LINE",
"137 279 LINE",
"363 666 LINE",
"465 684 LINE",
"539 45 LINE"
);
},
{
closed = 1;
nodes = (
"402 334 LINE",
"380 518 LINE",
"253 303 LINE"
);
}
);
userData = {
com.fontlab.hintData = {
hhints = (
{
position = -196;
width = 84;
}
);
vhints = (
{
position = 256;
width = 94;
}
);
};
};
width = 663;
}
);
unicode = 0104;
},
{
glyphname = Aring;
layers = (
{
layerId = master01;
paths = (
{
closed = 1;
nodes = (
"341 702 OFFCURVE",
"300 740 OFFCURVE",
"300 792 CURVE SMOOTH",
"300 873 OFFCURVE",
"388 942 OFFCURVE",
"478 942 CURVE SMOOTH",
"547 942 OFFCURVE",
"584 900 OFFCURVE",
"584 850 CURVE SMOOTH",
"584 752 OFFCURVE",
"481 702 OFFCURVE",
"408 702 CURVE SMOOTH"
);
},
{
closed = 1;
nodes = (
"433 857 OFFCURVE",
"388 840 OFFCURVE",
"388 810 CURVE SMOOTH",
"388 796 OFFCURVE",
"405 786 OFFCURVE",
"428 786 CURVE SMOOTH",
"457 786 OFFCURVE",
"498 805 OFFCURVE",
"498 830 CURVE SMOOTH",
"498 845 OFFCURVE",
"481 857 OFFCURVE",
"457 857 CURVE SMOOTH"
);
},
{
closed = 1;
nodes = (
"539 45 LINE",
"443 -12 LINE",
"413 240 LINE",
"190 195 LINE",
"72 -8 LINE",
"-6 36 LINE",
"74 171 LINE",
"50 168 LINE",
"54 264 LINE",
"137 279 LINE",
"363 666 LINE",
"465 684 LINE"
);
},
{
closed = 1;
nodes = (
"402 334 LINE",
"380 518 LINE",
"253 303 LINE"
);
}
);
userData = {
com.fontlab.hintData = {
hhints = (
{
position = 702;
width = 84;
},
{
position = 857;
width = 85;
}
);
vhints = (
{
position = 300;
width = 88;
},
{
position = 498;
width = 86;
}
);
};
};
width = 649;
}
);
unicode = 00C5;
},
{
glyphname = Atilde;
layers = (
{
layerId = master01;
paths = (
{
closed = 1;
nodes = (
"539 45 LINE",
"443 -12 LINE",
"413 240 LINE",
"190 195 LINE",
"72 -8 LINE",
"-6 36 LINE",
"74 171 LINE",
"50 168 LINE",
"54 264 LINE",
"137 279 LINE",
"363 666 LINE",
"465 684 LINE"
);
},
{
closed = 1;
nodes = (
"402 334 LINE",
"380 518 LINE",
"253 303 LINE"
);
},
{
closed = 1;
nodes = (
"641 838 LINE",
"623 807 OFFCURVE",
"567 705 OFFCURVE",
"466 705 CURVE SMOOTH",
"434 705 OFFCURVE",
"411 722 OFFCURVE",
"396 753 CURVE SMOOTH",
"384 776 OFFCURVE",
"376 788 OFFCURVE",
"361 788 CURVE SMOOTH",
"326 788 OFFCURVE",
"294 732 OFFCURVE",
"290 720 CURVE",
"232 753 LINE",
"259 809 OFFCURVE",
"314 877 OFFCURVE",
"392 877 CURVE SMOOTH",
"433 877 OFFCURVE",
"453 860 OFFCURVE",
"469 827 CURVE SMOOTH",
"478 808 OFFCURVE",
"490 793 OFFCURVE",
"503 793 CURVE SMOOTH",
"524 793 OFFCURVE",
"555 816 OFFCURVE",
"580 870 CURVE"
);
}
);
userData = {
com.fontlab.hintData = {
hhints = (
{
position = 705;
width = 88;
},
{
position = 788;
width = 89;
}
);
};
};
width = 649;
}
);
unicode = 00C3;
},
{
glyphname = AE;
layers = (
{
layerId = master01;
paths = (
{
closed = 1;
nodes = (
"159 313 LINE",
"268 334 LINE",
"586 681 LINE",
"1064 681 LINE",
"1026 582 LINE",
"643 582 LINE",
"605 402 LINE",
"971 402 LINE",
"921 304 LINE",
"584 304 LINE",
"541 99 LINE",
"951 99 LINE",
"895 0 LINE",
"421 0 LINE",
"480 281 LINE",
"304 246 LINE",
"72 -6 LINE",
"-3 39 LINE",
"157 215 LINE"
);
},
{
closed = 1;
nodes = (
"523 484 LINE",
"410 361 LINE",
"501 379 LINE"
);
}
);
userData = {
com.fontlab.hintData = {
hhints = (
{
position = 0;
width = 99;
},
{
position = 304;
width = 98;
},
{
position = 582;
width = 99;
}
);
};
};
width = 1075;
}
);
unicode = 00C6;
},
{
glyphname = B;
layers = (
{
layerId = master01;
paths = (
{
closed = 1;
nodes = (
"150 681 LINE",
"370 681 LINE SMOOTH",
"491 681 OFFCURVE",
"559 628 OFFCURVE",
"559 538 CURVE SMOOTH",
"559 466 OFFCURVE",
"524 412 OFFCURVE",
"462 374 CURVE",
"510 357 OFFCURVE",
"554 309 OFFCURVE",
"554 244 CURVE SMOOTH",
"554 39 OFFCURVE",
"254 0 OFFCURVE",
"92 0 CURVE SMOOTH",
"6 0 LINE"
);
},
{
closed = 1;
nodes = (
"123 96 LINE",
"223 96 OFFCURVE",
"456 115 OFFCURVE",
"456 230 CURVE SMOOTH",
"456 296 OFFCURVE",
"369 309 OFFCURVE",
"316 309 CURVE SMOOTH",
"168 309 LINE"
);
},
{
closed = 1;
nodes = (
"189 405 LINE",
"296 405 LINE SMOOTH",
"363 405 OFFCURVE",
"459 427 OFFCURVE",
"459 515 CURVE SMOOTH",
"459 550 OFFCURVE",
"437 584 OFFCURVE",
"350 584 CURVE SMOOTH",
"227 584 LINE"
);
}
);
userData = {
com.fontlab.hintData = {
hhints = (
{
position = 0;
width = 96;
},
{
position = 309;
width = 96;
},
{
position = 584;
width = 97;
}
);
vhints = (
{
position = 456;
width = 98;
}
);
};
};
width = 628;
}
);
unicode = 0042;
},
{
glyphname = C;
layers = (
{
layerId = master01;
paths = (
{
closed = 1;
nodes = (
"144 -1 OFFCURVE",
"48 95 OFFCURVE",
"48 229 CURVE SMOOTH",
"48 384 OFFCURVE",
"225 681 OFFCURVE",
"435 681 CURVE SMOOTH",
"475 681 OFFCURVE",
"512 667 OFFCURVE",
"543 651 CURVE",
"546 665 LINE",
"635 665 LINE",
"600 502 LINE",
"511 502 LINE",
"519 539 LINE",
"502 561 OFFCURVE",
"469 585 OFFCURVE",
"410 585 CURVE SMOOTH",
"283 585 OFFCURVE",
"145 362 OFFCURVE",
"145 253 CURVE SMOOTH",
"145 163 OFFCURVE",
"208 95 OFFCURVE",
"300 95 CURVE SMOOTH",
"379 95 OFFCURVE",
"456 140 OFFCURVE",
"514 221 CURVE",
"571 149 LINE",
"494 56 OFFCURVE",
"384 -1 OFFCURVE",
"279 -1 CURVE SMOOTH"
);
}
);
userData = {
com.fontlab.hintData = {
hhints = (
{
position = -1;
width = 96;
},
{
position = 585;
width = 96;
}
);
vhints = (
{
position = 48;
width = 97;
}
);
};
};
width = 657;
}
);
unicode = 0043;
},
{
glyphname = Cacute;
layers = (
{
layerId = master01;
paths = (
{
closed = 1;
nodes = (
"536 906 LINE",
"606 831 LINE",
"390 710 LINE",
"331 772 LINE"
);
},
{
closed = 1;
nodes = (
"144 -1 OFFCURVE",
"48 95 OFFCURVE",
"48 229 CURVE SMOOTH",
"48 384 OFFCURVE",
"225 681 OFFCURVE",
"435 681 CURVE SMOOTH",
"475 681 OFFCURVE",
"512 667 OFFCURVE",
"543 651 CURVE",
"546 665 LINE",
"635 665 LINE",
"600 502 LINE",
"511 502 LINE",
"519 539 LINE",
"502 561 OFFCURVE",
"469 585 OFFCURVE",
"410 585 CURVE SMOOTH",
"283 585 OFFCURVE",
"145 362 OFFCURVE",
"145 253 CURVE SMOOTH",
"145 163 OFFCURVE",
"208 95 OFFCURVE",
"300 95 CURVE SMOOTH",
"379 95 OFFCURVE",
"456 140 OFFCURVE",
"514 221 CURVE",
"571 149 LINE",
"494 56 OFFCURVE",
"384 -1 OFFCURVE",
"279 -1 CURVE SMOOTH"
);
}
);
userData = {
com.fontlab.hintData = {
hhints = (
{
position = -1;
width = 96;
},
{
position = 585;
width = 96;
}
);
vhints = (
{
position = 48;
width = 97;
}
);
};
};
width = 657;
}
);
unicode = 0106;
},
{
glyphname = Ccaron;
layers = (
{
layerId = master01;
paths = (
{
closed = 1;
nodes = (
"633 824 LINE",
"433 701 LINE",
"308 830 LINE",
"387 897 LINE",
"460 812 LINE",
"589 897 LINE"
);
},
{
closed = 1;
nodes = (
"144 -1 OFFCURVE",
"48 95 OFFCURVE",
"48 229 CURVE SMOOTH",
"48 384 OFFCURVE",
"225 681 OFFCURVE",
"435 681 CURVE SMOOTH",
"475 681 OFFCURVE",
"512 667 OFFCURVE",
"543 651 CURVE",
"546 665 LINE",
"635 665 LINE",
"600 502 LINE",
"511 502 LINE",
"519 539 LINE",
"502 561 OFFCURVE",
"469 585 OFFCURVE",
"410 585 CURVE SMOOTH",
"283 585 OFFCURVE",
"145 362 OFFCURVE",
"145 253 CURVE SMOOTH",
"145 163 OFFCURVE",
"208 95 OFFCURVE",
"300 95 CURVE SMOOTH",
"379 95 OFFCURVE",
"456 140 OFFCURVE",
"514 221 CURVE",
"571 149 LINE",
"494 56 OFFCURVE",
"384 -1 OFFCURVE",
"279 -1 CURVE SMOOTH"
);
}
);
userData = {
com.fontlab.hintData = {
hhints = (
{
position = -1;
width = 96;
},
{
position = 585;
width = 96;
}
);
vhints = (
{
position = 48;
width = 97;
}
);
};
};
width = 657;
}
);
unicode = 010C;
},
{
glyphname = Ccedilla;
layers = (
{
layerId = master01;
paths = (
{
closed = 1;
nodes = (
"239 2 LINE",
"124 19 OFFCURVE",
"48 109 OFFCURVE",
"48 229 CURVE SMOOTH",
"48 384 OFFCURVE",
"225 681 OFFCURVE",
"435 681 CURVE SMOOTH",
"475 681 OFFCURVE",
"512 667 OFFCURVE",
"543 651 CURVE",
"546 665 LINE",
"635 665 LINE",
"600 502 LINE",
"511 502 LINE",
"519 539 LINE",
"502 561 OFFCURVE",
"469 585 OFFCURVE",
"410 585 CURVE SMOOTH",
"283 585 OFFCURVE",
"145 362 OFFCURVE",
"145 253 CURVE SMOOTH",
"145 163 OFFCURVE",
"208 95 OFFCURVE",
"300 95 CURVE SMOOTH",
"379 95 OFFCURVE",
"456 140 OFFCURVE",
"514 221 CURVE",
"571 149 LINE",
"497 60 OFFCURVE",
"393 4 OFFCURVE",
"293 0 CURVE",
"284 -33 LINE",
"329 -37 OFFCURVE",
"360 -54 OFFCURVE",
"360 -94 CURVE SMOOTH",
"360 -159 OFFCURVE",
"304 -196 OFFCURVE",
"246 -196 CURVE SMOOTH",
"215 -196 OFFCURVE",
"195 -186 OFFCURVE",
"178 -157 CURVE",
"229 -123 LINE",
"233 -132 OFFCURVE",
"244 -139 OFFCURVE",
"258 -139 CURVE SMOOTH",
"275 -139 OFFCURVE",
"291 -128 OFFCURVE",
"291 -110 CURVE SMOOTH",
"291 -97 OFFCURVE",
"282 -90 OFFCURVE",
"264 -90 CURVE SMOOTH",
"257 -90 OFFCURVE",
"246 -93 OFFCURVE",
"240 -98 CURVE",
"207 -54 LINE"
);
}
);
userData = {
com.fontlab.hintData = {
hhints = (
{
position = -196;
width = 57;
},
{
position = 0;
width = 95;
},
{
position = 585;
width = 96;
}
);
vhints = (
{
position = 48;
width = 97;
},
{
position = 291;
width = 69;
}
);
};
};
width = 657;
}
);
unicode = 00C7;
},
{
glyphname = Ccircumflex;
layers = (
{
layerId = master01;
paths = (
{
closed = 1;
nodes = (
"144 -1 OFFCURVE",
"48 95 OFFCURVE",
"48 229 CURVE SMOOTH",
"48 384 OFFCURVE",
"225 681 OFFCURVE",
"435 681 CURVE SMOOTH",
"475 681 OFFCURVE",
"512 667 OFFCURVE",
"543 651 CURVE",
"546 665 LINE",
"635 665 LINE",
"600 502 LINE",
"511 502 LINE",
"519 539 LINE",
"502 561 OFFCURVE",
"469 585 OFFCURVE",
"410 585 CURVE SMOOTH",
"283 585 OFFCURVE",
"145 362 OFFCURVE",
"145 253 CURVE SMOOTH",
"145 163 OFFCURVE",
"208 95 OFFCURVE",
"300 95 CURVE SMOOTH",
"379 95 OFFCURVE",
"456 140 OFFCURVE",
"514 221 CURVE",
"571 149 LINE",
"494 56 OFFCURVE",
"384 -1 OFFCURVE",
"279 -1 CURVE SMOOTH"
);
},
{
closed = 1;
nodes = (
"288 756 LINE",
"492 895 LINE",
"613 751 LINE",
"534 691 LINE",
"460 773 LINE",
"334 690 LINE"
);
}
);
userData = {
com.fontlab.hintData = {
hhints = (
{
position = -1;
width = 96;
},
{
position = 585;
width = 96;
},
{
position = 690;
width = 21;
}
);
vhints = (
{
position = 48;
width = 97;
}
);
};
};
width = 657;
}
);
unicode = 0108;
},
{
glyphname = D;
layers = (
{
layerId = master01;
paths = (
{
closed = 1;
nodes = (
"150 680 LINE",
"197 680 LINE SMOOTH",
"469 680 OFFCURVE",
"583 549 OFFCURVE",
"583 375 CURVE SMOOTH",
"583 144 OFFCURVE",
"404 -14 OFFCURVE",
"158 -14 CURVE SMOOTH",
"122 -14 OFFCURVE",
"55 -7 OFFCURVE",
"7 7 CURVE"
);
},
{
closed = 1;
nodes = (
"430 164 OFFCURVE",
"484 255 OFFCURVE",
"484 368 CURVE SMOOTH",
"484 509 OFFCURVE",
"360 583 OFFCURVE",
"226 583 CURVE",
"121 86 LINE",
"136 84 OFFCURVE",
"158 83 OFFCURVE",
"178 83 CURVE SMOOTH",
"227 83 OFFCURVE",
"298 89 OFFCURVE",
"357 123 CURVE SMOOTH"
);
}
);
userData = {
com.fontlab.hintData = {
hhints = (
{
position = -14;
width = 97;
},
{
position = 583;
width = 97;
}
);
vhints = (
{
position = 484;
width = 99;
}
);
};
};
width = 642;
}
);
unicode = 0044;
},
{
glyphname = Eth;
layers = (
{
layerId = master01;
paths = (
{
closed = 1;
nodes = (
"117 271 LINE",
"20 271 LINE",
"59 373 LINE",
"138 373 LINE",
"204 680 LINE",
"251 680 LINE SMOOTH",
"523 680 OFFCURVE",
"637 549 OFFCURVE",
"637 375 CURVE SMOOTH",
"637 144 OFFCURVE",
"458 -14 OFFCURVE",
"212 -14 CURVE SMOOTH",
"176 -14 OFFCURVE",
"109 -7 OFFCURVE",
"61 7 CURVE"
);
},
{
closed = 1;
nodes = (
"484 164 OFFCURVE",
"538 255 OFFCURVE",
"538 368 CURVE SMOOTH",
"538 509 OFFCURVE",
"414 583 OFFCURVE",
"280 583 CURVE",
"235 373 LINE",
"343 373 LINE",
"304 271 LINE",
"214 271 LINE",
"175 86 LINE",
"190 84 OFFCURVE",
"212 83 OFFCURVE",
"232 83 CURVE SMOOTH",
"281 83 OFFCURVE",
"352 89 OFFCURVE",
"411 123 CURVE SMOOTH"
);
}
);
userData = {
com.fontlab.hintData = {
hhints = (
{
position = -14;
width = 97;
},
{
position = 271;
width = 102;
},
{
position = 583;
width = 97;
}
);
vhints = (
{
position = 538;
width = 99;
}
);
};
};
width = 702;
}
);
unicode = 00D0;
},
{
glyphname = Dcaron;
layers = (
{
layerId = master01;
paths = (
{
closed = 1;
nodes = (
"565 824 LINE",
"365 701 LINE",
"241 830 LINE",
"320 897 LINE",
"393 812 LINE",
"521 897 LINE"
);
},
{
closed = 1;
nodes = (
"150 680 LINE",
"197 680 LINE SMOOTH",
"469 680 OFFCURVE",
"583 549 OFFCURVE",
"583 375 CURVE SMOOTH",
"583 144 OFFCURVE",
"404 -14 OFFCURVE",
"158 -14 CURVE SMOOTH",
"122 -14 OFFCURVE",
"55 -7 OFFCURVE",
"7 7 CURVE"
);
},
{
closed = 1;
nodes = (
"430 164 OFFCURVE",
"484 255 OFFCURVE",
"484 368 CURVE SMOOTH",
"484 509 OFFCURVE",
"360 583 OFFCURVE",
"226 583 CURVE",
"121 86 LINE",
"136 84 OFFCURVE",
"158 83 OFFCURVE",
"178 83 CURVE SMOOTH",
"227 83 OFFCURVE",
"298 89 OFFCURVE",
"357 123 CURVE SMOOTH"
);
}
);
userData = {
com.fontlab.hintData = {
hhints = (
{
position = -14;
width = 97;
},
{
position = 583;
width = 97;
}
);
vhints = (
{
position = 484;
width = 99;
}
);
};
};
width = 642;
}
);
unicode = 010E;
},
{
glyphname = Dcroat;
layers = (
{
layerId = master01;
paths = (
{
closed = 1;
nodes = (
"117 271 LINE",
"20 271 LINE",
"59 373 LINE",
"138 373 LINE",
"204 680 LINE",
"251 680 LINE SMOOTH",
"523 680 OFFCURVE",
"637 549 OFFCURVE",
"637 375 CURVE SMOOTH",
"637 144 OFFCURVE",
"458 -14 OFFCURVE",
"212 -14 CURVE SMOOTH",
"176 -14 OFFCURVE",
"109 -7 OFFCURVE",
"61 7 CURVE"
);
},
{
closed = 1;
nodes = (
"484 164 OFFCURVE",
"538 255 OFFCURVE",
"538 368 CURVE SMOOTH",
"538 509 OFFCURVE",
"414 583 OFFCURVE",
"280 583 CURVE",
"235 373 LINE",
"343 373 LINE",
"304 271 LINE",
"214 271 LINE",
"175 86 LINE",
"190 84 OFFCURVE",
"212 83 OFFCURVE",
"232 83 CURVE SMOOTH",
"281 83 OFFCURVE",
"352 89 OFFCURVE",
"411 123 CURVE SMOOTH"
);
}
);
userData = {
com.fontlab.hintData = {
hhints = (
{
position = -14;
width = 97;
},
{
position = 271;
width = 102;
},
{
position = 583;
width = 97;
}
);
vhints = (
{
position = 538;
width = 99;
}
);
};
};
width = 702;
}
);
unicode = 0110;
},
{
glyphname = E;
layers = (
{
layerId = master01;
paths = (
{
closed = 1;
nodes = (
"536 99 LINE",
"480 0 LINE",
"6 0 LINE",
"150 681 LINE",
"649 681 LINE",
"611 582 LINE",
"228 582 LINE",
"190 402 LINE",
"556 402 LINE",
"506 304 LINE",
"169 304 LINE",
"126 99 LINE"
);
}
);
userData = {
com.fontlab.hintData = {
hhints = (
{
position = 0;
width = 99;
},
{
position = 304;
width = 98;
},
{
position = 582;
width = 99;
}
);
};
};
width = 637;
}
);
unicode = 0045;
},
{
glyphname = Eacute;
layers = (
{
layerId = master01;
paths = (
{
closed = 1;
nodes = (
"486 906 LINE",
"556 831 LINE",
"340 710 LINE",
"281 772 LINE"
);
},
{
closed = 1;
nodes = (
"536 99 LINE",
"480 0 LINE",
"6 0 LINE",
"150 681 LINE",
"649 681 LINE",
"611 582 LINE",
"228 582 LINE",
"190 402 LINE",
"556 402 LINE",
"506 304 LINE",
"169 304 LINE",
"126 99 LINE"
);
}
);
userData = {
com.fontlab.hintData = {
hhints = (
{
position = 0;
width = 99;
},
{
position = 304;
width = 98;
},
{
position = 582;
width = 99;
}
);
};
};
width = 637;
}
);
unicode = 00C9;
},
{
glyphname = Ecaron;
layers = (
{
layerId = master01;
paths = (
{
closed = 1;
nodes = (
"593 824 LINE",
"393 701 LINE",
"268 830 LINE",
"347 897 LINE",
"420 812 LINE",
"549 897 LINE"
);
},
{
closed = 1;
nodes = (
"536 99 LINE",
"480 0 LINE",
"6 0 LINE",
"150 681 LINE",
"649 681 LINE",
"611 582 LINE",
"228 582 LINE",
"190 402 LINE",
"556 402 LINE",
"506 304 LINE",
"169 304 LINE",
"126 99 LINE"
);
}
);
userData = {
com.fontlab.hintData = {
hhints = (
{
position = 0;
width = 99;
},
{
position = 304;
width = 98;
},
{
position = 582;
width = 99;
}
);
};
};
width = 637;
}
);
unicode = 011A;
},
{
glyphname = Ecircumflex;
layers = (
{
layerId = master01;
paths = (
{
closed = 1;
nodes = (
"254 766 LINE",
"455 895 LINE",
"578 761 LINE",
"501 701 LINE",
"425 783 LINE",
"299 700 LINE"
);
},
{
closed = 1;
nodes = (
"536 99 LINE",
"480 0 LINE",
"6 0 LINE",
"150 681 LINE",
"649 681 LINE",
"611 582 LINE",
"228 582 LINE",
"190 402 LINE",
"556 402 LINE",
"506 304 LINE",
"169 304 LINE",
"126 99 LINE"
);
}
);
userData = {
com.fontlab.hintData = {
hhints = (
{
position = 0;
width = 99;
},
{
position = 304;
width = 98;
},
{
position = 582;
width = 99;
}
);
};
};
width = 637;
}
);
unicode = 00CA;
},
{
glyphname = Edieresis;
layers = (
{
layerId = master01;
paths = (
{
closed = 1;
nodes = (
"377 719 LINE",
"257 704 LINE",
"295 818 LINE",
"414 833 LINE"
);
},
{
closed = 1;
nodes = (
"547 719 LINE",
"427 704 LINE",
"465 818 LINE",
"584 833 LINE"
);
},
{
closed = 1;
nodes = (
"536 99 LINE",
"480 0 LINE",
"6 0 LINE",
"150 681 LINE",
"649 681 LINE",
"611 582 LINE",
"228 582 LINE",
"190 402 LINE",
"556 402 LINE",
"506 304 LINE",
"169 304 LINE",
"126 99 LINE"
);
}
);
userData = {
com.fontlab.hintData = {
hhints = (
{
position = 0;
width = 99;
},
{
position = 304;
width = 98;
},
{
position = 582;
width = 99;
}
);
};
};
width = 637;
}
);
unicode = 00CB;
},
{
glyphname = Egrave;
layers = (
{
layerId = master01;
paths = (
{
closed = 1;
nodes = (
"419 700 LINE",
"287 856 LINE",
"398 912 LINE",
"512 750 LINE"
);
},
{
closed = 1;
nodes = (
"536 99 LINE",
"480 0 LINE",
"6 0 LINE",
"150 681 LINE",
"649 681 LINE",
"611 582 LINE",
"228 582 LINE",
"190 402 LINE",
"556 402 LINE",
"506 304 LINE",
"169 304 LINE",
"126 99 LINE"
);
}
);
userData = {
com.fontlab.hintData = {
hhints = (
{
position = 0;
width = 99;
},
{
position = 304;
width = 98;
},
{
position = 582;
width = 99;
}
);
};
};
width = 637;
}
);
unicode = 00C8;
},
{
glyphname = Eogonek;
layers = (
{
layerId = master01;
paths = (
{
closed = 1;
nodes = (
"409 -34 LINE SMOOTH",
"390 -43 OFFCURVE",
"357 -63 OFFCURVE",
"356 -91 CURVE SMOOTH",
"356 -103 OFFCURVE",
"367 -112 OFFCURVE",
"380 -112 CURVE SMOOTH",
"401 -112 OFFCURVE",
"426 -98 OFFCURVE",
"459 -75 CURVE",
"500 -131 LINE",
"467 -164 OFFCURVE",
"407 -196 OFFCURVE",
"362 -196 CURVE SMOOTH",
"303 -196 OFFCURVE",
"262 -170 OFFCURVE",
"262 -119 CURVE SMOOTH",
"262 -60 OFFCURVE",
"303 -26 OFFCURVE",
"344 0 CURVE",
"6 0 LINE",
"150 681 LINE",
"649 681 LINE",
"611 582 LINE",
"228 582 LINE",
"190 402 LINE",
"556 402 LINE",
"506 304 LINE",
"169 304 LINE",
"126 99 LINE",
"536 99 LINE",
"480 0 LINE"
);
}
);
userData = {
com.fontlab.hintData = {
hhints = (
{
position = -196;
width = 84;
},
{
position = 0;
width = 99;
},
{
position = 304;
width = 98;
},
{
position = 582;
width = 99;
}
);
vhints = (
{
position = 262;
width = 94;
}
);
};
};
width = 637;
}
);
unicode = 0118;
},
{
glyphname = F;
layers = (
{
layerId = master01;
paths = (
{
closed = 1;
nodes = (
"222 582 LINE",
"182 395 LINE",
"502 395 LINE",
"464 295 LINE",
"161 295 LINE",
"101 12 LINE",
"-2 -5 LINE",
"144 681 LINE",
"610 681 LINE",
"571 582 LINE"
);
}
);
userData = {
com.fontlab.hintData = {
hhints = (
{
position = 295;
width = 100;
},
{
position = 582;
width = 99;
}
);
};
};
width = 531;
}
);
unicode = 0046;
},
{
glyphname = G;
layers = (
{
layerId = master01;
paths = (
{
closed = 1;
nodes = (
"672 197 LINE",
"660 202 OFFCURVE",
"648 207 OFFCURVE",
"634 210 CURVE",
"601 142 OFFCURVE",
"505 -2 OFFCURVE",
"300 -2 CURVE SMOOTH",
"153 -2 OFFCURVE",
"65 104 OFFCURVE",
"65 252 CURVE SMOOTH",
"65 457 OFFCURVE",
"244 682 OFFCURVE",
"463 682 CURVE SMOOTH",
"616 682 OFFCURVE",
"695 587 OFFCURVE",
"700 449 CURVE",
"601 430 LINE",
"597 524 OFFCURVE",
"546 586 OFFCURVE",
"443 586 CURVE SMOOTH",
"289 586 OFFCURVE",
"190 424 OFFCURVE",
"172 341 CURVE",
"167.441 321.246 OFFCURVE",
"165.011 300.122 OFFCURVE",
"165.011 278.86 CURVE SMOOTH",
"165.011 188.181 OFFCURVE",
"209.211 95 OFFCURVE",
"321 95 CURVE SMOOTH",
"416 95 OFFCURVE",
"491 141 OFFCURVE",
"538 220 CURVE",
"486 218 OFFCURVE",
"416 202 OFFCURVE",
"364 182 CURVE",
"387 288 LINE",
"447 306 OFFCURVE",
"513 316 OFFCURVE",
"569 316 CURVE SMOOTH",
"608 316 OFFCURVE",
"651 310 OFFCURVE",
"694 299 CURVE"
);
}
);
userData = {
com.fontlab.hintData = {
hhints = (
{
position = -2;
width = 97;
},
{
position = 220;
width = 96;
},
{
position = 586;
width = 96;
}
);
vhints = (
{
position = 65;
width = 100;
},
{
position = 601;
width = 99;
}
);
};
};
width = 770;
}
);
unicode = 0047;
},
{
glyphname = Gcircumflex;
layers = (
{
layerId = master01;
paths = (
{
closed = 1;
nodes = (
"672 197 LINE",
"660 202 OFFCURVE",
"648 207 OFFCURVE",
"634 210 CURVE",
"601 142 OFFCURVE",
"505 -2 OFFCURVE",
"300 -2 CURVE SMOOTH",
"153 -2 OFFCURVE",
"65 104 OFFCURVE",
"65 252 CURVE SMOOTH",
"65 457 OFFCURVE",
"244 682 OFFCURVE",
"463 682 CURVE SMOOTH",
"616 682 OFFCURVE",
"695 587 OFFCURVE",
"700 449 CURVE",
"601 430 LINE",
"597 524 OFFCURVE",
"546 586 OFFCURVE",
"443 586 CURVE SMOOTH",
"289 586 OFFCURVE",
"190 424 OFFCURVE",
"172 341 CURVE SMOOTH",
"167.441 321.246 OFFCURVE",
"165.011 300.122 OFFCURVE",
"165.011 278.86 CURVE SMOOTH",
"165.011 188.181 OFFCURVE",
"209.211 95 OFFCURVE",
"321 95 CURVE SMOOTH",
"416 95 OFFCURVE",
"491 141 OFFCURVE",
"538 220 CURVE",
"486 218 OFFCURVE",
"416 202 OFFCURVE",
"364 182 CURVE",
"387 288 LINE",
"447 306 OFFCURVE",
"513 316 OFFCURVE",
"569 316 CURVE SMOOTH",
"608 316 OFFCURVE",
"651 310 OFFCURVE",
"694 299 CURVE"
);
},
{
closed = 1;
nodes = (
"308 756 LINE",
"512 895 LINE",
"633 751 LINE",
"554 691 LINE",
"480 773 LINE",
"354 690 LINE"
);
}
);
userData = {
com.fontlab.hintData = {
hhints = (
{
position = -2;
width = 97;
},
{
position = 220;
width = 96;
},
{
position = 586;
width = 96;
},
{
position = 690;
width = 21;
}
);
vhints = (
{
position = 65;
width = 100;
},
{
position = 601;
width = 99;
}
);
};
};
width = 770;
}
);
unicode = 011C;
},
{
glyphname = H;
layers = (
{
layerId = master01;
paths = (
{
closed = 1;
nodes = (
"714 686 LINE",
"574 25 LINE",
"468 -9 LINE",
"538 322 LINE",
"163 270 LINE",
"111 25 LINE",
"5 -9 LINE",
"148 668 LINE",
"251 686 LINE",
"184 370 LINE",
"559 422 LINE",
"611 668 LINE"
);
}
);
width = 709;
}
);
unicode = 0048;
},
{
glyphname = Hcircumflex;
layers = (
{
layerId = master01;
paths = (
{
closed = 1;
nodes = (
"714 686 LINE",
"574 25 LINE",
"468 -9 LINE",
"538 322 LINE",
"163 270 LINE",
"111 25 LINE",
"5 -9 LINE",
"148 668 LINE",
"251 686 LINE",
"184 370 LINE",
"559 422 LINE",
"611 668 LINE"
);
},
{
closed = 1;
nodes = (
"287 756 LINE",
"491 895 LINE",
"612 751 LINE",
"533 691 LINE",
"459 773 LINE",
"333 690 LINE"
);
}
);
userData = {
com.fontlab.hintData = {
hhints = (
{
position = 690;
width = 21;
}
);
};
};
width = 709;
}
);
unicode = 0124;
},
{
glyphname = I;
layers = (
{
layerId = master01;
paths = (
{
closed = 1;
nodes = (
"344 582 LINE",
"242 99 LINE",
"366 99 LINE",
"327 0 LINE",
"-7 0 LINE",
"31 99 LINE",
"143 99 LINE",
"245 582 LINE",
"116 582 LINE",
"154 681 LINE",
"489 681 LINE",
"450 582 LINE"
);
}
);
userData = {
com.fontlab.hintData = {
hhints = (
{
position = 0;
width = 99;
},
{
position = 582;
width = 99;
}
);
};
};
width = 463;
}
);
unicode = 0049;
},
{
glyphname = Iacute;
layers = (
{
layerId = master01;
paths = (
{
closed = 1;
nodes = (
"414 906 LINE",
"484 831 LINE",
"268 710 LINE",
"209 772 LINE"
);
},
{
closed = 1;
nodes = (
"344 582 LINE",
"242 99 LINE",
"366 99 LINE",
"327 0 LINE",
"-7 0 LINE",
"31 99 LINE",
"143 99 LINE",
"245 582 LINE",
"116 582 LINE",
"154 681 LINE",
"489 681 LINE",
"450 582 LINE"
);
}
);
userData = {
com.fontlab.hintData = {
hhints = (
{
position = 0;
width = 99;
},
{
position = 582;
width = 99;
}
);
};
};
width = 463;
}
);
unicode = 00CD;
},
{
glyphname = Icircumflex;
layers = (
{
layerId = master01;
paths = (
{
closed = 1;
nodes = (
"172 776 LINE",
"372 895 LINE",
"496 771 LINE",
"417 701 LINE",
"342 783 LINE",
"216 700 LINE"
);
},
{
closed = 1;
nodes = (
"344 582 LINE",
"242 99 LINE",
"366 99 LINE",
"327 0 LINE",
"-7 0 LINE",
"31 99 LINE",
"143 99 LINE",
"245 582 LINE",
"116 582 LINE",
"154 681 LINE",
"489 681 LINE",
"450 582 LINE"
);
}
);
userData = {
com.fontlab.hintData = {
hhints = (
{
position = 0;
width = 99;
},
{
position = 582;
width = 99;
}
);
};
};
width = 463;
}
);
unicode = 00CE;
},
{
glyphname = Idieresis;
layers = (
{
layerId = master01;
paths = (
{
closed = 1;
nodes = (
"294 719 LINE",
"173 704 LINE",
"211 818 LINE",
"331 833 LINE"
);
},
{
closed = 1;
nodes = (
"464 719 LINE",
"343 704 LINE",
"381 818 LINE",
"501 833 LINE"
);
},
{
closed = 1;
nodes = (
"344 582 LINE",
"242 99 LINE",
"366 99 LINE",
"327 0 LINE",
"-7 0 LINE",
"31 99 LINE",
"143 99 LINE",
"245 582 LINE",
"116 582 LINE",
"154 681 LINE",
"489 681 LINE",
"450 582 LINE"
);
}
);
userData = {
com.fontlab.hintData = {
hhints = (
{
position = 0;
width = 99;
},
{
position = 582;
width = 99;
}
);
};
};
width = 463;
}
);
unicode = 00CF;
},
{
glyphname = Igrave;
layers = (
{
layerId = master01;
paths = (
{
closed = 1;
nodes = (
"349 700 LINE",
"217 856 LINE",
"329 912 LINE",
"443 750 LINE"
);
},
{
closed = 1;
nodes = (
"344 582 LINE",
"242 99 LINE",
"366 99 LINE",
"327 0 LINE",
"-7 0 LINE",
"31 99 LINE",
"143 99 LINE",
"245 582 LINE",
"116 582 LINE",
"154 681 LINE",
"489 681 LINE",
"450 582 LINE"
);
}
);
userData = {
com.fontlab.hintData = {
hhints = (
{
position = 0;
width = 99;
},
{
position = 582;
width = 99;
}
);
};
};
width = 463;
}
);
unicode = 00CC;
},
{
glyphname = J;
layers = (
{
layerId = master01;
paths = (
{
closed = 1;
nodes = (
"552 679 LINE",
"531 579 LINE",
"484 579 LINE",
"397 174 LINE SMOOTH",
"375 72 OFFCURVE",
"286 1 OFFCURVE",
"175 1 CURVE SMOOTH",
"81 1 OFFCURVE",
"22 57 OFFCURVE",
"22 137 CURVE SMOOTH",
"22 149 OFFCURVE",
"23 161 OFFCURVE",
"26 174 CURVE SMOOTH",
"38 226 LINE",
"140 244 LINE",
"125 174 LINE SMOOTH",
"124 168 OFFCURVE",
"123 163 OFFCURVE",
"123 158 CURVE SMOOTH",
"123 121 OFFCURVE",
"150 95 OFFCURVE",
"195 95 CURVE SMOOTH",
"248 95 OFFCURVE",
"288 129 OFFCURVE",
"298 174 CURVE SMOOTH",
"385 579 LINE",
"241 579 LINE",
"262 679 LINE"
);
}
);
userData = {
com.fontlab.hintData = {
hhints = (
{
position = 1;
width = 94;
},
{
position = 579;
width = 100;
}
);
vhints = (
{
position = 22;
width = 101;
}
);
};
};
width = 495;
}
);
unicode = 004A;
},
{
glyphname = Jcircumflex;
layers = (
{
layerId = master01;
paths = (
{
closed = 1;
nodes = (
"552 679 LINE",
"531 579 LINE",
"484 579 LINE",
"397 174 LINE SMOOTH",
"375 72 OFFCURVE",
"286 1 OFFCURVE",
"175 1 CURVE SMOOTH",
"81 1 OFFCURVE",
"22 57 OFFCURVE",
"22 137 CURVE SMOOTH",
"22 149 OFFCURVE",
"23 161 OFFCURVE",
"26 174 CURVE SMOOTH",
"38 226 LINE",
"140 244 LINE",
"125 174 LINE SMOOTH",
"124 168 OFFCURVE",
"123 163 OFFCURVE",
"123 158 CURVE SMOOTH",
"123 121 OFFCURVE",
"150 95 OFFCURVE",
"195 95 CURVE SMOOTH",
"248 95 OFFCURVE",
"288 129 OFFCURVE",
"298 174 CURVE SMOOTH",
"385 579 LINE",
"241 579 LINE",
"262 679 LINE"
);
},
{
closed = 1;
nodes = (
"268 756 LINE",
"472 895 LINE",
"593 751 LINE",
"514 691 LINE",
"440 773 LINE",
"314 690 LINE"
);
}
);
userData = {
com.fontlab.hintData = {
hhints = (
{
position = 1;
width = 94;
},
{
position = 579;
width = 100;
},
{
position = 690;
width = 21;
}
);
vhints = (
{
position = 22;
width = 101;
}
);
};
};
width = 495;
}
);
unicode = 0134;
},
{
glyphname = K;
layers = (
{
layerId = master01;
paths = (
{
closed = 1;
nodes = (
"430 -9 LINE",
"153 242 LINE",
"104 12 LINE",
"4 -5 LINE",
"147 668 LINE",
"247 686 LINE",
"194 435 LINE",
"551 689 LINE",
"598 616 LINE",
"207 337 LINE",
"506 68 LINE"
);
}
);
userData = {
com.fontlab.hintData = {
hhints = (
{
position = 669;
width = 20;
}
);
};
};
width = 603;
}
);
unicode = 004B;
},
{
glyphname = L;
layers = (
{
layerId = master01;
paths = (
{
closed = 1;
nodes = (
"145 665 LINE",
"248 683 LINE",
"125 104 LINE",
"447 128 LINE",
"431 29 LINE",
"3 -2 LINE"
);
}
);
userData = {
com.fontlab.hintData = {
hhints = (
{
position = -2;
width = 21;
}
);
};
};
width = 513;
}
);
unicode = 004C;
},
{
glyphname = Lacute;
layers = (
{
layerId = master01;
paths = (
{
closed = 1;
nodes = (
"405 906 LINE",
"475 831 LINE",
"259 710 LINE",
"200 772 LINE"
);
},
{
closed = 1;
nodes = (
"145 665 LINE",
"248 683 LINE",
"125 104 LINE",
"447 128 LINE",
"431 29 LINE",
"3 -2 LINE"
);
}
);
userData = {
com.fontlab.hintData = {
hhints = (
{
position = -2;
width = 21;
}
);
};
};
width = 513;
}
);
unicode = 0139;
},
{
glyphname = Lcaron;
layers = (
{
layerId = master01;
paths = (
{
closed = 1;
nodes = (
"188 665 LINE",
"291 683 LINE",
"168 104 LINE",
"489 128 LINE",
"474 29 LINE",
"46 -2 LINE"
);
},
{
closed = 1;
nodes = (
"496 824 LINE",
"296 701 LINE",
"171 825 LINE",
"251 897 LINE",
"324 812 LINE",
"452 897 LINE"
);
}
);
userData = {
com.fontlab.hintData = {
hhints = (
{
position = -2;
width = 21;
}
);
};
};
width = 558;
}
);
unicode = 013D;
},
{
glyphname = Lslash;
layers = (
{
layerId = master01;
paths = (
{
closed = 1;
nodes = (
"62 -2 LINE",
"116 254 LINE",
"79 234 LINE",
"40 318 LINE",
"142 374 LINE",
"204 665 LINE",
"306 683 LINE",
"253 435 LINE",
"293 457 LINE",
"328 374 LINE",
"228 318 LINE",
"183 104 LINE",
"505 128 LINE",
"490 29 LINE"
);
}
);
userData = {
com.fontlab.hintData = {
hhints = (
{
position = -2;
width = 21;
}
);
};
};
width = 575;
}
);
unicode = 0141;
},
{
glyphname = M;
layers = (
{
layerId = master01;
paths = (
{
closed = 1;
nodes = (
"92 12 LINE",
"-12 -6 LINE",
"273 669 LINE",
"361 685 LINE",
"398 166 LINE",
"667 670 LINE",
"762 685 LINE",
"762 13 LINE",
"660 -4 LINE",
"660 467 LINE",
"417 11 LINE",
"309 -3 LINE",
"276 446 LINE"
);
}
);
userData = {
com.fontlab.hintData = {
hhints = (
{
position = -3;
width = 20;
}
);
vhints = (
{
position = 660;
width = 102;
}
);
};
};
width = 891;
}
);
unicode = 004D;
},
{
glyphname = N;
layers = (
{
layerId = master01;
paths = (
{
closed = 1;
nodes = (
"649 686 LINE",
"507 16 LINE",
"409 -3 LINE",
"206 489 LINE",
"106 15 LINE",
"6 -4 LINE",
"146 660 LINE",
"239 685 LINE",
"447 184 LINE",
"549 668 LINE"
);
}
);
userData = {
com.fontlab.hintData = {
hhints = (
{
position = -4;
width = 22;
}
);
};
};
width = 641;
}
);
unicode = 004E;
},
{
glyphname = Nacute;
layers = (
{
layerId = master01;
paths = (
{
closed = 1;
nodes = (
"494 906 LINE",
"565 831 LINE",
"349 710 LINE",
"289 772 LINE"
);
},
{
closed = 1;
nodes = (
"649 686 LINE",
"507 16 LINE",
"409 -3 LINE",
"206 489 LINE",
"106 15 LINE",
"6 -4 LINE",
"146 660 LINE",
"239 685 LINE",
"447 184 LINE",
"549 668 LINE"
);
}
);
userData = {
com.fontlab.hintData = {
hhints = (
{
position = -4;
width = 22;
}
);
};
};
width = 641;
}
);
unicode = 0143;
},
{
glyphname = Ncaron;
layers = (
{
layerId = master01;
paths = (
{
closed = 1;
nodes = (
"603 824 LINE",
"403 701 LINE",
"278 830 LINE",
"357 897 LINE",
"430 812 LINE",
"559 897 LINE"
);
},
{
closed = 1;
nodes = (
"649 686 LINE",
"507 16 LINE",
"409 -3 LINE",
"206 489 LINE",
"106 15 LINE",
"6 -4 LINE",
"146 660 LINE",
"239 685 LINE",
"447 184 LINE",
"549 668 LINE"
);
}
);
userData = {
com.fontlab.hintData = {
hhints = (
{
position = -4;
width = 22;
}
);
};
};
width = 641;
}
);
unicode = 0147;
},
{
glyphname = Ntilde;
layers = (
{
layerId = master01;
paths = (
{
closed = 1;
nodes = (
"649 686 LINE",
"507 16 LINE",
"409 -3 LINE",
"206 489 LINE",
"106 15 LINE",
"6 -4 LINE",
"146 660 LINE",
"239 685 LINE",
"447 184 LINE",
"549 668 LINE"
);
},
{
closed = 1;
nodes = (
"633 838 LINE",
"615 807 OFFCURVE",
"559 705 OFFCURVE",
"458 705 CURVE SMOOTH",
"426 705 OFFCURVE",
"403 722 OFFCURVE",
"388 753 CURVE SMOOTH",
"376 776 OFFCURVE",
"368 788 OFFCURVE",
"353 788 CURVE SMOOTH",
"318 788 OFFCURVE",
"286 732 OFFCURVE",
"282 720 CURVE",
"224 753 LINE",
"251 809 OFFCURVE",
"306 877 OFFCURVE",
"384 877 CURVE SMOOTH",
"425 877 OFFCURVE",
"445 860 OFFCURVE",
"461 827 CURVE SMOOTH",
"470 808 OFFCURVE",
"482 793 OFFCURVE",
"495 793 CURVE SMOOTH",
"516 793 OFFCURVE",
"547 816 OFFCURVE",
"572 870 CURVE"
);
}
);
userData = {
com.fontlab.hintData = {
hhints = (
{
position = -4;
width = 22;
},
{
position = 705;
width = 88;
},
{
position = 788;
width = 89;
}
);
};
};
width = 641;
}
);
unicode = 00D1;
},
{
glyphname = O;
layers = (
{
layerId = master01;
paths = (
{
closed = 1;
nodes = (
"132 -2 OFFCURVE",
"59 99 OFFCURVE",
"59 232 CURVE SMOOTH",
"59 464 OFFCURVE",
"265 682 OFFCURVE",
"440 682 CURVE SMOOTH",
"563 682 OFFCURVE",
"638 581 OFFCURVE",
"638 448 CURVE SMOOTH",
"638 215 OFFCURVE",
"433 -2 OFFCURVE",
"256 -2 CURVE SMOOTH"
);
},
{
closed = 1;
nodes = (
"302 587 OFFCURVE",
"157 430 OFFCURVE",
"157 251 CURVE SMOOTH",
"157 160 OFFCURVE",
"201 93 OFFCURVE",
"276 93 CURVE SMOOTH",
"390 93 OFFCURVE",
"538 252 OFFCURVE",
"538 421 CURVE SMOOTH",
"538 511 OFFCURVE",
"494 587 OFFCURVE",
"414 587 CURVE SMOOTH"
);
}
);
userData = {
com.fontlab.hintData = {
hhints = (
{
position = -2;
width = 95;
},
{
position = 587;
width = 95;
}
);
vhints = (
{
position = 59;
width = 98;
},
{
position = 538;
width = 100;
}
);
};
};
width = 686;
}
);
unicode = 004F;
},
{
glyphname = Oacute;
layers = (
{
layerId = master01;
paths = (
{
closed = 1;
nodes = (
"546 906 LINE",
"617 831 LINE",
"401 710 LINE",
"341 772 LINE"
);
},
{
closed = 1;
nodes = (
"133 0 OFFCURVE",
"60 101 OFFCURVE",
"60 234 CURVE SMOOTH",
"60 466 OFFCURVE",
"265 684 OFFCURVE",
"441 684 CURVE SMOOTH",
"564 684 OFFCURVE",
"639 583 OFFCURVE",
"639 449 CURVE SMOOTH",
"639 217 OFFCURVE",
"433 0 OFFCURVE",
"257 0 CURVE SMOOTH"
);
},
{
closed = 1;
nodes = (
"302 589 OFFCURVE",
"158 431 OFFCURVE",
"158 252 CURVE SMOOTH",
"158 162 OFFCURVE",
"202 95 OFFCURVE",
"277 95 CURVE SMOOTH",
"391 95 OFFCURVE",
"539 254 OFFCURVE",
"539 423 CURVE SMOOTH",
"539 513 OFFCURVE",
"495 589 OFFCURVE",
"415 589 CURVE SMOOTH"
);
}
);
userData = {
com.fontlab.hintData = {
hhints = (
{
position = 0;
width = 95;
},
{
position = 589;
width = 95;
}
);
vhints = (
{
position = 60;
width = 98;
},
{
position = 539;
width = 100;
}
);
};
};
width = 686;
}
);
unicode = 00D3;
},
{
glyphname = Ocircumflex;
layers = (
{
layerId = master01;
paths = (
{
closed = 1;
nodes = (
"301 766 LINE",
"503 895 LINE",
"626 761 LINE",
"547 696 LINE",
"472 778 LINE",
"345 695 LINE"
);
},
{
closed = 1;
nodes = (
"133 0 OFFCURVE",
"60 101 OFFCURVE",
"60 234 CURVE SMOOTH",
"60 466 OFFCURVE",
"265 684 OFFCURVE",
"441 684 CURVE SMOOTH",
"564 684 OFFCURVE",
"639 583 OFFCURVE",
"639 449 CURVE SMOOTH",
"639 217 OFFCURVE",
"433 0 OFFCURVE",
"257 0 CURVE SMOOTH"
);
},
{
closed = 1;
nodes = (
"302 589 OFFCURVE",
"158 431 OFFCURVE",
"158 252 CURVE SMOOTH",
"158 162 OFFCURVE",
"202 95 OFFCURVE",
"277 95 CURVE SMOOTH",
"391 95 OFFCURVE",
"539 254 OFFCURVE",
"539 423 CURVE SMOOTH",
"539 513 OFFCURVE",
"495 589 OFFCURVE",
"415 589 CURVE SMOOTH"
);
}
);
userData = {
com.fontlab.hintData = {
hhints = (
{
position = 0;
width = 95;
},
{
position = 589;
width = 95;
}
);
vhints = (
{
position = 60;
width = 98;
},
{
position = 539;
width = 100;
}
);
};
};
width = 686;
}
);
unicode = 00D4;
},
{
glyphname = Odieresis;
layers = (
{
layerId = master01;
paths = (
{
closed = 1;
nodes = (
"417 719 LINE",
"296 704 LINE",
"334 818 LINE",
"454 833 LINE"
);
},
{
closed = 1;
nodes = (
"586 719 LINE",
"466 704 LINE",
"503 818 LINE",
"623 833 LINE"
);
},
{
closed = 1;
nodes = (
"133 0 OFFCURVE",
"60 101 OFFCURVE",
"60 234 CURVE SMOOTH",
"60 466 OFFCURVE",
"265 684 OFFCURVE",
"441 684 CURVE SMOOTH",
"564 684 OFFCURVE",
"639 583 OFFCURVE",
"639 449 CURVE SMOOTH",
"639 217 OFFCURVE",
"433 0 OFFCURVE",
"257 0 CURVE SMOOTH"
);
},
{
closed = 1;
nodes = (
"302 589 OFFCURVE",
"158 431 OFFCURVE",
"158 252 CURVE SMOOTH",
"158 162 OFFCURVE",
"202 95 OFFCURVE",
"277 95 CURVE SMOOTH",
"391 95 OFFCURVE",
"539 254 OFFCURVE",
"539 423 CURVE SMOOTH",
"539 513 OFFCURVE",
"495 589 OFFCURVE",
"415 589 CURVE SMOOTH"
);
}
);
userData = {
com.fontlab.hintData = {
hhints = (
{
position = 0;
width = 95;
},
{
position = 589;
width = 95;
}
);
vhints = (
{
position = 60;
width = 98;
},
{
position = 539;
width = 100;
}
);
};
};
width = 686;
}
);
unicode = 00D6;
},
{
glyphname = Ograve;
layers = (
{
layerId = master01;
paths = (
{
closed = 1;
nodes = (
"473 700 LINE",
"341 856 LINE",
"453 912 LINE",
"567 750 LINE"
);
},
{
closed = 1;
nodes = (
"133 0 OFFCURVE",
"60 101 OFFCURVE",
"60 234 CURVE SMOOTH",
"60 466 OFFCURVE",
"265 684 OFFCURVE",
"441 684 CURVE SMOOTH",
"564 684 OFFCURVE",
"639 583 OFFCURVE",
"639 449 CURVE SMOOTH",
"639 217 OFFCURVE",
"433 0 OFFCURVE",
"257 0 CURVE SMOOTH"
);
},
{
closed = 1;
nodes = (
"302 589 OFFCURVE",
"158 431 OFFCURVE",
"158 252 CURVE SMOOTH",
"158 162 OFFCURVE",
"202 95 OFFCURVE",
"277 95 CURVE SMOOTH",
"391 95 OFFCURVE",
"539 254 OFFCURVE",
"539 423 CURVE SMOOTH",
"539 513 OFFCURVE",
"495 589 OFFCURVE",
"415 589 CURVE SMOOTH"
);
}
);
userData = {
com.fontlab.hintData = {
hhints = (
{
position = 0;
width = 95;
},
{
position = 589;
width = 95;
}
);
vhints = (
{
position = 60;
width = 98;
},
{
position = 539;
width = 100;
}
);
};
};
width = 686;
}
);
unicode = 00D2;
},
{
glyphname = Ohungarumlaut;
layers = (
{
layerId = master01;
paths = (
{
closed = 1;
nodes = (
"433 906 LINE",
"493 831 LINE",
"287 710 LINE",
"228 772 LINE"
);
},
{
closed = 1;
nodes = (
"652 906 LINE",
"713 831 LINE",
"496 710 LINE",
"447 772 LINE"
);
},
{
closed = 1;
nodes = (
"133 0 OFFCURVE",
"60 101 OFFCURVE",
"60 234 CURVE SMOOTH",
"60 466 OFFCURVE",
"265 684 OFFCURVE",
"441 684 CURVE SMOOTH",
"564 684 OFFCURVE",
"639 583 OFFCURVE",
"639 449 CURVE SMOOTH",
"639 217 OFFCURVE",
"433 0 OFFCURVE",
"257 0 CURVE SMOOTH"
);
},
{
closed = 1;
nodes = (
"302 589 OFFCURVE",
"158 431 OFFCURVE",
"158 252 CURVE SMOOTH",
"158 162 OFFCURVE",
"202 95 OFFCURVE",
"277 95 CURVE SMOOTH",
"391 95 OFFCURVE",
"539 254 OFFCURVE",
"539 423 CURVE SMOOTH",
"539 513 OFFCURVE",
"495 589 OFFCURVE",
"415 589 CURVE SMOOTH"
);
}
);
userData = {
com.fontlab.hintData = {
hhints = (
{
position = 0;
width = 95;
},
{
position = 589;
width = 95;
}
);
vhints = (
{
position = 60;
width = 98;
},
{
position = 539;
width = 100;
}
);
};
};
width = 686;
}
);
unicode = 0150;
},
{
glyphname = Oslash;
layers = (
{
layerId = master01;
paths = (
{
closed = 1;
nodes = (
"590 611 LINE",
"624 570 OFFCURVE",
"638 514 OFFCURVE",
"638 453 CURVE SMOOTH",
"638 219 OFFCURVE",
"436 -1 OFFCURVE",
"256 -1 CURVE SMOOTH",
"217 -1 OFFCURVE",
"176 12 OFFCURVE",
"147 33 CURVE",
"91 -39 LINE",
"17 7 LINE",
"89 100 LINE",
"68 136 OFFCURVE",
"58 178 OFFCURVE",
"58 225 CURVE SMOOTH",
"58 460 OFFCURVE",
"262 683 OFFCURVE",
"441 683 CURVE SMOOTH",
"471 683 OFFCURVE",
"499 677 OFFCURVE",
"523 666 CURVE",
"584 746 LINE",
"657 697 LINE"
);
},
{
closed = 1;
nodes = (
"457 579 LINE",
"444 585 OFFCURVE",
"429 588 OFFCURVE",
"414 588 CURVE SMOOTH",
"300 588 OFFCURVE",
"157 428 OFFCURVE",
"157 249 CURVE SMOOTH",
"157 230 OFFCURVE",
"159 213 OFFCURVE",
"163 197 CURVE"
);
},
{
closed = 1;
nodes = (
"425 94 OFFCURVE",
"538 301 OFFCURVE",
"538 419 CURVE SMOOTH",
"538 455 OFFCURVE",
"531 489 OFFCURVE",
"519 517 CURVE",
"209 116 LINE",
"228 102 OFFCURVE",
"250 94 OFFCURVE",
"276 94 CURVE SMOOTH"
);
}
);
userData = {
com.fontlab.hintData = {
hhints = (
{
position = -1;
width = 95;
},
{
position = 588;
width = 95;
}
);
vhints = (
{
position = 58;
width = 99;
},
{
position = 538;
width = 100;
}
);
};
};
width = 686;
}
);
unicode = 00D8;
},
{
glyphname = Otilde;
layers = (
{
layerId = master01;
paths = (
{
closed = 1;
nodes = (
"133 0 OFFCURVE",
"60 101 OFFCURVE",
"60 234 CURVE SMOOTH",
"60 466 OFFCURVE",
"265 684 OFFCURVE",
"441 684 CURVE SMOOTH",
"564 684 OFFCURVE",
"639 583 OFFCURVE",
"639 449 CURVE SMOOTH",
"639 217 OFFCURVE",
"433 0 OFFCURVE",
"257 0 CURVE SMOOTH"
);
},
{
closed = 1;
nodes = (
"302 589 OFFCURVE",
"158 431 OFFCURVE",
"158 252 CURVE SMOOTH",
"158 162 OFFCURVE",
"202 95 OFFCURVE",
"277 95 CURVE SMOOTH",
"391 95 OFFCURVE",
"539 254 OFFCURVE",
"539 423 CURVE SMOOTH",
"539 513 OFFCURVE",
"495 589 OFFCURVE",
"415 589 CURVE SMOOTH"
);
},
{
closed = 1;
nodes = (
"671 838 LINE",
"653 807 OFFCURVE",
"597 705 OFFCURVE",
"496 705 CURVE SMOOTH",
"464 705 OFFCURVE",
"441 722 OFFCURVE",
"426 753 CURVE SMOOTH",
"414 776 OFFCURVE",
"406 788 OFFCURVE",
"391 788 CURVE SMOOTH",
"356 788 OFFCURVE",
"324 732 OFFCURVE",
"320 720 CURVE",
"262 753 LINE",
"289 809 OFFCURVE",
"344 877 OFFCURVE",
"422 877 CURVE SMOOTH",
"463 877 OFFCURVE",
"483 860 OFFCURVE",
"499 827 CURVE SMOOTH",
"508 808 OFFCURVE",
"520 793 OFFCURVE",
"533 793 CURVE SMOOTH",
"554 793 OFFCURVE",
"585 816 OFFCURVE",
"610 870 CURVE"
);
}
);
userData = {
com.fontlab.hintData = {
hhints = (
{
position = 0;
width = 95;
},
{
position = 589;
width = 95;
},
{
position = 705;
width = 88;
},
{
position = 788;
width = 89;
}
);
vhints = (
{
position = 60;
width = 98;
},
{
position = 539;
width = 100;
}
);
};
};
width = 686;
}
);
unicode = 00D5;
},
{
glyphname = OE;
layers = (
{
layerId = master01;
paths = (
{
closed = 1;
nodes = (
"993 99 LINE",
"937 0 LINE",
"463 0 LINE",
"484 99 LINE",
"419 38 OFFCURVE",
"339 0 OFFCURVE",
"265 0 CURVE SMOOTH",
"141 0 OFFCURVE",
"67 102 OFFCURVE",
"67 235 CURVE SMOOTH",
"67 467 OFFCURVE",
"272 684 OFFCURVE",
"449 684 CURVE SMOOTH",
"507 684 OFFCURVE",
"558 663 OFFCURVE",
"594 619 CURVE",
"607 681 LINE",
"1106 681 LINE",
"1068 582 LINE",
"685 582 LINE",
"647 402 LINE",
"1013 402 LINE",
"963 304 LINE",
"626 304 LINE",
"583 99 LINE"
);
},
{
closed = 1;
nodes = (
"426 95 OFFCURVE",
"546 291 OFFCURVE",
"546 423 CURVE SMOOTH",
"546 513 OFFCURVE",
"501 589 OFFCURVE",
"422 589 CURVE SMOOTH",
"310 589 OFFCURVE",
"165 431 OFFCURVE",
"165 252 CURVE SMOOTH",
"165 162 OFFCURVE",
"209 95 OFFCURVE",
"285 95 CURVE SMOOTH"
);
}
);
userData = {
com.fontlab.hintData = {
hhints = (
{
position = 0;
width = 95;
},
{
position = 304;
width = 98;
},
{
position = 582;
width = 99;
},
{
position = 589;
width = 95;
}
);
vhints = (
{
position = 67;
width = 98;
}
);
};
};
width = 1119;
}
);
unicode = 0152;
},
{
glyphname = P;
layers = (
{
layerId = master01;
paths = (
{
closed = 1;
nodes = (
"105 12 LINE",
"3 -5 LINE",
"148 673 LINE",
"178 675 OFFCURVE",
"244 679 OFFCURVE",
"277 679 CURVE SMOOTH",
"403 679 OFFCURVE",
"574 655 OFFCURVE",
"574 510 CURVE SMOOTH",
"574 310 OFFCURVE",
"335 234 OFFCURVE",
"150 223 CURVE"
);
},
{
closed = 1;
nodes = (
"171 321 LINE",
"361 336 OFFCURVE",
"471 398 OFFCURVE",
"471 480 CURVE SMOOTH",
"471 536 OFFCURVE",
"420 580 OFFCURVE",
"246 580 CURVE SMOOTH",
"226 580 LINE"
);
}
);
userData = {
com.fontlab.hintData = {
hhints = (
{
position = 223;
width = 98;
},
{
position = 580;
width = 99;
}
);
vhints = (
{
position = 471;
width = 103;
}
);
};
};
width = 571;
}
);
unicode = 0050;
},
{
glyphname = Thorn;
layers = (
{
layerId = master01;
paths = (
{
closed = 1;
nodes = (
"248 691 LINE",
"225 583 LINE",
"350 581 OFFCURVE",
"518 561 OFFCURVE",
"518 421 CURVE SMOOTH",
"518 205 OFFCURVE",
"278 146 OFFCURVE",
"128 135 CURVE",
"103 16 LINE",
"2 -6 LINE",
"146 670 LINE"
);
},
{
closed = 1;
nodes = (
"295 245 OFFCURVE",
"415 299 OFFCURVE",
"415 391 CURVE SMOOTH",
"415 453 OFFCURVE",
"325 481 OFFCURVE",
"205 486 CURVE",
"150 234 LINE"
);
}
);
userData = {
com.fontlab.hintData = {
hhints = (
{
position = 135;
width = 99;
},
{
position = 486;
width = 97;
}
);
vhints = (
{
position = 415;
width = 103;
}
);
};
};
width = 532;
}
);
unicode = 00DE;
},
{
glyphname = Q;
layers = (
{
layerId = master01;
paths = (
{
closed = 1;
nodes = (
"634 42 LINE",
"574 -42 LINE",
"453 48 LINE",
"397 17 OFFCURVE",
"337 -1 OFFCURVE",
"280 -1 CURVE SMOOTH",
"140 -1 OFFCURVE",
"53 102 OFFCURVE",
"53 239 CURVE SMOOTH",
"53 468 OFFCURVE",
"273 679 OFFCURVE",
"468 679 CURVE SMOOTH",
"609 679 OFFCURVE",
"695 575 OFFCURVE",
"695 438 CURVE SMOOTH",
"695 314 OFFCURVE",
"632 195 OFFCURVE",
"541 114 CURVE"
);
},
{
closed = 1;
nodes = (
"535 229 OFFCURVE",
"589 319 OFFCURVE",
"589 409 CURVE SMOOTH",
"589 502 OFFCURVE",
"534 582 OFFCURVE",
"440 582 CURVE SMOOTH",
"311 582 OFFCURVE",
"158 428 OFFCURVE",
"158 257 CURVE SMOOTH",
"158 162 OFFCURVE",
"212 95 OFFCURVE",
"301 95 CURVE SMOOTH",
"327 95 OFFCURVE",
"349 100 OFFCURVE",
"375 111 CURVE",
"287 175 LINE",
"388 230 LINE",
"470 170 LINE"
);
}
);
userData = {
com.fontlab.hintData = {
hhints = (
{
position = -1;
width = 96;
},
{
position = 582;
width = 97;
}
);
vhints = (
{
position = 53;
width = 105;
},
{
position = 589;
width = 106;
}
);
};
};
width = 747;
}
);
unicode = 0051;
},
{
glyphname = R;
layers = (
{
layerId = master01;
paths = (
{
closed = 1;
nodes = (
"173 322 LINE",
"360 332 OFFCURVE",
"480 398 OFFCURVE",
"480 484 CURVE SMOOTH",
"480 541 OFFCURVE",
"424 587 OFFCURVE",
"244 587 CURVE SMOOTH",
"229 587 LINE"
);
},
{
closed = 1;
nodes = (
"262 230 OFFCURVE",
"243 232 OFFCURVE",
"226 232 CURVE SMOOTH",
"209 232 OFFCURVE",
"178 229 OFFCURVE",
"151 225 CURVE",
"106 12 LINE",
"4 -5 LINE",
"150 678 LINE",
"189 682 OFFCURVE",
"243 687 OFFCURVE",
"276 687 CURVE SMOOTH",
"405 687 OFFCURVE",
"582 662 OFFCURVE",
"582 514 CURVE SMOOTH",
"582 419 OFFCURVE",
"508 326 OFFCURVE",
"388 273 CURVE",
"429 233 OFFCURVE",
"480 163 OFFCURVE",
"516 52 CURVE",
"426 -13 LINE",
"378 143 OFFCURVE",
"312 202 OFFCURVE",
"273 224 CURVE SMOOTH"
);
}
);
userData = {
com.fontlab.hintData = {
hhints = (
{
position = 587;
width = 100;
}
);
vhints = (
{
position = 480;
width = 102;
}
);
};
};
width = 620;
}
);
unicode = 0052;
},
{
glyphname = Racute;
layers = (
{
layerId = master01;
paths = (
{
closed = 1;
nodes = (
"448 906 LINE",
"519 831 LINE",
"302 710 LINE",
"243 772 LINE"
);
},
{
closed = 1;
nodes = (
"173 322 LINE",
"360 332 OFFCURVE",
"480 398 OFFCURVE",
"480 484 CURVE SMOOTH",
"480 541 OFFCURVE",
"424 587 OFFCURVE",
"244 587 CURVE SMOOTH",
"229 587 LINE"
);
},
{
closed = 1;
nodes = (
"262 230 OFFCURVE",
"243 232 OFFCURVE",
"226 232 CURVE SMOOTH",
"209 232 OFFCURVE",
"178 229 OFFCURVE",
"151 225 CURVE",
"106 12 LINE",
"4 -5 LINE",
"150 678 LINE",
"189 682 OFFCURVE",
"243 687 OFFCURVE",
"276 687 CURVE SMOOTH",
"405 687 OFFCURVE",
"582 662 OFFCURVE",
"582 514 CURVE SMOOTH",
"582 419 OFFCURVE",
"508 326 OFFCURVE",
"388 273 CURVE",
"429 233 OFFCURVE",
"480 163 OFFCURVE",
"516 52 CURVE",
"426 -13 LINE",
"378 143 OFFCURVE",
"312 202 OFFCURVE",
"273 224 CURVE SMOOTH"
);
}
);
userData = {
com.fontlab.hintData = {
hhints = (
{
position = 587;
width = 100;
}
);
vhints = (
{
position = 480;
width = 102;
}
);
};
};
width = 620;
}
);
unicode = 0154;
},
{
glyphname = Rcaron;
layers = (
{
layerId = master01;
paths = (
{
closed = 1;
nodes = (
"570 824 LINE",
"370 701 LINE",
"244 825 LINE",
"324 897 LINE",
"398 812 LINE",
"527 897 LINE"
);
},
{
closed = 1;
nodes = (
"173 322 LINE",
"360 332 OFFCURVE",
"480 398 OFFCURVE",
"480 484 CURVE SMOOTH",
"480 541 OFFCURVE",
"424 587 OFFCURVE",
"244 587 CURVE SMOOTH",
"229 587 LINE"
);
},
{
closed = 1;
nodes = (
"262 230 OFFCURVE",
"243 232 OFFCURVE",
"226 232 CURVE SMOOTH",
"209 232 OFFCURVE",
"178 229 OFFCURVE",
"151 225 CURVE",
"106 12 LINE",
"4 -5 LINE",
"150 678 LINE",
"189 682 OFFCURVE",
"243 687 OFFCURVE",
"276 687 CURVE SMOOTH",
"405 687 OFFCURVE",
"582 662 OFFCURVE",
"582 514 CURVE SMOOTH",
"582 419 OFFCURVE",
"508 326 OFFCURVE",
"388 273 CURVE",
"429 233 OFFCURVE",
"480 163 OFFCURVE",
"516 52 CURVE",
"426 -13 LINE",
"378 143 OFFCURVE",
"312 202 OFFCURVE",
"273 224 CURVE SMOOTH"
);
}
);
userData = {
com.fontlab.hintData = {
hhints = (
{
position = 587;
width = 100;
}
);
vhints = (
{
position = 480;
width = 102;
}
);
};
};
width = 620;
}
);
unicode = 0158;
},
{
glyphname = S;
layers = (
{
layerId = master01;
paths = (
{
closed = 1;
nodes = (
"228 331 OFFCURVE",
"136 380 OFFCURVE",
"136 468 CURVE SMOOTH",
"136 613 OFFCURVE",
"286 681 OFFCURVE",
"419 681 CURVE SMOOTH",
"504 681 OFFCURVE",
"605 652 OFFCURVE",
"605 558 CURVE SMOOTH",
"605 553.2 OFFCURVE",
"605.173 549.494 OFFCURVE",
"605.173 545.957 CURVE SMOOTH",
"605.173 534.755 OFFCURVE",
"603.44 525.24 OFFCURVE",
"589 488 CURVE",
"486 470 LINE",
"506 499 OFFCURVE",
"505 523 OFFCURVE",
"505 525 CURVE SMOOTH",
"505 574 OFFCURVE",
"440 588 OFFCURVE",
"399 588 CURVE SMOOTH",
"344 588 OFFCURVE",
"245 568 OFFCURVE",
"245 490 CURVE SMOOTH",
"245 453 OFFCURVE",
"284 428 OFFCURVE",
"358 406 CURVE SMOOTH",
"479 370 OFFCURVE",
"539 315 OFFCURVE",
"539 237 CURVE SMOOTH",
"539 75 OFFCURVE",
"360 -1 OFFCURVE",
"251 -1 CURVE SMOOTH",
"131 -1 OFFCURVE",
"45 73 OFFCURVE",
"32 184 CURVE",
"139 200 LINE",
"150 128 OFFCURVE",
"213 95 OFFCURVE",
"271 95 CURVE SMOOTH",
"350 95 OFFCURVE",
"431 144 OFFCURVE",
"431 217 CURVE SMOOTH",
"431 245 OFFCURVE",
"414 279 OFFCURVE",
"313 308 CURVE"
);
}
);
userData = {
com.fontlab.hintData = {
hhints = (
{
position = -1;
width = 96;
},
{
position = 588;
width = 93;
}
);
vhints = (
{
position = 136;
width = 109;
},
{
position = 431;
width = 108;
},
{
position = 505;
width = 100;
}
);
};
};
width = 625;
}
);
unicode = 0053;
},
{
glyphname = Sacute;
layers = (
{
layerId = master01;
paths = (
{
closed = 1;
nodes = (
"501 906 LINE",
"572 831 LINE",
"355 710 LINE",
"296 772 LINE"
);
},
{
closed = 1;
nodes = (
"228 331 OFFCURVE",
"136 380 OFFCURVE",
"136 468 CURVE SMOOTH",
"136 613 OFFCURVE",
"286 681 OFFCURVE",
"419 681 CURVE SMOOTH",
"504 681 OFFCURVE",
"605 652 OFFCURVE",
"605 558 CURVE SMOOTH",
"605 553.2 OFFCURVE",
"605.173 549.494 OFFCURVE",
"605.173 545.957 CURVE SMOOTH",
"605.173 534.755 OFFCURVE",
"603.44 525.24 OFFCURVE",
"589 488 CURVE",
"486 470 LINE",
"506 499 OFFCURVE",
"505 523 OFFCURVE",
"505 525 CURVE SMOOTH",
"505 574 OFFCURVE",
"440 588 OFFCURVE",
"399 588 CURVE SMOOTH",
"344 588 OFFCURVE",
"245 568 OFFCURVE",
"245 490 CURVE SMOOTH",
"245 453 OFFCURVE",
"284 428 OFFCURVE",
"358 406 CURVE SMOOTH",
"479 370 OFFCURVE",
"539 315 OFFCURVE",
"539 237 CURVE SMOOTH",
"539 75 OFFCURVE",
"360 -1 OFFCURVE",
"251 -1 CURVE SMOOTH",
"131 -1 OFFCURVE",
"45 73 OFFCURVE",
"32 184 CURVE",
"139 200 LINE",
"150 128 OFFCURVE",
"213 95 OFFCURVE",
"271 95 CURVE SMOOTH",
"350 95 OFFCURVE",
"431 144 OFFCURVE",
"431 217 CURVE SMOOTH",
"431 245 OFFCURVE",
"414 279 OFFCURVE",
"313 308 CURVE"
);
}
);
userData = {
com.fontlab.hintData = {
hhints = (
{
position = -1;
width = 96;
},
{
position = 588;
width = 93;
}
);
vhints = (
{
position = 136;
width = 109;
},
{
position = 431;
width = 108;
},
{
position = 505;
width = 100;
}
);
};
};
width = 625;
}
);
unicode = 015A;
},
{
glyphname = Scaron;
layers = (
{
layerId = master01;
paths = (
{
closed = 1;
nodes = (
"615 829 LINE",
"415 701 LINE",
"291 835 LINE",
"372 907 LINE",
"445 822 LINE",
"573 907 LINE"
);
},
{
closed = 1;
nodes = (
"228 331 OFFCURVE",
"136 380 OFFCURVE",
"136 468 CURVE SMOOTH",
"136 613 OFFCURVE",
"286 681 OFFCURVE",
"419 681 CURVE SMOOTH",
"504 681 OFFCURVE",
"605 652 OFFCURVE",
"605 558 CURVE SMOOTH",
"605 553.2 OFFCURVE",
"605.173 549.494 OFFCURVE",
"605.173 545.957 CURVE SMOOTH",
"605.173 534.755 OFFCURVE",
"603.44 525.24 OFFCURVE",
"589 488 CURVE",
"486 470 LINE",
"506 499 OFFCURVE",
"505 523 OFFCURVE",
"505 525 CURVE SMOOTH",
"505 574 OFFCURVE",
"440 588 OFFCURVE",
"399 588 CURVE SMOOTH",
"344 588 OFFCURVE",
"245 568 OFFCURVE",
"245 490 CURVE SMOOTH",
"245 453 OFFCURVE",
"284 428 OFFCURVE",
"358 406 CURVE SMOOTH",
"479 370 OFFCURVE",
"539 315 OFFCURVE",
"539 237 CURVE SMOOTH",
"539 75 OFFCURVE",
"360 -1 OFFCURVE",
"251 -1 CURVE SMOOTH",
"131 -1 OFFCURVE",
"45 73 OFFCURVE",
"32 184 CURVE",
"139 200 LINE",
"150 128 OFFCURVE",
"213 95 OFFCURVE",
"271 95 CURVE SMOOTH",
"350 95 OFFCURVE",
"431 144 OFFCURVE",
"431 217 CURVE SMOOTH",
"431 245 OFFCURVE",
"414 279 OFFCURVE",
"313 308 CURVE"
);
}
);
userData = {
com.fontlab.hintData = {
hhints = (
{
position = -1;
width = 96;
},
{
position = 588;
width = 93;
}
);
vhints = (
{
position = 136;
width = 109;
},
{
position = 431;
width = 108;
},
{
position = 505;
width = 100;
}
);
};
};
width = 625;
}
);
unicode = 0160;
},
{
glyphname = Scedilla;
layers = (
{
layerId = master01;
paths = (
{
closed = 1;
nodes = (
"228 331 OFFCURVE",
"136 380 OFFCURVE",
"136 468 CURVE SMOOTH",
"136 613 OFFCURVE",
"286 681 OFFCURVE",
"419 681 CURVE SMOOTH",
"504 681 OFFCURVE",
"605 652 OFFCURVE",
"605 558 CURVE SMOOTH",
"605 553.2 OFFCURVE",
"605.173 549.494 OFFCURVE",
"605.173 545.957 CURVE SMOOTH",
"605.173 534.755 OFFCURVE",
"603.44 525.24 OFFCURVE",
"589 488 CURVE",
"486 470 LINE",
"506 499 OFFCURVE",
"505 523 OFFCURVE",
"505 525 CURVE SMOOTH",
"505 574 OFFCURVE",
"440 588 OFFCURVE",
"399 588 CURVE SMOOTH",
"344 588 OFFCURVE",
"245 568 OFFCURVE",
"245 490 CURVE SMOOTH",
"245 453 OFFCURVE",
"284 428 OFFCURVE",
"358 406 CURVE SMOOTH",
"479 370 OFFCURVE",
"539 315 OFFCURVE",
"539 237 CURVE SMOOTH",
"539 75 OFFCURVE",
"361 0 OFFCURVE",
"252 -1 CURVE",
"244 -33 LINE",
"289 -37 OFFCURVE",
"320 -54 OFFCURVE",
"320 -94 CURVE SMOOTH",
"320 -159 OFFCURVE",
"264 -196 OFFCURVE",
"206 -196 CURVE SMOOTH",
"175 -196 OFFCURVE",
"155 -186 OFFCURVE",
"138 -157 CURVE",
"189 -123 LINE",
"193 -132 OFFCURVE",
"204 -139 OFFCURVE",
"218 -139 CURVE SMOOTH",
"235 -139 OFFCURVE",
"251 -128 OFFCURVE",
"251 -110 CURVE SMOOTH",
"251 -97 OFFCURVE",
"242 -90 OFFCURVE",
"224 -90 CURVE SMOOTH",
"217 -90 OFFCURVE",
"206 -93 OFFCURVE",
"200 -98 CURVE",
"167 -54 LINE",
"199 4 LINE",
"106 22 OFFCURVE",
"43 90 OFFCURVE",
"32 184 CURVE",
"139 200 LINE",
"150 128 OFFCURVE",
"213 95 OFFCURVE",
"271 95 CURVE SMOOTH",
"350 95 OFFCURVE",
"431 144 OFFCURVE",
"431 217 CURVE SMOOTH",
"431 245 OFFCURVE",
"414 279 OFFCURVE",
"313 308 CURVE"
);
}
);
userData = {
com.fontlab.hintData = {
hhints = (
{
position = -196;
width = 57;
},
{
position = -1;
width = 96;
},
{
position = 588;
width = 93;
}
);
vhints = (
{
position = 136;
width = 109;
},
{
position = 251;
width = 69;
},
{
position = 431;
width = 108;
},
{
position = 505;
width = 100;
}
);
};
};
width = 625;
}
);
unicode = 015E;
},
{
glyphname = Scircumflex;
layers = (
{
layerId = master01;
paths = (
{
closed = 1;
nodes = (
"228 331 OFFCURVE",
"136 380 OFFCURVE",
"136 468 CURVE SMOOTH",
"136 613 OFFCURVE",
"286 681 OFFCURVE",
"419 681 CURVE SMOOTH",
"504 681 OFFCURVE",
"605 652 OFFCURVE",
"605 558 CURVE SMOOTH",
"605 553.2 OFFCURVE",
"605.173 549.494 OFFCURVE",
"605.173 545.957 CURVE SMOOTH",
"605.173 534.755 OFFCURVE",
"603.44 525.24 OFFCURVE",
"589 488 CURVE",
"486 470 LINE",
"506 499 OFFCURVE",
"505 523 OFFCURVE",
"505 525 CURVE SMOOTH",
"505 574 OFFCURVE",
"440 588 OFFCURVE",
"399 588 CURVE SMOOTH",
"344 588 OFFCURVE",
"245 568 OFFCURVE",
"245 490 CURVE SMOOTH",
"245 453 OFFCURVE",
"284 428 OFFCURVE",
"358 406 CURVE SMOOTH",
"479 370 OFFCURVE",
"539 315 OFFCURVE",
"539 237 CURVE SMOOTH",
"539 75 OFFCURVE",
"360 -1 OFFCURVE",
"251 -1 CURVE SMOOTH",
"131 -1 OFFCURVE",
"45 73 OFFCURVE",
"32 184 CURVE",
"139 200 LINE",
"150 128 OFFCURVE",
"213 95 OFFCURVE",
"271 95 CURVE SMOOTH",
"350 95 OFFCURVE",
"431 144 OFFCURVE",
"431 217 CURVE SMOOTH",
"431 245 OFFCURVE",
"414 279 OFFCURVE",
"313 308 CURVE SMOOTH"
);
},
{
closed = 1;
nodes = (
"268 756 LINE",
"472 895 LINE",
"593 751 LINE",
"514 691 LINE",
"440 773 LINE",
"314 690 LINE"
);
}
);
userData = {
com.fontlab.hintData = {
hhints = (
{
position = -1;
width = 96;
},
{
position = 588;
width = 93;
},
{
position = 690;
width = 21;
}
);
vhints = (
{
position = 136;
width = 109;
},
{
position = 431;
width = 108;
},
{
position = 505;
width = 100;
}
);
};
};
width = 625;
}
);
unicode = 015C;
},
{
glyphname = T;
layers = (
{
layerId = master01;
paths = (
{
closed = 1;
nodes = (
"276 582 LINE",
"77 582 LINE",
"98 681 LINE",
"611 681 LINE",
"590 582 LINE",
"376 582 LINE",
"255 12 LINE",
"151 -5 LINE"
);
}
);
userData = {
com.fontlab.hintData = {
hhints = (
{
position = 582;
width = 99;
}
);
};
};
width = 548;
}
);
unicode = 0054;
},
{
glyphname = Tcaron;
layers = (
{
layerId = master01;
paths = (
{
closed = 1;
nodes = (
"553 824 LINE",
"353 701 LINE",
"229 830 LINE",
"308 897 LINE",
"381 812 LINE",
"509 897 LINE"
);
},
{
closed = 1;
nodes = (
"276 582 LINE",
"77 582 LINE",
"98 681 LINE",
"611 681 LINE",
"590 582 LINE",
"376 582 LINE",
"255 12 LINE",
"151 -5 LINE"
);
}
);
userData = {
com.fontlab.hintData = {
hhints = (
{
position = 582;
width = 99;
}
);
};
};
width = 548;
}
);
unicode = 0164;
},
{
glyphname = U;
layers = (
{
layerId = master01;
paths = (
{
closed = 1;
nodes = (
"126 0 OFFCURVE",
"73 89 OFFCURVE",
"73 226 CURVE SMOOTH",
"73 346 OFFCURVE",
"129 562 OFFCURVE",
"152 668 CURVE",
"255 685 LINE",
"236 606 OFFCURVE",
"174 364 OFFCURVE",
"174 249 CURVE SMOOTH",
"174 157 OFFCURVE",
"206 92 OFFCURVE",
"307 92 CURVE SMOOTH",
"476 92 OFFCURVE",
"528 276 OFFCURVE",
"560 425 CURVE SMOOTH",
"576 502 OFFCURVE",
"602 633 OFFCURVE",
"608 666 CURVE",
"711 685 LINE",
"707 662 OFFCURVE",
"682 536 OFFCURVE",
"668 467 CURVE SMOOTH",
"620 240 OFFCURVE",
"548 0 OFFCURVE",
"288 0 CURVE SMOOTH"
);
}
);
userData = {
com.fontlab.hintData = {
hhints = (
{
position = 0;
width = 92;
}
);
vhints = (
{
position = 73;
width = 101;
}
);
};
};
width = 710;
}
);
unicode = 0055;
},
{
glyphname = Uacute;
layers = (
{
layerId = master01;
paths = (
{
closed = 1;
nodes = (
"548 906 LINE",
"619 831 LINE",
"403 710 LINE",
"343 772 LINE"
);
},
{
closed = 1;
nodes = (
"126 0 OFFCURVE",
"73 89 OFFCURVE",
"73 226 CURVE SMOOTH",
"73 346 OFFCURVE",
"129 562 OFFCURVE",
"152 668 CURVE",
"255 685 LINE",
"236 606 OFFCURVE",
"174 364 OFFCURVE",
"174 249 CURVE SMOOTH",
"174 157 OFFCURVE",
"206 92 OFFCURVE",
"307 92 CURVE SMOOTH",
"476 92 OFFCURVE",
"528 276 OFFCURVE",
"560 425 CURVE SMOOTH",
"576 502 OFFCURVE",
"602 633 OFFCURVE",
"608 666 CURVE",
"711 685 LINE",
"707 662 OFFCURVE",
"682 536 OFFCURVE",
"668 467 CURVE SMOOTH",
"620 240 OFFCURVE",
"548 0 OFFCURVE",
"288 0 CURVE SMOOTH"
);
}
);
userData = {
com.fontlab.hintData = {
hhints = (
{
position = 0;
width = 92;
}
);
vhints = (
{
position = 73;
width = 101;
}
);
};
};
width = 710;
}
);
unicode = 00DA;
},
{
glyphname = Ubreve;
layers = (
{
layerId = master01;
paths = (
{
closed = 1;
nodes = (
"126 0 OFFCURVE",
"73 89 OFFCURVE",
"73 226 CURVE SMOOTH",
"73 346 OFFCURVE",
"129 562 OFFCURVE",
"152 668 CURVE",
"255 685 LINE",
"236 606 OFFCURVE",
"174 364 OFFCURVE",
"174 249 CURVE SMOOTH",
"174 157 OFFCURVE",
"206 92 OFFCURVE",
"307 92 CURVE SMOOTH",
"476 92 OFFCURVE",
"528 276 OFFCURVE",
"560 425 CURVE SMOOTH",
"576 502 OFFCURVE",
"602 633 OFFCURVE",
"608 666 CURVE",
"711 685 LINE",
"707 662 OFFCURVE",
"682 536 OFFCURVE",
"668 467 CURVE SMOOTH",
"620 240 OFFCURVE",
"548 0 OFFCURVE",
"288 0 CURVE SMOOTH"
);
},
{
closed = 1;
nodes = (
"498 806 OFFCURVE",
"533 829 OFFCURVE",
"566 886 CURVE",
"616 822 LINE",
"579 755 OFFCURVE",
"505 718 OFFCURVE",
"438 718 CURVE SMOOTH",
"365 718 OFFCURVE",
"309 752 OFFCURVE",
"294 817 CURVE",
"367 878 LINE",
"390 809 OFFCURVE",
"425 806 OFFCURVE",
"452 806 CURVE SMOOTH"
);
}
);
userData = {
com.fontlab.hintData = {
hhints = (
{
position = 0;
width = 92;
},
{
position = 718;
width = 88;
}
);
vhints = (
{
position = 73;
width = 101;
}
);
};
};
width = 710;
}
);
unicode = 016C;
},
{
glyphname = Ucircumflex;
layers = (
{
layerId = master01;
paths = (
{
closed = 1;
nodes = (
"289 756 LINE",
"492 895 LINE",
"613 751 LINE",
"535 691 LINE",
"463 773 LINE",
"335 690 LINE"
);
},
{
closed = 1;
nodes = (
"126 0 OFFCURVE",
"73 89 OFFCURVE",
"73 226 CURVE SMOOTH",
"73 346 OFFCURVE",
"129 562 OFFCURVE",
"152 668 CURVE",
"255 685 LINE",
"236 606 OFFCURVE",
"174 364 OFFCURVE",
"174 249 CURVE SMOOTH",
"174 157 OFFCURVE",
"206 92 OFFCURVE",
"307 92 CURVE SMOOTH",
"476 92 OFFCURVE",
"528 276 OFFCURVE",
"560 425 CURVE SMOOTH",
"576 502 OFFCURVE",
"602 633 OFFCURVE",
"608 666 CURVE",
"711 685 LINE",
"707 662 OFFCURVE",
"682 536 OFFCURVE",
"668 467 CURVE SMOOTH",
"620 240 OFFCURVE",
"548 0 OFFCURVE",
"288 0 CURVE SMOOTH"
);
}
);
userData = {
com.fontlab.hintData = {
hhints = (
{
position = 0;
width = 92;
},
{
position = 690;
width = 21;
}
);
vhints = (
{
position = 73;
width = 101;
}
);
};
};
width = 710;
}
);
unicode = 00DB;
},
{
glyphname = Udieresis;
layers = (
{
layerId = master01;
paths = (
{
closed = 1;
nodes = (
"417 719 LINE",
"297 704 LINE",
"335 818 LINE",
"454 833 LINE"
);
},
{
closed = 1;
nodes = (
"586 719 LINE",
"466 704 LINE",
"504 818 LINE",
"623 833 LINE"
);
},
{
closed = 1;
nodes = (
"126 0 OFFCURVE",
"73 89 OFFCURVE",
"73 226 CURVE SMOOTH",
"73 346 OFFCURVE",
"129 562 OFFCURVE",
"152 668 CURVE",
"255 685 LINE",
"236 606 OFFCURVE",
"174 364 OFFCURVE",
"174 249 CURVE SMOOTH",
"174 157 OFFCURVE",
"206 92 OFFCURVE",
"307 92 CURVE SMOOTH",
"476 92 OFFCURVE",
"528 276 OFFCURVE",
"560 425 CURVE SMOOTH",
"576 502 OFFCURVE",
"602 633 OFFCURVE",
"608 666 CURVE",
"711 685 LINE",
"707 662 OFFCURVE",
"682 536 OFFCURVE",
"668 467 CURVE SMOOTH",
"620 240 OFFCURVE",
"548 0 OFFCURVE",
"288 0 CURVE SMOOTH"
);
}
);
userData = {
com.fontlab.hintData = {
hhints = (
{
position = 0;
width = 92;
}
);
vhints = (
{
position = 73;
width = 101;
}
);
};
};
width = 710;
}
);
unicode = 00DC;
},
{
glyphname = Ugrave;
layers = (
{
layerId = master01;
paths = (
{
closed = 1;
nodes = (
"479 700 LINE",
"347 856 LINE",
"459 912 LINE",
"573 750 LINE"
);
},
{
closed = 1;
nodes = (
"126 0 OFFCURVE",
"73 89 OFFCURVE",
"73 226 CURVE SMOOTH",
"73 346 OFFCURVE",
"129 562 OFFCURVE",
"152 668 CURVE",
"255 685 LINE",
"236 606 OFFCURVE",
"174 364 OFFCURVE",
"174 249 CURVE SMOOTH",
"174 157 OFFCURVE",
"206 92 OFFCURVE",
"307 92 CURVE SMOOTH",
"476 92 OFFCURVE",
"528 276 OFFCURVE",
"560 425 CURVE SMOOTH",
"576 502 OFFCURVE",
"602 633 OFFCURVE",
"608 666 CURVE",
"711 685 LINE",
"707 662 OFFCURVE",
"682 536 OFFCURVE",
"668 467 CURVE SMOOTH",
"620 240 OFFCURVE",
"548 0 OFFCURVE",
"288 0 CURVE SMOOTH"
);
}
);
userData = {
com.fontlab.hintData = {
hhints = (
{
position = 0;
width = 92;
}
);
vhints = (
{
position = 73;
width = 101;
}
);
};
};
width = 710;
}
);
unicode = 00D9;
},
{
glyphname = Uhungarumlaut;
layers = (
{
layerId = master01;
paths = (
{
closed = 1;
nodes = (
"126 0 OFFCURVE",
"73 89 OFFCURVE",
"73 226 CURVE SMOOTH",
"73 346 OFFCURVE",
"129 562 OFFCURVE",
"152 668 CURVE",
"255 685 LINE",
"236 606 OFFCURVE",
"174 364 OFFCURVE",
"174 249 CURVE SMOOTH",
"174 157 OFFCURVE",
"206 92 OFFCURVE",
"307 92 CURVE SMOOTH",
"476 92 OFFCURVE",
"528 276 OFFCURVE",
"560 425 CURVE SMOOTH",
"576 502 OFFCURVE",
"602 633 OFFCURVE",
"608 666 CURVE",
"711 685 LINE",
"707 662 OFFCURVE",
"682 536 OFFCURVE",
"668 467 CURVE SMOOTH",
"620 240 OFFCURVE",
"548 0 OFFCURVE",
"288 0 CURVE SMOOTH"
);
},
{
closed = 1;
nodes = (
"445 906 LINE",
"505 831 LINE",
"299 710 LINE",
"240 772 LINE"
);
},
{
closed = 1;
nodes = (
"664 906 LINE",
"725 831 LINE",
"508 710 LINE",
"459 772 LINE"
);
}
);
userData = {
com.fontlab.hintData = {
hhints = (
{
position = 0;
width = 92;
}
);
vhints = (
{
position = 73;
width = 101;
}
);
};
};
width = 710;
}
);
unicode = 0170;
},
{
glyphname = Uring;
layers = (
{
layerId = master01;
paths = (
{
closed = 1;
nodes = (
"126 0 OFFCURVE",
"73 89 OFFCURVE",
"73 226 CURVE SMOOTH",
"73 346 OFFCURVE",
"129 562 OFFCURVE",
"152 668 CURVE",
"255 685 LINE",
"236 606 OFFCURVE",
"174 364 OFFCURVE",
"174 249 CURVE SMOOTH",
"174 157 OFFCURVE",
"206 92 OFFCURVE",
"307 92 CURVE SMOOTH",
"476 92 OFFCURVE",
"528 276 OFFCURVE",
"560 425 CURVE SMOOTH",
"576 502 OFFCURVE",
"602 633 OFFCURVE",
"608 666 CURVE",
"711 685 LINE",
"707 662 OFFCURVE",
"682 536 OFFCURVE",
"668 467 CURVE SMOOTH",
"620 240 OFFCURVE",
"548 0 OFFCURVE",
"288 0 CURVE SMOOTH"
);
},
{
closed = 1;
nodes = (
"372 702 OFFCURVE",
"331 740 OFFCURVE",
"331 792 CURVE SMOOTH",
"331 873 OFFCURVE",
"419 942 OFFCURVE",
"509 942 CURVE SMOOTH",
"578 942 OFFCURVE",
"615 900 OFFCURVE",
"615 850 CURVE SMOOTH",
"615 752 OFFCURVE",
"512 702 OFFCURVE",
"439 702 CURVE SMOOTH"
);
},
{
closed = 1;
nodes = (
"464 857 OFFCURVE",
"419 840 OFFCURVE",
"419 810 CURVE SMOOTH",
"419 796 OFFCURVE",
"436 786 OFFCURVE",
"459 786 CURVE SMOOTH",
"488 786 OFFCURVE",
"529 805 OFFCURVE",
"529 830 CURVE SMOOTH",
"529 845 OFFCURVE",
"512 857 OFFCURVE",
"488 857 CURVE SMOOTH"
);
}
);
userData = {
com.fontlab.hintData = {
hhints = (
{
position = 0;
width = 92;
},
{
position = 702;
width = 84;
},
{
position = 857;
width = 85;
}
);
vhints = (
{
position = 73;
width = 101;
},
{
position = 331;
width = 88;
},
{
position = 529;
width = 86;
}
);
};
};
width = 710;
}
);
unicode = 016E;
},
{
glyphname = V;
layers = (
{
layerId = master01;
paths = (
{
closed = 1;
nodes = (
"545 688 LINE",
"629 650 LINE",
"252 12 LINE",
"156 -3 LINE",
"85 652 LINE",
"187 687 LINE",
"242 174 LINE"
);
}
);
userData = {
com.fontlab.hintData = {
hhints = (
{
position = -3;
width = 21;
},
{
position = 668;
width = 20;
}
);
};
};
width = 566;
}
);
unicode = 0056;
},
{
glyphname = W;
layers = (
{
layerId = master01;
paths = (
{
closed = 1;
nodes = (
"589 12 LINE",
"496 -3 LINE",
"476 474 LINE",
"240 12 LINE",
"148 -3 LINE",
"94 667 LINE",
"194 685 LINE",
"234 198 LINE",
"314 353 OFFCURVE",
"397 517 OFFCURVE",
"475 669 CURVE",
"567 685 LINE",
"585 191 LINE",
"848 668 LINE",
"961 686 LINE"
);
}
);
userData = {
com.fontlab.hintData = {
hhints = (
{
position = -3;
width = 21;
}
);
};
};
width = 904;
}
);
unicode = 0057;
},
{
glyphname = X;
layers = (
{
layerId = master01;
paths = (
{
closed = 1;
nodes = (
"595 54 LINE",
"506 -10 LINE",
"344 266 LINE",
"51 -11 LINE",
"-3 58 LINE",
"299 345 LINE",
"135 627 LINE",
"224 691 LINE",
"381 423 LINE",
"665 692 LINE",
"720 623 LINE",
"426 345 LINE"
);
}
);
width = 706;
}
);
unicode = 0058;
},
{
glyphname = Y;
layers = (
{
layerId = master01;
paths = (
{
closed = 1;
nodes = (
"625 677 LINE",
"738 677 LINE",
"193 0 LINE",
"80 0 LINE",
"258 223 LINE",
"90 677 LINE",
"202 677 LINE",
"336 318 LINE"
);
}
);
userData = {
com.fontlab.hintData = {
hhints = (
{
position = 0;
width = 21;
}
);
};
};
width = 654;
}
);
unicode = 0059;
},
{
glyphname = Yacute;
layers = (
{
layerId = master01;
paths = (
{
closed = 1;
nodes = (
"522 906 LINE",
"592 831 LINE",
"376 710 LINE",
"317 772 LINE"
);
},
{
closed = 1;
nodes = (
"625 677 LINE",
"738 677 LINE",
"193 0 LINE",
"80 0 LINE",
"258 223 LINE",
"90 677 LINE",
"202 677 LINE",
"336 318 LINE"
);
}
);
userData = {
com.fontlab.hintData = {
hhints = (
{
position = 0;
width = 21;
}
);
};
};
width = 654;
}
);
unicode = 00DD;
},
{
glyphname = Ydieresis;
layers = (
{
layerId = master01;
paths = (
{
closed = 1;
nodes = (
"396 689 LINE",
"275 674 LINE",
"315 798 LINE",
"434 813 LINE"
);
},
{
closed = 1;
nodes = (
"565 689 LINE",
"444 674 LINE",
"484 798 LINE",
"603 813 LINE"
);
},
{
closed = 1;
nodes = (
"625 677 LINE",
"738 677 LINE",
"193 0 LINE",
"80 0 LINE",
"258 223 LINE",
"90 677 LINE",
"202 677 LINE",
"336 318 LINE"
);
}
);
userData = {
com.fontlab.hintData = {
hhints = (
{
position = 0;
width = 21;
}
);
};
};
width = 654;
}
);
unicode = 0178;
},
{
glyphname = Z;
layers = (
{
layerId = master01;
paths = (
{
closed = 1;
nodes = (
"2 77 LINE",
"509 578 LINE",
"137 578 LINE",
"176 681 LINE",
"636 681 LINE",
"656 603 LINE",
"148 103 LINE",
"540 103 LINE",
"502 0 LINE",
"22 0 LINE"
);
}
);
userData = {
com.fontlab.hintData = {
hhints = (
{
position = 0;
width = 103;
},
{
position = 578;
width = 103;
}
);
};
};
width = 647;
}
);
unicode = 005A;
},
{
glyphname = Zacute;
layers = (
{
layerId = master01;
paths = (
{
closed = 1;
nodes = (
"524 906 LINE",
"595 831 LINE",
"378 710 LINE",
"319 772 LINE"
);
},
{
closed = 1;
nodes = (
"2 77 LINE",
"509 578 LINE",
"137 578 LINE",
"176 681 LINE",
"636 681 LINE",
"656 603 LINE",
"148 103 LINE",
"540 103 LINE",
"502 0 LINE",
"22 0 LINE"
);
}
);
userData = {
com.fontlab.hintData = {
hhints = (
{
position = 0;
width = 103;
},
{
position = 578;
width = 103;
}
);
};
};
width = 647;
}
);
unicode = 0179;
},
{
glyphname = Zcaron;
layers = (
{
layerId = master01;
paths = (
{
closed = 1;
nodes = (
"604 829 LINE",
"404 701 LINE",
"280 835 LINE",
"360 907 LINE",
"433 822 LINE",
"561 907 LINE"
);
},
{
closed = 1;
nodes = (
"2 77 LINE",
"509 578 LINE",
"137 578 LINE",
"176 681 LINE",
"636 681 LINE",
"656 603 LINE",
"148 103 LINE",
"540 103 LINE",
"502 0 LINE",
"22 0 LINE"
);
}
);
userData = {
com.fontlab.hintData = {
hhints = (
{
position = 0;
width = 103;
},
{
position = 578;
width = 103;
}
);
};
};
width = 647;
}
);
unicode = 017D;
},
{
glyphname = Zdotaccent;
layers = (
{
layerId = master01;
paths = (
{
closed = 1;
nodes = (
"2 77 LINE",
"509 578 LINE",
"137 578 LINE",
"176 681 LINE",
"636 681 LINE",
"656 603 LINE",
"148 103 LINE",
"540 103 LINE",
"502 0 LINE",
"22 0 LINE"
);
},
{
closed = 1;
nodes = (
"463 720 LINE",
"341 704 LINE",
"380 819 LINE",
"499 834 LINE"
);
}
);
userData = {
com.fontlab.hintData = {
hhints = (
{
position = 0;
width = 103;
},
{
position = 578;
width = 103;
}
);
};
};
width = 647;
}
);
unicode = 017B;
},
{
glyphname = uni0162;
layers = (
{
layerId = master01;
paths = (
{
closed = 1;
nodes = (
"276 582 LINE",
"77 582 LINE",
"98 681 LINE",
"611 681 LINE",
"590 582 LINE",
"376 582 LINE",
"255 12 LINE",
"151 -5 LINE"
);
},
{
closed = 1;
nodes = (
"291 -62 LINE",
"143 -247 LINE",
"66 -198 LINE",
"134 -119 LINE",
"95 -95 LINE",
"200 -16 LINE"
);
}
);
userData = {
com.fontlab.hintData = {
hhints = (
{
position = 582;
width = 99;
}
);
};
};
width = 548;
}
);
unicode = 0162;
},
{
glyphname = a;
layers = (
{
layerId = master01;
paths = (
{
closed = 1;
nodes = (
"393 13 LINE",
"293 -5 LINE",
"302 34 LINE",
"266 18 OFFCURVE",
"227 6 OFFCURVE",
"186 6 CURVE SMOOTH",
"93 6 OFFCURVE",
"33 69 OFFCURVE",
"33 166 CURVE SMOOTH",
"33 312 OFFCURVE",
"168 512 OFFCURVE",
"338 512 CURVE SMOOTH",
"392 512 OFFCURVE",
"444 492 OFFCURVE",
"490 466 CURVE"
);
},
{
closed = 1;
nodes = (
"218 417 OFFCURVE",
"133 292 OFFCURVE",
"133 189 CURVE SMOOTH",
"133 145 OFFCURVE",
"151 102 OFFCURVE",
"205 102 CURVE SMOOTH",
"245 102 OFFCURVE",
"295 126 OFFCURVE",
"323 143 CURVE",
"382 404 LINE",
"367 412 OFFCURVE",
"342 417 OFFCURVE",
"323 417 CURVE SMOOTH"
);
}
);
userData = {
com.fontlab.hintData = {
hhints = (
{
position = 6;
width = 96;
},
{
position = 417;
width = 95;
}
);
vhints = (
{
position = 33;
width = 100;
}
);
};
};
width = 530;
}
);
unicode = 0061;
},
{
glyphname = aacute;
layers = (
{
layerId = master01;
paths = (
{
closed = 1;
nodes = (
"414 731 LINE",
"482 658 LINE",
"271 540 LINE",
"213 600 LINE"
);
},
{
closed = 1;
nodes = (
"393 13 LINE",
"293 -5 LINE",
"302 34 LINE",
"266 18 OFFCURVE",
"227 6 OFFCURVE",
"186 6 CURVE SMOOTH",
"93 6 OFFCURVE",
"33 69 OFFCURVE",
"33 166 CURVE SMOOTH",
"33 312 OFFCURVE",
"168 512 OFFCURVE",
"338 512 CURVE SMOOTH",
"392 512 OFFCURVE",
"444 492 OFFCURVE",
"490 466 CURVE"
);
},
{
closed = 1;
nodes = (
"218 417 OFFCURVE",
"133 292 OFFCURVE",
"133 189 CURVE SMOOTH",
"133 145 OFFCURVE",
"151 102 OFFCURVE",
"205 102 CURVE SMOOTH",
"245 102 OFFCURVE",
"295 126 OFFCURVE",
"323 143 CURVE",
"382 404 LINE",
"367 412 OFFCURVE",
"342 417 OFFCURVE",
"323 417 CURVE SMOOTH"
);
}
);
userData = {
com.fontlab.hintData = {
hhints = (
{
position = 6;
width = 96;
},
{
position = 417;
width = 95;
}
);
vhints = (
{
position = 33;
width = 100;
}
);
};
};
width = 530;
}
);
unicode = 00E1;
},
{
glyphname = abreve;
layers = (
{
layerId = master01;
paths = (
{
closed = 1;
nodes = (
"402 626 OFFCURVE",
"436 649 OFFCURVE",
"470 706 CURVE",
"520 642 LINE",
"483 575 OFFCURVE",
"409 538 OFFCURVE",
"342 538 CURVE SMOOTH",
"269 538 OFFCURVE",
"213 572 OFFCURVE",
"198 637 CURVE",
"271 698 LINE",
"294 629 OFFCURVE",
"329 626 OFFCURVE",
"356 626 CURVE SMOOTH"
);
},
{
closed = 1;
nodes = (
"393 13 LINE",
"293 -5 LINE",
"302 34 LINE",
"266 18 OFFCURVE",
"227 6 OFFCURVE",
"186 6 CURVE SMOOTH",
"93 6 OFFCURVE",
"33 69 OFFCURVE",
"33 166 CURVE SMOOTH",
"33 312 OFFCURVE",
"168 512 OFFCURVE",
"338 512 CURVE SMOOTH",
"392 512 OFFCURVE",
"444 492 OFFCURVE",
"490 466 CURVE"
);
},
{
closed = 1;
nodes = (
"218 417 OFFCURVE",
"133 292 OFFCURVE",
"133 189 CURVE SMOOTH",
"133 145 OFFCURVE",
"151 102 OFFCURVE",
"205 102 CURVE SMOOTH",
"245 102 OFFCURVE",
"295 126 OFFCURVE",
"323 143 CURVE",
"382 404 LINE",
"367 412 OFFCURVE",
"342 417 OFFCURVE",
"323 417 CURVE SMOOTH"
);
}
);
userData = {
com.fontlab.hintData = {
hhints = (
{
position = 6;
width = 96;
},
{
position = 417;
width = 95;
},
{
position = 538;
width = 88;
}
);
vhints = (
{
position = 33;
width = 100;
}
);
};
};
width = 530;
}
);
unicode = 0103;
},
{
glyphname = acircumflex;
layers = (
{
layerId = master01;
paths = (
{
closed = 1;
nodes = (
"189 585 LINE",
"389 720 LINE",
"507 580 LINE",
"430 521 LINE",
"357 602 LINE",
"234 520 LINE"
);
},
{
closed = 1;
nodes = (
"393 13 LINE",
"293 -5 LINE",
"302 34 LINE",
"266 18 OFFCURVE",
"227 6 OFFCURVE",
"186 6 CURVE SMOOTH",
"93 6 OFFCURVE",
"33 69 OFFCURVE",
"33 166 CURVE SMOOTH",
"33 312 OFFCURVE",
"168 512 OFFCURVE",
"338 512 CURVE SMOOTH",
"392 512 OFFCURVE",
"444 492 OFFCURVE",
"490 466 CURVE"
);
},
{
closed = 1;
nodes = (
"218 417 OFFCURVE",
"133 292 OFFCURVE",
"133 189 CURVE SMOOTH",
"133 145 OFFCURVE",
"151 102 OFFCURVE",
"205 102 CURVE SMOOTH",
"245 102 OFFCURVE",
"295 126 OFFCURVE",
"323 143 CURVE",
"382 404 LINE",
"367 412 OFFCURVE",
"342 417 OFFCURVE",
"323 417 CURVE SMOOTH"
);
}
);
userData = {
com.fontlab.hintData = {
hhints = (
{
position = 6;
width = 96;
},
{
position = 417;
width = 95;
}
);
vhints = (
{
position = 33;
width = 100;
}
);
};
};
width = 530;
}
);
unicode = 00E2;
},
{
glyphname = adieresis;
layers = (
{
layerId = master01;
paths = (
{
closed = 1;
nodes = (
"314 561 LINE",
"196 546 LINE",
"233 658 LINE",
"348 672 LINE"
);
},
{
closed = 1;
nodes = (
"479 561 LINE",
"362 546 LINE",
"398 658 LINE",
"514 672 LINE"
);
},
{
closed = 1;
nodes = (
"393 13 LINE",
"293 -5 LINE",
"302 34 LINE",
"266 18 OFFCURVE",
"227 6 OFFCURVE",
"186 6 CURVE SMOOTH",
"93 6 OFFCURVE",
"33 69 OFFCURVE",
"33 166 CURVE SMOOTH",
"33 312 OFFCURVE",
"168 512 OFFCURVE",
"338 512 CURVE SMOOTH",
"392 512 OFFCURVE",
"444 492 OFFCURVE",
"490 466 CURVE"
);
},
{
closed = 1;
nodes = (
"218 417 OFFCURVE",
"133 292 OFFCURVE",
"133 189 CURVE SMOOTH",
"133 145 OFFCURVE",
"151 102 OFFCURVE",
"205 102 CURVE SMOOTH",
"245 102 OFFCURVE",
"295 126 OFFCURVE",
"323 143 CURVE",
"382 404 LINE",
"367 412 OFFCURVE",
"342 417 OFFCURVE",
"323 417 CURVE SMOOTH"
);
}
);
userData = {
com.fontlab.hintData = {
hhints = (
{
position = 6;
width = 96;
},
{
position = 417;
width = 95;
}
);
vhints = (
{
position = 33;
width = 100;
}
);
};
};
width = 530;
}
);
unicode = 00E4;
},
{
glyphname = agrave;
layers = (
{
layerId = master01;
paths = (
{
closed = 1;
nodes = (
"348 530 LINE",
"219 681 LINE",
"327 737 LINE",
"439 579 LINE"
);
},
{
closed = 1;
nodes = (
"393 13 LINE",
"293 -5 LINE",
"302 34 LINE",
"266 18 OFFCURVE",
"227 6 OFFCURVE",
"186 6 CURVE SMOOTH",
"93 6 OFFCURVE",
"33 69 OFFCURVE",
"33 166 CURVE SMOOTH",
"33 312 OFFCURVE",
"168 512 OFFCURVE",
"338 512 CURVE SMOOTH",
"392 512 OFFCURVE",
"444 492 OFFCURVE",
"490 466 CURVE"
);
},
{
closed = 1;
nodes = (
"218 417 OFFCURVE",
"133 292 OFFCURVE",
"133 189 CURVE SMOOTH",
"133 145 OFFCURVE",
"151 102 OFFCURVE",
"205 102 CURVE SMOOTH",
"245 102 OFFCURVE",
"295 126 OFFCURVE",
"323 143 CURVE",
"382 404 LINE",
"367 412 OFFCURVE",
"342 417 OFFCURVE",
"323 417 CURVE SMOOTH"
);
}
);
userData = {
com.fontlab.hintData = {
hhints = (
{
position = 6;
width = 96;
},
{
position = 417;
width = 95;
}
);
vhints = (
{
position = 33;
width = 100;
}
);
};
};
width = 530;
}
);
unicode = 00E0;
},
{
glyphname = aogonek;
layers = (
{
layerId = master01;
paths = (
{
closed = 1;
nodes = (
"302 39 LINE",
"266 23 OFFCURVE",
"227 11 OFFCURVE",
"186 11 CURVE SMOOTH",
"92 11 OFFCURVE",
"32 70 OFFCURVE",
"32 167 CURVE SMOOTH",
"32 313 OFFCURVE",
"168 512 OFFCURVE",
"337 512 CURVE SMOOTH",
"391 512 OFFCURVE",
"443 492 OFFCURVE",
"489 466 CURVE",
"390 0 LINE",
"310 -44 LINE SMOOTH",
"291 -54 OFFCURVE",
"257 -73 OFFCURVE",
"257 -101 CURVE SMOOTH",
"257 -113 OFFCURVE",
"268 -122 OFFCURVE",
"281 -122 CURVE SMOOTH",
"312 -122 OFFCURVE",
"336 -108 OFFCURVE",
"368 -85 CURVE",
"401 -131 LINE",
"368 -164 OFFCURVE",
"310 -196 OFFCURVE",
"255 -196 CURVE SMOOTH",
"203 -196 OFFCURVE",
"163 -170 OFFCURVE",
"163 -123 CURVE SMOOTH",
"163 -45 OFFCURVE",
"237 -12 OFFCURVE",
"297 18 CURVE"
);
},
{
closed = 1;
nodes = (
"133 215 OFFCURVE",
"132 202 OFFCURVE",
"132 189 CURVE SMOOTH",
"132 145 OFFCURVE",
"150 102 OFFCURVE",
"204 102 CURVE SMOOTH",
"244 102 OFFCURVE",
"294 126 OFFCURVE",
"322 143 CURVE",
"381 404 LINE",
"366 412 OFFCURVE",
"341 417 OFFCURVE",
"322 417 CURVE SMOOTH",
"214 417 OFFCURVE",
"150 296 OFFCURVE",
"136 227 CURVE SMOOTH"
);
}
);
userData = {
com.fontlab.hintData = {
hhints = (
{
position = -196;
width = 74;
},
{
position = 11;
width = 91;
},
{
position = 417;
width = 95;
}
);
vhints = (
{
position = 32;
width = 100;
},
{
position = 163;
width = 94;
}
);
};
};
width = 536;
}
);
unicode = 0105;
},
{
glyphname = aring;
layers = (
{
layerId = master01;
paths = (
{
closed = 1;
nodes = (
"257 542 OFFCURVE",
"216 580 OFFCURVE",
"216 632 CURVE SMOOTH",
"216 713 OFFCURVE",
"304 782 OFFCURVE",
"394 782 CURVE SMOOTH",
"463 782 OFFCURVE",
"500 740 OFFCURVE",
"500 690 CURVE SMOOTH",
"500 592 OFFCURVE",
"397 542 OFFCURVE",
"324 542 CURVE SMOOTH"
);
},
{
closed = 1;
nodes = (
"349 697 OFFCURVE",
"304 680 OFFCURVE",
"304 650 CURVE SMOOTH",
"304 636 OFFCURVE",
"321 626 OFFCURVE",
"344 626 CURVE SMOOTH",
"373 626 OFFCURVE",
"414 645 OFFCURVE",
"414 670 CURVE SMOOTH",
"414 685 OFFCURVE",
"397 697 OFFCURVE",
"373 697 CURVE SMOOTH"
);
},
{
closed = 1;
nodes = (
"393 13 LINE",
"293 -5 LINE",
"302 34 LINE",
"266 18 OFFCURVE",
"227 6 OFFCURVE",
"186 6 CURVE SMOOTH",
"93 6 OFFCURVE",
"33 69 OFFCURVE",
"33 166 CURVE SMOOTH",
"33 312 OFFCURVE",
"168 512 OFFCURVE",
"338 512 CURVE SMOOTH",
"392 512 OFFCURVE",
"444 492 OFFCURVE",
"490 466 CURVE"
);
},
{
closed = 1;
nodes = (
"218 417 OFFCURVE",
"133 292 OFFCURVE",
"133 189 CURVE SMOOTH",
"133 145 OFFCURVE",
"151 102 OFFCURVE",
"205 102 CURVE SMOOTH",
"245 102 OFFCURVE",
"295 126 OFFCURVE",
"323 143 CURVE",
"382 404 LINE",
"367 412 OFFCURVE",
"342 417 OFFCURVE",
"323 417 CURVE SMOOTH"
);
}
);
userData = {
com.fontlab.hintData = {
hhints = (
{
position = 6;
width = 96;
},
{
position = 417;
width = 95;
},
{
position = 542;
width = 84;
},
{
position = 697;
width = 85;
}
);
vhints = (
{
position = 33;
width = 100;
},
{
position = 216;
width = 88;
},
{
position = 414;
width = 86;
}
);
};
};
width = 530;
}
);
unicode = 00E5;
},
{
glyphname = atilde;
layers = (
{
layerId = master01;
paths = (
{
closed = 1;
nodes = (
"393 13 LINE",
"293 -5 LINE",
"302 34 LINE",
"266 18 OFFCURVE",
"227 6 OFFCURVE",
"186 6 CURVE SMOOTH",
"93 6 OFFCURVE",
"33 69 OFFCURVE",
"33 166 CURVE SMOOTH",
"33 312 OFFCURVE",
"168 512 OFFCURVE",
"338 512 CURVE SMOOTH",
"392 512 OFFCURVE",
"444 492 OFFCURVE",
"490 466 CURVE"
);
},
{
closed = 1;
nodes = (
"218 417 OFFCURVE",
"133 292 OFFCURVE",
"133 189 CURVE SMOOTH",
"133 145 OFFCURVE",
"151 102 OFFCURVE",
"205 102 CURVE SMOOTH",
"245 102 OFFCURVE",
"295 126 OFFCURVE",
"323 143 CURVE",
"382 404 LINE",
"367 412 OFFCURVE",
"342 417 OFFCURVE",
"323 417 CURVE SMOOTH"
);
},
{
closed = 1;
nodes = (
"550 669 LINE",
"532 638 OFFCURVE",
"476 536 OFFCURVE",
"375 536 CURVE SMOOTH",
"343 536 OFFCURVE",
"320 553 OFFCURVE",
"305 584 CURVE SMOOTH",
"293 607 OFFCURVE",
"285 619 OFFCURVE",
"270 619 CURVE SMOOTH",
"235 619 OFFCURVE",
"203 563 OFFCURVE",
"199 551 CURVE",
"141 584 LINE",
"168 640 OFFCURVE",
"223 708 OFFCURVE",
"301 708 CURVE SMOOTH",
"342 708 OFFCURVE",
"362 691 OFFCURVE",
"378 658 CURVE SMOOTH",
"387 639 OFFCURVE",
"399 624 OFFCURVE",
"412 624 CURVE SMOOTH",
"433 624 OFFCURVE",
"464 647 OFFCURVE",
"489 701 CURVE"
);
}
);
userData = {
com.fontlab.hintData = {
hhints = (
{
position = 6;
width = 96;
},
{
position = 417;
width = 95;
},
{
position = 536;
width = 88;
},
{
position = 619;
width = 89;
}
);
vhints = (
{
position = 33;
width = 100;
}
);
};
};
width = 539;
}
);
unicode = 00E3;
},
{
glyphname = ae;
layers = (
{
layerId = master01;
paths = (
{
closed = 1;
nodes = (
"494 0 OFFCURVE",
"445 21 OFFCURVE",
"411 54 CURVE",
"402 13 LINE",
"301 -5 LINE",
"310 34 LINE",
"274 18 OFFCURVE",
"235 6 OFFCURVE",
"195 6 CURVE SMOOTH",
"101 6 OFFCURVE",
"41 69 OFFCURVE",
"41 167 CURVE SMOOTH",
"41 313 OFFCURVE",
"178 512 OFFCURVE",
"347 512 CURVE SMOOTH",
"400 512 OFFCURVE",
"453 492 OFFCURVE",
"499 466 CURVE",
"492 438 LINE",
"541 481 OFFCURVE",
"598 502 OFFCURVE",
"656 502 CURVE SMOOTH",
"748 502 OFFCURVE",
"809 426 OFFCURVE",
"816 335 CURVE",
"460 158 LINE",
"479 122 OFFCURVE",
"520 92 OFFCURVE",
"569 92 CURVE SMOOTH",
"610 92 OFFCURVE",
"657 115 OFFCURVE",
"705 156 CURVE",
"758 93 LINE",
"689 33 OFFCURVE",
"614 0 OFFCURVE",
"550 0 CURVE SMOOTH"
);
},
{
closed = 1;
nodes = (
"226 417 OFFCURVE",
"142 291 OFFCURVE",
"142 188 CURVE SMOOTH",
"142 144 OFFCURVE",
"160 102 OFFCURVE",
"213 102 CURVE SMOOTH",
"253 102 OFFCURVE",
"304 126 OFFCURVE",
"331 143 CURVE",
"391 404 LINE",
"375 409 OFFCURVE",
"350 417 OFFCURVE",
"331 417 CURVE SMOOTH"
);
},
{
closed = 1;
nodes = (
"704 375 LINE",
"690 396 OFFCURVE",
"664 410 OFFCURVE",
"638 410 CURVE SMOOTH",
"548 410 OFFCURVE",
"470 334 OFFCURVE",
"452 247 CURVE"
);
}
);
userData = {
com.fontlab.hintData = {
hhints = (
{
position = 0;
width = 92;
},
{
position = 6;
width = 96;
},
{
position = 410;
width = 92;
},
{
position = 417;
width = 95;
}
);
vhints = (
{
position = 41;
width = 101;
}
);
};
};
width = 890;
}
);
unicode = 00E6;
},
{
glyphname = b;
layers = (
{
layerId = master01;
paths = (
{
closed = 1;
nodes = (
"453 491 OFFCURVE",
"491 415 OFFCURVE",
"491 330 CURVE SMOOTH",
"491 180 OFFCURVE",
"388 1 OFFCURVE",
"206 1 CURVE SMOOTH",
"170 1 OFFCURVE",
"133 8 OFFCURVE",
"106 16 CURVE",
"101 -5 LINE",
"9 12 LINE",
"147 661 LINE",
"247 679 LINE",
"198 448 LINE",
"243 476 OFFCURVE",
"298 491 OFFCURVE",
"360 491 CURVE SMOOTH"
);
},
{
closed = 1;
nodes = (
"323 95 OFFCURVE",
"395 193 OFFCURVE",
"395 310 CURVE SMOOTH",
"395 354 OFFCURVE",
"378 395 OFFCURVE",
"326 395 CURVE SMOOTH",
"242 395 OFFCURVE",
"177 346 OFFCURVE",
"164 287 CURVE SMOOTH",
"126 112 LINE",
"146 105 OFFCURVE",
"182 95 OFFCURVE",
"219 95 CURVE SMOOTH"
);
}
);
userData = {
com.fontlab.hintData = {
hhints = (
{
position = 1;
width = 94;
},
{
position = 395;
width = 96;
}
);
vhints = (
{
position = 395;
width = 96;
}
);
};
};
width = 554;
}
);
unicode = 0062;
},
{
glyphname = c;
layers = (
{
layerId = master01;
paths = (
{
closed = 1;
nodes = (
"289 95 OFFCURVE",
"341 131 OFFCURVE",
"382 186 CURVE",
"439 114 LINE",
"378 43 OFFCURVE",
"295 0 OFFCURVE",
"213 0 CURVE SMOOTH",
"111 0 OFFCURVE",
"34 74 OFFCURVE",
"34 174 CURVE SMOOTH",
"34 279 OFFCURVE",
"163 502 OFFCURVE",
"325 502 CURVE SMOOTH",
"390 502 OFFCURVE",
"442 470 OFFCURVE",
"474 411 CURVE",
"389 342 LINE",
"373 386 OFFCURVE",
"341 409 OFFCURVE",
"307 409 CURVE SMOOTH",
"213 409 OFFCURVE",
"129 257 OFFCURVE",
"129 189 CURVE SMOOTH",
"129 107 OFFCURVE",
"206 93 OFFCURVE",
"240 93 CURVE"
);
}
);
userData = {
com.fontlab.hintData = {
hhints = (
{
position = 0;
width = 93;
},
{
position = 409;
width = 93;
}
);
vhints = (
{
position = 34;
width = 95;
}
);
};
};
width = 533;
}
);
unicode = 0063;
},
{
glyphname = cacute;
layers = (
{
layerId = master01;
paths = (
{
closed = 1;
nodes = (
"432 731 LINE",
"500 658 LINE",
"289 540 LINE",
"231 600 LINE"
);
},
{
closed = 1;
nodes = (
"289 95 OFFCURVE",
"341 131 OFFCURVE",
"382 186 CURVE",
"439 114 LINE",
"378 43 OFFCURVE",
"295 0 OFFCURVE",
"213 0 CURVE SMOOTH",
"111 0 OFFCURVE",
"34 74 OFFCURVE",
"34 174 CURVE SMOOTH",
"34 279 OFFCURVE",
"163 502 OFFCURVE",
"325 502 CURVE SMOOTH",
"390 502 OFFCURVE",
"442 470 OFFCURVE",
"474 411 CURVE",
"389 342 LINE",
"373 386 OFFCURVE",
"341 409 OFFCURVE",
"307 409 CURVE SMOOTH",
"213 409 OFFCURVE",
"129 257 OFFCURVE",
"129 189 CURVE SMOOTH",
"129 107 OFFCURVE",
"206 93 OFFCURVE",
"240 93 CURVE"
);
}
);
userData = {
com.fontlab.hintData = {
hhints = (
{
position = 0;
width = 93;
},
{
position = 409;
width = 93;
}
);
vhints = (
{
position = 34;
width = 95;
}
);
};
};
width = 533;
}
);
unicode = 0107;
},
{
glyphname = ccaron;
layers = (
{
layerId = master01;
paths = (
{
closed = 1;
nodes = (
"531 652 LINE",
"336 532 LINE",
"214 657 LINE",
"292 722 LINE",
"363 639 LINE",
"488 722 LINE"
);
},
{
closed = 1;
nodes = (
"289 95 OFFCURVE",
"341 131 OFFCURVE",
"382 186 CURVE",
"439 114 LINE",
"378 43 OFFCURVE",
"295 0 OFFCURVE",
"213 0 CURVE SMOOTH",
"111 0 OFFCURVE",
"34 74 OFFCURVE",
"34 174 CURVE SMOOTH",
"34 279 OFFCURVE",
"163 502 OFFCURVE",
"325 502 CURVE SMOOTH",
"390 502 OFFCURVE",
"442 470 OFFCURVE",
"474 411 CURVE",
"389 342 LINE",
"373 386 OFFCURVE",
"341 409 OFFCURVE",
"307 409 CURVE SMOOTH",
"213 409 OFFCURVE",
"129 257 OFFCURVE",
"129 189 CURVE SMOOTH",
"129 107 OFFCURVE",
"206 93 OFFCURVE",
"240 93 CURVE"
);
}
);
userData = {
com.fontlab.hintData = {
hhints = (
{
position = 0;
width = 93;
},
{
position = 409;
width = 93;
}
);
vhints = (
{
position = 34;
width = 95;
}
);
};
};
width = 533;
}
);
unicode = 010D;
},
{
glyphname = ccedilla;
layers = (
{
layerId = master01;
paths = (
{
closed = 1;
nodes = (
"161 6 LINE",
"86 26 OFFCURVE",
"34 91 OFFCURVE",
"34 174 CURVE SMOOTH",
"34 279 OFFCURVE",
"163 502 OFFCURVE",
"325 502 CURVE SMOOTH",
"390 502 OFFCURVE",
"442 470 OFFCURVE",
"474 411 CURVE",
"389 342 LINE",
"373 386 OFFCURVE",
"341 409 OFFCURVE",
"307 409 CURVE SMOOTH",
"213 409 OFFCURVE",
"129 257 OFFCURVE",
"129 189 CURVE SMOOTH",
"129 112 OFFCURVE",
"199 93 OFFCURVE",
"235 93 CURVE SMOOTH",
"286 93 OFFCURVE",
"339 129 OFFCURVE",
"382 186 CURVE",
"439 114 LINE",
"381 47 OFFCURVE",
"302 3 OFFCURVE",
"224 0 CURVE SMOOTH",
"213 0 LINE",
"204 -33 LINE",
"249 -37 OFFCURVE",
"280 -54 OFFCURVE",
"280 -94 CURVE SMOOTH",
"280 -159 OFFCURVE",
"224 -196 OFFCURVE",
"166 -196 CURVE SMOOTH",
"135 -196 OFFCURVE",
"115 -186 OFFCURVE",
"98 -157 CURVE",
"149 -123 LINE",
"153 -132 OFFCURVE",
"164 -139 OFFCURVE",
"178 -139 CURVE SMOOTH",
"195 -139 OFFCURVE",
"211 -128 OFFCURVE",
"211 -110 CURVE SMOOTH",
"211 -97 OFFCURVE",
"202 -90 OFFCURVE",
"184 -90 CURVE SMOOTH",
"177 -90 OFFCURVE",
"166 -93 OFFCURVE",
"160 -98 CURVE",
"127 -54 LINE"
);
}
);
userData = {
com.fontlab.hintData = {
hhints = (
{
position = -196;
width = 57;
},
{
position = 0;
width = 93;
},
{
position = 409;
width = 93;
}
);
vhints = (
{
position = 34;
width = 95;
},
{
position = 211;
width = 69;
}
);
};
};
width = 533;
}
);
unicode = 00E7;
},
{
glyphname = ccircumflex;
layers = (
{
layerId = master01;
paths = (
{
closed = 1;
nodes = (
"289 95 OFFCURVE",
"341 131 OFFCURVE",
"382 186 CURVE",
"439 114 LINE",
"378 43 OFFCURVE",
"295 0 OFFCURVE",
"213 0 CURVE SMOOTH",
"111 0 OFFCURVE",
"34 74 OFFCURVE",
"34 174 CURVE SMOOTH",
"34 279 OFFCURVE",
"163 502 OFFCURVE",
"325 502 CURVE SMOOTH",
"390 502 OFFCURVE",
"442 470 OFFCURVE",
"474 411 CURVE",
"389 342 LINE",
"373 386 OFFCURVE",
"341 409 OFFCURVE",
"307 409 CURVE SMOOTH",
"213 409 OFFCURVE",
"129 257 OFFCURVE",
"129 189 CURVE SMOOTH",
"129 107 OFFCURVE",
"206 93 OFFCURVE",
"240 93 CURVE SMOOTH"
);
},
{
closed = 1;
nodes = (
"179 585 LINE",
"379 720 LINE",
"497 580 LINE",
"420 521 LINE",
"347 602 LINE",
"224 520 LINE"
);
}
);
userData = {
com.fontlab.hintData = {
hhints = (
{
position = 0;
width = 93;
},
{
position = 409;
width = 93;
}
);
vhints = (
{
position = 34;
width = 95;
}
);
};
};
width = 533;
}
);
unicode = 0109;
},
{
glyphname = d;
layers = (
{
layerId = master01;
paths = (
{
closed = 1;
nodes = (
"557 684 LINE",
"399 12 LINE",
"299 -5 LINE",
"310 47 LINE",
"271 23 OFFCURVE",
"229 5 OFFCURVE",
"172 5 CURVE SMOOTH",
"74 5 OFFCURVE",
"34 78 OFFCURVE",
"34 163 CURVE SMOOTH",
"34 347 OFFCURVE",
"162 496 OFFCURVE",
"320 496 CURVE SMOOTH",
"350 496 OFFCURVE",
"382 488 OFFCURVE",
"411 479 CURVE",
"455 667 LINE"
);
},
{
closed = 1;
nodes = (
"388 376 LINE",
"371 386 OFFCURVE",
"337 402 OFFCURVE",
"295 402 CURVE SMOOTH",
"158 402 OFFCURVE",
"132 222 OFFCURVE",
"132 175 CURVE SMOOTH",
"132 134 OFFCURVE",
"144 95 OFFCURVE",
"191 95 CURVE SMOOTH",
"269 95 OFFCURVE",
"335 149 OFFCURVE",
"340 171 CURVE SMOOTH"
);
}
);
userData = {
com.fontlab.hintData = {
hhints = (
{
position = 5;
width = 90;
},
{
position = 402;
width = 94;
}
);
vhints = (
{
position = 34;
width = 98;
}
);
};
};
width = 552;
}
);
unicode = 0064;
},
{
glyphname = eth;
layers = (
{
layerId = master01;
paths = (
{
closed = 1;
nodes = (
"370 547 LINE",
"412 483 OFFCURVE",
"446 406 OFFCURVE",
"446 321 CURVE SMOOTH",
"446 176 OFFCURVE",
"329 0 OFFCURVE",
"164 0 CURVE SMOOTH",
"81 0 OFFCURVE",
"26 54 OFFCURVE",
"26 138 CURVE SMOOTH",
"26 299 OFFCURVE",
"165 416 OFFCURVE",
"316 437 CURVE",
"306 458 OFFCURVE",
"292 485 OFFCURVE",
"280 501 CURVE",
"232 476 OFFCURVE",
"170 439 OFFCURVE",
"153 427 CURVE",
"131 504 LINE",
"164 523 OFFCURVE",
"200 544 OFFCURVE",
"233 561 CURVE",
"222 574 OFFCURVE",
"208 586 OFFCURVE",
"200 592 CURVE",
"277 661 LINE",
"290 649 OFFCURVE",
"314 626 OFFCURVE",
"327 608 CURVE",
"364 626 OFFCURVE",
"411 647 OFFCURVE",
"462 666 CURVE",
"472 590 LINE"
);
},
{
closed = 1;
nodes = (
"279 92 OFFCURVE",
"351 209 OFFCURVE",
"351 298 CURVE SMOOTH",
"351 315 OFFCURVE",
"349 333 OFFCURVE",
"346 350 CURVE",
"345.283 350.006 OFFCURVE",
"344.566 350.009 OFFCURVE",
"343.849 350.009 CURVE SMOOTH",
"228.631 350.009 OFFCURVE",
"119 270.295 OFFCURVE",
"119 157 CURVE SMOOTH",
"119 116 OFFCURVE",
"144 92 OFFCURVE",
"183 92 CURVE SMOOTH"
);
}
);
userData = {
com.fontlab.hintData = {
hhints = (
{
position = 0;
width = 92;
}
);
vhints = (
{
position = 26;
width = 93;
},
{
position = 351;
width = 95;
}
);
};
};
width = 508;
}
);
unicode = 00F0;
},
{
glyphname = dcaron;
layers = (
{
layerId = master01;
paths = (
{
closed = 1;
nodes = (
"723 624 LINE",
"587 434 LINE",
"512 482 LINE",
"579 568 LINE",
"542 592 LINE",
"646 679 LINE"
);
},
{
closed = 1;
nodes = (
"542 684 LINE",
"384 12 LINE",
"289 -5 LINE",
"300 47 LINE",
"261 23 OFFCURVE",
"219 5 OFFCURVE",
"162 5 CURVE SMOOTH",
"64 5 OFFCURVE",
"24 78 OFFCURVE",
"24 163 CURVE SMOOTH",
"24 347 OFFCURVE",
"152 496 OFFCURVE",
"310 496 CURVE SMOOTH",
"340 496 OFFCURVE",
"372 488 OFFCURVE",
"401 479 CURVE",
"445 667 LINE"
);
},
{
closed = 1;
nodes = (
"378 376 LINE",
"361 386 OFFCURVE",
"327 402 OFFCURVE",
"285 402 CURVE SMOOTH",
"148 402 OFFCURVE",
"122 222 OFFCURVE",
"122 175 CURVE SMOOTH",
"122 134 OFFCURVE",
"134 95 OFFCURVE",
"181 95 CURVE SMOOTH",
"259 95 OFFCURVE",
"325 149 OFFCURVE",
"330 171 CURVE SMOOTH"
);
}
);
userData = {
com.fontlab.hintData = {
hhints = (
{
position = 5;
width = 90;
},
{
position = 402;
width = 94;
}
);
vhints = (
{
position = 24;
width = 98;
}
);
};
};
width = 635;
}
);
unicode = 010F;
},
{
glyphname = dcroat;
layers = (
{
layerId = master01;
paths = (
{
closed = 1;
nodes = (
"552 684 LINE",
"533 606 LINE",
"636 606 LINE",
"601 523 LINE",
"514 523 LINE",
"394 12 LINE",
"299 -5 LINE",
"310 47 LINE",
"271 23 OFFCURVE",
"229 5 OFFCURVE",
"172 5 CURVE SMOOTH",
"74 5 OFFCURVE",
"33 75 OFFCURVE",
"33 160 CURVE SMOOTH",
"33 340 OFFCURVE",
"161 486 OFFCURVE",
"318 486 CURVE SMOOTH",
"348 486 OFFCURVE",
"380 478 OFFCURVE",
"409 469 CURVE",
"422 523 LINE",
"331 523 LINE",
"365 606 LINE",
"440 606 LINE",
"455 667 LINE"
);
},
{
closed = 1;
nodes = (
"386 366 LINE",
"368 376 OFFCURVE",
"335 392 OFFCURVE",
"293 392 CURVE SMOOTH",
"159 392 OFFCURVE",
"130 225 OFFCURVE",
"130 173 CURVE SMOOTH",
"130 133 OFFCURVE",
"144 95 OFFCURVE",
"191 95 CURVE SMOOTH",
"269 95 OFFCURVE",
"335 149 OFFCURVE",
"340 171 CURVE SMOOTH"
);
}
);
userData = {
com.fontlab.hintData = {
hhints = (
{
position = 5;
width = 90;
},
{
position = 392;
width = 94;
},
{
position = 523;
width = 83;
}
);
vhints = (
{
position = 33;
width = 97;
}
);
};
};
width = 576;
}
);
unicode = 0111;
},
{
glyphname = e;
layers = (
{
layerId = master01;
paths = (
{
closed = 1;
nodes = (
"119 0 OFFCURVE",
"40 85 OFFCURVE",
"40 197 CURVE SMOOTH",
"40 357 OFFCURVE",
"189 502 OFFCURVE",
"342 502 CURVE SMOOTH",
"433 502 OFFCURVE",
"495 426 OFFCURVE",
"502 335 CURVE",
"146 158 LINE",
"165 122 OFFCURVE",
"206 92 OFFCURVE",
"255 92 CURVE SMOOTH",
"296 92 OFFCURVE",
"343 115 OFFCURVE",
"391 156 CURVE",
"444 93 LINE",
"375 33 OFFCURVE",
"300 0 OFFCURVE",
"236 0 CURVE SMOOTH"
);
},
{
closed = 1;
nodes = (
"389 375 LINE",
"375 396 OFFCURVE",
"349 410 OFFCURVE",
"323 410 CURVE SMOOTH",
"233 410 OFFCURVE",
"155 334 OFFCURVE",
"137 247 CURVE"
);
}
);
userData = {
com.fontlab.hintData = {
hhints = (
{
position = 0;
width = 92;
},
{
position = 410;
width = 92;
}
);
};
};
width = 553;
}
);
unicode = 0065;
},
{
glyphname = eacute;
layers = (
{
layerId = master01;
paths = (
{
closed = 1;
nodes = (
"415 731 LINE",
"483 658 LINE",
"272 540 LINE",
"214 600 LINE"
);
},
{
closed = 1;
nodes = (
"119 0 OFFCURVE",
"40 85 OFFCURVE",
"40 197 CURVE SMOOTH",
"40 357 OFFCURVE",
"189 502 OFFCURVE",
"342 502 CURVE SMOOTH",
"433 502 OFFCURVE",
"495 426 OFFCURVE",
"502 335 CURVE",
"146 158 LINE",
"165 122 OFFCURVE",
"206 92 OFFCURVE",
"255 92 CURVE SMOOTH",
"296 92 OFFCURVE",
"343 115 OFFCURVE",
"391 156 CURVE",
"444 93 LINE",
"375 33 OFFCURVE",
"300 0 OFFCURVE",
"236 0 CURVE SMOOTH"
);
},
{
closed = 1;
nodes = (
"389 375 LINE",
"375 396 OFFCURVE",
"349 410 OFFCURVE",
"323 410 CURVE SMOOTH",
"233 410 OFFCURVE",
"155 334 OFFCURVE",
"137 247 CURVE"
);
}
);
userData = {
com.fontlab.hintData = {
hhints = (
{
position = 0;
width = 92;
},
{
position = 410;
width = 92;
}
);
};
};
width = 553;
}
);
unicode = 00E9;
},
{
glyphname = ecaron;
layers = (
{
layerId = master01;
paths = (
{
closed = 1;
nodes = (
"527 652 LINE",
"332 532 LINE",
"210 657 LINE",
"288 722 LINE",
"359 639 LINE",
"485 722 LINE"
);
},
{
closed = 1;
nodes = (
"119 0 OFFCURVE",
"40 85 OFFCURVE",
"40 197 CURVE SMOOTH",
"40 357 OFFCURVE",
"189 502 OFFCURVE",
"342 502 CURVE SMOOTH",
"433 502 OFFCURVE",
"495 426 OFFCURVE",
"502 335 CURVE",
"146 158 LINE",
"165 122 OFFCURVE",
"206 92 OFFCURVE",
"255 92 CURVE SMOOTH",
"296 92 OFFCURVE",
"343 115 OFFCURVE",
"391 156 CURVE",
"444 93 LINE",
"375 33 OFFCURVE",
"300 0 OFFCURVE",
"236 0 CURVE SMOOTH"
);
},
{
closed = 1;
nodes = (
"389 375 LINE",
"375 396 OFFCURVE",
"349 410 OFFCURVE",
"323 410 CURVE SMOOTH",
"233 410 OFFCURVE",
"155 334 OFFCURVE",
"137 247 CURVE"
);
}
);
userData = {
com.fontlab.hintData = {
hhints = (
{
position = 0;
width = 92;
},
{
position = 410;
width = 92;
}
);
};
};
width = 553;
}
);
unicode = 011B;
},
{
glyphname = ecircumflex;
layers = (
{
layerId = master01;
paths = (
{
closed = 1;
nodes = (
"176 585 LINE",
"374 720 LINE",
"492 580 LINE",
"416 521 LINE",
"343 602 LINE",
"220 520 LINE"
);
},
{
closed = 1;
nodes = (
"119 0 OFFCURVE",
"40 85 OFFCURVE",
"40 197 CURVE SMOOTH",
"40 357 OFFCURVE",
"189 502 OFFCURVE",
"342 502 CURVE SMOOTH",
"433 502 OFFCURVE",
"495 426 OFFCURVE",
"502 335 CURVE",
"146 158 LINE",
"165 122 OFFCURVE",
"206 92 OFFCURVE",
"255 92 CURVE SMOOTH",
"296 92 OFFCURVE",
"343 115 OFFCURVE",
"391 156 CURVE",
"444 93 LINE",
"375 33 OFFCURVE",
"300 0 OFFCURVE",
"236 0 CURVE SMOOTH"
);
},
{
closed = 1;
nodes = (
"389 375 LINE",
"375 396 OFFCURVE",
"349 410 OFFCURVE",
"323 410 CURVE SMOOTH",
"233 410 OFFCURVE",
"155 334 OFFCURVE",
"137 247 CURVE"
);
}
);
userData = {
com.fontlab.hintData = {
hhints = (
{
position = 0;
width = 92;
},
{
position = 410;
width = 92;
}
);
};
};
width = 553;
}
);
unicode = 00EA;
},
{
glyphname = edieresis;
layers = (
{
layerId = master01;
paths = (
{
closed = 1;
nodes = (
"311 561 LINE",
"193 546 LINE",
"230 658 LINE",
"346 672 LINE"
);
},
{
closed = 1;
nodes = (
"476 561 LINE",
"359 546 LINE",
"396 658 LINE",
"511 672 LINE"
);
},
{
closed = 1;
nodes = (
"119 0 OFFCURVE",
"40 85 OFFCURVE",
"40 197 CURVE SMOOTH",
"40 357 OFFCURVE",
"189 502 OFFCURVE",
"342 502 CURVE SMOOTH",
"433 502 OFFCURVE",
"495 426 OFFCURVE",
"502 335 CURVE",
"146 158 LINE",
"165 122 OFFCURVE",
"206 92 OFFCURVE",
"255 92 CURVE SMOOTH",
"296 92 OFFCURVE",
"343 115 OFFCURVE",
"391 156 CURVE",
"444 93 LINE",
"375 33 OFFCURVE",
"300 0 OFFCURVE",
"236 0 CURVE SMOOTH"
);
},
{
closed = 1;
nodes = (
"389 375 LINE",
"375 396 OFFCURVE",
"349 410 OFFCURVE",
"323 410 CURVE SMOOTH",
"233 410 OFFCURVE",
"155 334 OFFCURVE",
"137 247 CURVE"
);
}
);
userData = {
com.fontlab.hintData = {
hhints = (
{
position = 0;
width = 92;
},
{
position = 410;
width = 92;
}
);
};
};
width = 553;
}
);
unicode = 00EB;
},
{
glyphname = egrave;
layers = (
{
layerId = master01;
paths = (
{
closed = 1;
nodes = (
"355 530 LINE",
"226 682 LINE",
"335 737 LINE",
"447 579 LINE"
);
},
{
closed = 1;
nodes = (
"119 0 OFFCURVE",
"40 85 OFFCURVE",
"40 197 CURVE SMOOTH",
"40 357 OFFCURVE",
"189 502 OFFCURVE",
"342 502 CURVE SMOOTH",
"433 502 OFFCURVE",
"495 426 OFFCURVE",
"502 335 CURVE",
"146 158 LINE",
"165 122 OFFCURVE",
"206 92 OFFCURVE",
"255 92 CURVE SMOOTH",
"296 92 OFFCURVE",
"343 115 OFFCURVE",
"391 156 CURVE",
"444 93 LINE",
"375 33 OFFCURVE",
"300 0 OFFCURVE",
"236 0 CURVE SMOOTH"
);
},
{
closed = 1;
nodes = (
"389 375 LINE",
"375 396 OFFCURVE",
"349 410 OFFCURVE",
"323 410 CURVE SMOOTH",
"233 410 OFFCURVE",
"155 334 OFFCURVE",
"137 247 CURVE"
);
}
);
userData = {
com.fontlab.hintData = {
hhints = (
{
position = 0;
width = 92;
},
{
position = 410;
width = 92;
}
);
};
};
width = 553;
}
);
unicode = 00E8;
},
{
glyphname = eogonek;
layers = (
{
layerId = master01;
paths = (
{
closed = 1;
nodes = (
"220 -44 OFFCURVE",
"186 -63 OFFCURVE",
"186 -91 CURVE SMOOTH",
"186 -103 OFFCURVE",
"197 -112 OFFCURVE",
"210 -112 CURVE SMOOTH",
"231 -112 OFFCURVE",
"256 -98 OFFCURVE",
"289 -75 CURVE",
"328 -131 LINE",
"295 -164 OFFCURVE",
"237 -196 OFFCURVE",
"192 -196 CURVE SMOOTH",
"133 -196 OFFCURVE",
"92 -170 OFFCURVE",
"92 -119 CURVE SMOOTH",
"92 -56 OFFCURVE",
"134 -18 OFFCURVE",
"178 7 CURVE",
"94 30 OFFCURVE",
"40 103 OFFCURVE",
"40 196 CURVE SMOOTH",
"40 356 OFFCURVE",
"189 502 OFFCURVE",
"342 502 CURVE SMOOTH",
"433 502 OFFCURVE",
"495 426 OFFCURVE",
"502 335 CURVE",
"146 158 LINE",
"165 122 OFFCURVE",
"206 92 OFFCURVE",
"255 92 CURVE SMOOTH",
"296 92 OFFCURVE",
"343 115 OFFCURVE",
"391 156 CURVE",
"444 93 LINE",
"406 61 OFFCURVE",
"370 34 OFFCURVE",
"239 -33 CURVE"
);
},
{
closed = 1;
nodes = (
"389 375 LINE",
"375 396 OFFCURVE",
"349 410 OFFCURVE",
"323 410 CURVE SMOOTH",
"233 410 OFFCURVE",
"155 334 OFFCURVE",
"137 247 CURVE"
);
}
);
userData = {
com.fontlab.hintData = {
hhints = (
{
position = -196;
width = 84;
},
{
position = 410;
width = 92;
}
);
vhints = (
{
position = 92;
width = 94;
}
);
};
};
width = 553;
}
);
unicode = 0119;
},
{
glyphname = f;
layers = (
{
layerId = master01;
paths = (
{
closed = 1;
nodes = (
"376 582 LINE",
"285 582 OFFCURVE",
"253 562 OFFCURVE",
"237 502 CURVE",
"360 502 LINE",
"320 410 LINE",
"212 410 LINE",
"127 12 LINE",
"27 -5 LINE",
"116 410 LINE",
"34 410 LINE",
"69 502 LINE",
"136 502 LINE",
"169 630 OFFCURVE",
"243 677 OFFCURVE",
"373 677 CURVE SMOOTH",
"384 677 OFFCURVE",
"395 677 OFFCURVE",
"435 673 CURVE"
);
}
);
userData = {
com.fontlab.hintData = {
hhints = (
{
position = 410;
width = 92;
},
{
position = 582;
width = 95;
}
);
};
};
width = 358;
}
);
unicode = 0066;
},
{
glyphname = g;
layers = (
{
layerId = master01;
paths = (
{
closed = 1;
nodes = (
"406 39 LINE SMOOTH",
"375 -94 OFFCURVE",
"284 -168 OFFCURVE",
"155 -168 CURVE SMOOTH",
"111 -168 OFFCURVE",
"56 -159 OFFCURVE",
"18 -150 CURVE",
"58 -56 LINE",
"88 -64 OFFCURVE",
"135 -72 OFFCURVE",
"175 -72 CURVE SMOOTH",
"271 -72 OFFCURVE",
"301 9 OFFCURVE",
"309 42 CURVE",
"275 19 OFFCURVE",
"237 10 OFFCURVE",
"198 10 CURVE SMOOTH",
"101 10 OFFCURVE",
"38 79 OFFCURVE",
"38 182 CURVE SMOOTH",
"38 327 OFFCURVE",
"166 501 OFFCURVE",
"337 501 CURVE SMOOTH",
"370 501 OFFCURVE",
"392 497 OFFCURVE",
"414 487 CURVE",
"416 497 LINE",
"517 512 LINE"
);
},
{
closed = 1;
nodes = (
"373 397 OFFCURVE",
"348 406 OFFCURVE",
"322 406 CURVE SMOOTH",
"224 406 OFFCURVE",
"131 312 OFFCURVE",
"131 209 CURVE SMOOTH",
"131 159 OFFCURVE",
"152 104 OFFCURVE",
"213 104 CURVE SMOOTH",
"266 104 OFFCURVE",
"335 137 OFFCURVE",
"363 266 CURVE SMOOTH",
"389 386 LINE"
);
}
);
userData = {
com.fontlab.hintData = {
hhints = (
{
position = -168;
width = 96;
},
{
position = 10;
width = 94;
},
{
position = 406;
width = 95;
},
{
position = 492;
width = 20;
}
);
vhints = (
{
position = 38;
width = 93;
}
);
};
};
width = 548;
}
);
unicode = 0067;
},
{
glyphname = gcircumflex;
layers = (
{
layerId = master01;
paths = (
{
closed = 1;
nodes = (
"406 39 LINE SMOOTH",
"375 -94 OFFCURVE",
"284 -168 OFFCURVE",
"155 -168 CURVE SMOOTH",
"111 -168 OFFCURVE",
"56 -159 OFFCURVE",
"18 -150 CURVE",
"58 -56 LINE",
"88 -64 OFFCURVE",
"135 -72 OFFCURVE",
"175 -72 CURVE SMOOTH",
"271 -72 OFFCURVE",
"301 9 OFFCURVE",
"309 42 CURVE",
"275 19 OFFCURVE",
"237 10 OFFCURVE",
"198 10 CURVE SMOOTH",
"101 10 OFFCURVE",
"38 79 OFFCURVE",
"38 182 CURVE SMOOTH",
"38 327 OFFCURVE",
"166 501 OFFCURVE",
"337 501 CURVE SMOOTH",
"370 501 OFFCURVE",
"392 497 OFFCURVE",
"414 487 CURVE",
"416 497 LINE",
"517 512 LINE"
);
},
{
closed = 1;
nodes = (
"373 397 OFFCURVE",
"348 406 OFFCURVE",
"322 406 CURVE SMOOTH",
"224 406 OFFCURVE",
"131 312 OFFCURVE",
"131 209 CURVE SMOOTH",
"131 159 OFFCURVE",
"152 104 OFFCURVE",
"213 104 CURVE SMOOTH",
"266 104 OFFCURVE",
"335 137 OFFCURVE",
"363 266 CURVE SMOOTH",
"389 386 LINE"
);
},
{
closed = 1;
nodes = (
"189 585 LINE",
"389 720 LINE",
"507 580 LINE",
"430 521 LINE",
"357 602 LINE",
"234 520 LINE"
);
}
);
userData = {
com.fontlab.hintData = {
hhints = (
{
position = -168;
width = 96;
},
{
position = 10;
width = 94;
},
{
position = 406;
width = 95;
},
{
position = 492;
width = 20;
}
);
vhints = (
{
position = 38;
width = 93;
}
);
};
};
width = 548;
}
);
unicode = 011D;
},
{
glyphname = h;
layers = (
{
layerId = master01;
paths = (
{
closed = 1;
nodes = (
"105 12 LINE",
"4 -5 LINE",
"146 661 LINE",
"247 679 LINE",
"189 409 LINE",
"241 463 OFFCURVE",
"306 505 OFFCURVE",
"367 505 CURVE SMOOTH",
"437 505 OFFCURVE",
"466 460 OFFCURVE",
"466 370 CURVE SMOOTH",
"466 290 OFFCURVE",
"419 72 OFFCURVE",
"404 12 CURVE",
"304 -5 LINE",
"320 48 OFFCURVE",
"369 275 OFFCURVE",
"369 340 CURVE SMOOTH",
"369 384 OFFCURVE",
"358 407 OFFCURVE",
"334 407 CURVE SMOOTH",
"279 407 OFFCURVE",
"190 300 OFFCURVE",
"171 272 CURVE SMOOTH",
"158 253 OFFCURVE",
"151 227 OFFCURVE",
"145 201 CURVE SMOOTH"
);
}
);
userData = {
com.fontlab.hintData = {
hhints = (
{
position = 407;
width = 98;
}
);
vhints = (
{
position = 369;
width = 97;
}
);
};
};
width = 530;
}
);
unicode = 0068;
},
{
glyphname = hcircumflex;
layers = (
{
layerId = master01;
paths = (
{
closed = 1;
nodes = (
"105 12 LINE",
"4 -5 LINE",
"146 661 LINE",
"247 679 LINE",
"189 409 LINE",
"241 463 OFFCURVE",
"306 505 OFFCURVE",
"367 505 CURVE SMOOTH",
"437 505 OFFCURVE",
"466 460 OFFCURVE",
"466 370 CURVE SMOOTH",
"466 290 OFFCURVE",
"419 72 OFFCURVE",
"404 12 CURVE",
"304 -5 LINE",
"320 48 OFFCURVE",
"369 275 OFFCURVE",
"369 340 CURVE SMOOTH",
"369 384 OFFCURVE",
"358 407 OFFCURVE",
"334 407 CURVE SMOOTH",
"279 407 OFFCURVE",
"190 300 OFFCURVE",
"171 272 CURVE SMOOTH",
"158 253 OFFCURVE",
"151 227 OFFCURVE",
"145 201 CURVE SMOOTH"
);
},
{
closed = 1;
nodes = (
"188 756 LINE",
"392 895 LINE",
"513 751 LINE",
"434 691 LINE",
"360 773 LINE",
"234 690 LINE"
);
}
);
userData = {
com.fontlab.hintData = {
hhints = (
{
position = 407;
width = 98;
},
{
position = 690;
width = 21;
}
);
vhints = (
{
position = 369;
width = 97;
}
);
};
};
width = 530;
}
);
unicode = 0125;
},
{
glyphname = i;
layers = (
{
layerId = master01;
paths = (
{
closed = 1;
nodes = (
"217 505 LINE",
"112 12 LINE",
"9 -5 LINE",
"114 489 LINE"
);
},
{
closed = 1;
nodes = (
"224 555 LINE",
"123 538 LINE",
"158 660 LINE",
"258 677 LINE"
);
}
);
userData = {
com.fontlab.hintData = {
vhints = (
{
position = 9;
width = 249;
}
);
};
};
width = 247;
}
);
unicode = 0069;
},
{
glyphname = iacute;
layers = (
{
layerId = master01;
paths = (
{
closed = 1;
nodes = (
"290 731 LINE",
"358 658 LINE",
"147 540 LINE",
"89 600 LINE"
);
},
{
closed = 1;
nodes = (
"218 505 LINE",
"113 12 LINE",
"10 -5 LINE",
"115 489 LINE"
);
}
);
width = 259;
}
);
unicode = 00ED;
},
{
glyphname = icircumflex;
layers = (
{
layerId = master01;
paths = (
{
closed = 1;
nodes = (
"63 585 LINE",
"261 720 LINE",
"379 580 LINE",
"302 521 LINE",
"229 602 LINE",
"107 520 LINE"
);
},
{
closed = 1;
nodes = (
"249 505 LINE",
"144 12 LINE",
"40 -5 LINE",
"145 489 LINE"
);
}
);
width = 300;
}
);
unicode = 00EE;
},
{
glyphname = idieresis;
layers = (
{
layerId = master01;
paths = (
{
closed = 1;
nodes = (
"185 561 LINE",
"67 546 LINE",
"104 658 LINE",
"220 672 LINE"
);
},
{
closed = 1;
nodes = (
"351 561 LINE",
"233 546 LINE",
"270 658 LINE",
"385 672 LINE"
);
},
{
closed = 1;
nodes = (
"244 505 LINE",
"139 12 LINE",
"36 -5 LINE",
"141 489 LINE"
);
}
);
width = 300;
}
);
unicode = 00EF;
},
{
glyphname = igrave;
layers = (
{
layerId = master01;
paths = (
{
closed = 1;
nodes = (
"210 530 LINE",
"81 682 LINE",
"190 737 LINE",
"302 579 LINE"
);
},
{
closed = 1;
nodes = (
"228 505 LINE",
"123 12 LINE",
"19 -5 LINE",
"124 489 LINE"
);
}
);
userData = {
com.fontlab.hintData = {
vhints = (
{
position = 19;
width = 283;
}
);
};
};
width = 271;
}
);
unicode = 00EC;
},
{
glyphname = j;
layers = (
{
layerId = master01;
paths = (
{
closed = 1;
nodes = (
"322 562 LINE",
"221 546 LINE",
"254 668 LINE",
"358 684 LINE"
);
},
{
closed = 1;
nodes = (
"1 50 LINE",
"8 13 OFFCURVE",
"30 -72 OFFCURVE",
"61 -72 CURVE SMOOTH",
"87 -72 OFFCURVE",
"105 -31 OFFCURVE",
"116 18 CURVE SMOOTH",
"119 34 OFFCURVE",
"166 260 OFFCURVE",
"213 499 CURVE",
"313 517 LINE",
"266 275 OFFCURVE",
"218 38 OFFCURVE",
"215 23 CURVE SMOOTH",
"198 -52 OFFCURVE",
"152 -164 OFFCURVE",
"49 -164 CURVE SMOOTH",
"-55 -164 OFFCURVE",
"-94 11 OFFCURVE",
"-98 30 CURVE"
);
}
);
userData = {
com.fontlab.hintData = {
hhints = (
{
position = -164;
width = 92;
}
);
vhints = (
{
position = -98;
width = 99;
}
);
};
};
width = 339;
}
);
unicode = 006A;
},
{
glyphname = jcircumflex;
layers = (
{
layerId = master01;
paths = (
{
closed = 1;
nodes = (
"1 50 LINE",
"8 13 OFFCURVE",
"30 -72 OFFCURVE",
"61 -72 CURVE SMOOTH",
"87 -72 OFFCURVE",
"105 -31 OFFCURVE",
"116 18 CURVE SMOOTH",
"119 34 OFFCURVE",
"166 260 OFFCURVE",
"213 499 CURVE",
"313 517 LINE",
"266 275 OFFCURVE",
"218 38 OFFCURVE",
"215 23 CURVE SMOOTH",
"198 -52 OFFCURVE",
"152 -164 OFFCURVE",
"49 -164 CURVE SMOOTH",
"-55 -164 OFFCURVE",
"-94 11 OFFCURVE",
"-98 30 CURVE"
);
},
{
closed = 1;
nodes = (
"119 585 LINE",
"319 720 LINE",
"437 580 LINE",
"360 521 LINE",
"287 602 LINE",
"164 520 LINE"
);
}
);
userData = {
com.fontlab.hintData = {
hhints = (
{
position = -164;
width = 92;
}
);
vhints = (
{
position = -98;
width = 99;
}
);
};
};
width = 339;
}
);
unicode = 0135;
},
{
glyphname = k;
layers = (
{
layerId = master01;
paths = (
{
closed = 1;
nodes = (
"460 430 OFFCURVE",
"356 336 OFFCURVE",
"298 291 CURVE",
"434 54 LINE",
"345 -11 LINE",
"300 87 OFFCURVE",
"246 183 OFFCURVE",
"213 233 CURVE",
"146 193 LINE",
"108 12 LINE",
"6 -5 LINE",
"147 662 LINE",
"248 679 LINE",
"168 300 LINE",
"243 354 OFFCURVE",
"367 458 OFFCURVE",
"447 539 CURVE",
"512 484 LINE"
);
}
);
width = 520;
}
);
unicode = 006B;
},
{
glyphname = l;
layers = (
{
layerId = master01;
paths = (
{
closed = 1;
nodes = (
"259 679 LINE",
"117 12 LINE",
"17 -5 LINE",
"159 661 LINE"
);
}
);
userData = {
com.fontlab.hintData = {
vhints = (
{
position = 17;
width = 242;
}
);
};
};
width = 252;
}
);
unicode = 006C;
},
{
glyphname = lacute;
layers = (
{
layerId = master01;
paths = (
{
closed = 1;
nodes = (
"326 885 LINE",
"394 812 LINE",
"183 694 LINE",
"125 754 LINE"
);
},
{
closed = 1;
nodes = (
"259 679 LINE",
"117 12 LINE",
"17 -5 LINE",
"159 661 LINE"
);
}
);
width = 252;
}
);
unicode = 013A;
},
{
glyphname = lcaron;
layers = (
{
layerId = master01;
paths = (
{
closed = 1;
nodes = (
"248 679 LINE",
"106 12 LINE",
"11 -5 LINE",
"153 661 LINE"
);
},
{
closed = 1;
nodes = (
"429 627 LINE",
"291 437 LINE",
"228 485 LINE",
"295 571 LINE",
"257 595 LINE",
"350 682 LINE"
);
}
);
width = 316;
}
);
unicode = 013E;
},
{
glyphname = lslash;
layers = (
{
layerId = master01;
paths = (
{
closed = 1;
nodes = (
"198 310 LINE",
"135 12 LINE",
"35 -5 LINE",
"89 248 LINE",
"53 228 LINE",
"14 310 LINE",
"114 365 LINE",
"177 661 LINE",
"277 679 LINE",
"223 425 LINE",
"262 447 LINE",
"296 365 LINE"
);
}
);
userData = {
com.fontlab.hintData = {
vhints = (
{
position = 14;
width = 282;
}
);
};
};
width = 292;
}
);
unicode = 0142;
},
{
glyphname = m;
layers = (
{
layerId = master01;
paths = (
{
closed = 1;
nodes = (
"169 278 OFFCURVE",
"164 262 OFFCURVE",
"164 262 CURVE",
"111 12 LINE",
"11 -5 LINE",
"115 480 LINE",
"214 497 LINE",
"197 417 LINE",
"255 471 OFFCURVE",
"313 510 OFFCURVE",
"369 510 CURVE SMOOTH",
"416 510 OFFCURVE",
"464 495 OFFCURVE",
"479 432 CURVE",
"533 479 OFFCURVE",
"598 510 OFFCURVE",
"644 510 CURVE SMOOTH",
"698 510 OFFCURVE",
"758 487 OFFCURVE",
"758 390 CURVE SMOOTH",
"758 370 OFFCURVE",
"756 346 OFFCURVE",
"750 319 CURVE SMOOTH",
"685 12 LINE",
"584 -5 LINE",
"655 326 LINE SMOOTH",
"658 342 OFFCURVE",
"660 355 OFFCURVE",
"660 366 CURVE SMOOTH",
"660 414 OFFCURVE",
"632 420 OFFCURVE",
"615 420 CURVE SMOOTH",
"572 420 OFFCURVE",
"484 358 OFFCURVE",
"465 269 CURVE SMOOTH",
"410 12 LINE",
"309 -5 LINE",
"380 326 LINE SMOOTH",
"383 342 OFFCURVE",
"385 355 OFFCURVE",
"385 366 CURVE SMOOTH",
"385 414 OFFCURVE",
"357 420 OFFCURVE",
"340 420 CURVE SMOOTH",
"308 420 OFFCURVE",
"253 381 OFFCURVE",
"178 289 CURVE SMOOTH"
);
}
);
userData = {
com.fontlab.hintData = {
hhints = (
{
position = 420;
width = 90;
}
);
vhints = (
{
position = 660;
width = 98;
}
);
};
};
width = 843;
}
);
unicode = 006D;
},
{
glyphname = n;
layers = (
{
layerId = master01;
paths = (
{
closed = 1;
nodes = (
"359 157 LINE SMOOTH",
"377 239 OFFCURVE",
"389 300 OFFCURVE",
"389 343 CURVE SMOOTH",
"389 380 OFFCURVE",
"379 406 OFFCURVE",
"351 406 CURVE SMOOTH",
"319 406 OFFCURVE",
"275 394 OFFCURVE",
"217 319 CURVE",
"179 266 OFFCURVE",
"144 193 OFFCURVE",
"131 135 CURVE SMOOTH",
"104 13 LINE",
"5 -5 LINE",
"110 489 LINE",
"210 507 LINE",
"189 408 LINE",
"240 464 OFFCURVE",
"307 501 OFFCURVE",
"373 501 CURVE SMOOTH",
"446.268 501 OFFCURVE",
"487.04 461.257 OFFCURVE",
"487.04 381.183 CURVE SMOOTH",
"487.04 321.878 OFFCURVE",
"469.363 245.76 OFFCURVE",
"446 127 CURVE SMOOTH",
"424 15 LINE",
"324 -5 LINE"
);
}
);
userData = {
com.fontlab.hintData = {
hhints = (
{
position = 406;
width = 95;
}
);
vhints = (
{
position = 389;
width = 98;
}
);
};
};
width = 562;
}
);
unicode = 006E;
},
{
glyphname = nacute;
layers = (
{
layerId = master01;
paths = (
{
closed = 1;
nodes = (
"446 731 LINE",
"514 658 LINE",
"303 540 LINE",
"245 600 LINE"
);
},
{
closed = 1;
nodes = (
"359 157 LINE SMOOTH",
"377 239 OFFCURVE",
"389 300 OFFCURVE",
"389 343 CURVE SMOOTH",
"389 380 OFFCURVE",
"379 406 OFFCURVE",
"351 406 CURVE SMOOTH",
"319 406 OFFCURVE",
"275 394 OFFCURVE",
"217 319 CURVE",
"179 266 OFFCURVE",
"144 193 OFFCURVE",
"131 135 CURVE SMOOTH",
"104 13 LINE",
"5 -5 LINE",
"110 489 LINE",
"210 507 LINE",
"189 408 LINE",
"240 464 OFFCURVE",
"307 501 OFFCURVE",
"373 501 CURVE SMOOTH",
"446.268 501 OFFCURVE",
"487.04 461.257 OFFCURVE",
"487.04 381.183 CURVE SMOOTH",
"487.04 321.878 OFFCURVE",
"469.363 245.76 OFFCURVE",
"446 127 CURVE SMOOTH",
"424 15 LINE",
"324 -5 LINE"
);
}
);
userData = {
com.fontlab.hintData = {
hhints = (
{
position = 406;
width = 95;
}
);
vhints = (
{
position = 389;
width = 98;
}
);
};
};
width = 562;
}
);
unicode = 0144;
},
{
glyphname = ncaron;
layers = (
{
layerId = master01;
paths = (
{
closed = 1;
nodes = (
"536 652 LINE",
"341 532 LINE",
"219 657 LINE",
"297 722 LINE",
"368 639 LINE",
"494 722 LINE"
);
},
{
closed = 1;
nodes = (
"359 157 LINE SMOOTH",
"377 239 OFFCURVE",
"389 300 OFFCURVE",
"389 343 CURVE SMOOTH",
"389 380 OFFCURVE",
"379 406 OFFCURVE",
"351 406 CURVE SMOOTH",
"319 406 OFFCURVE",
"275 394 OFFCURVE",
"217 319 CURVE",
"179 266 OFFCURVE",
"144 193 OFFCURVE",
"131 135 CURVE SMOOTH",
"104 13 LINE",
"5 -5 LINE",
"110 489 LINE",
"210 507 LINE",
"189 408 LINE",
"240 464 OFFCURVE",
"307 501 OFFCURVE",
"373 501 CURVE SMOOTH",
"446.268 501 OFFCURVE",
"487.04 461.257 OFFCURVE",
"487.04 381.183 CURVE SMOOTH",
"487.04 321.878 OFFCURVE",
"469.363 245.76 OFFCURVE",
"446 127 CURVE SMOOTH",
"424 15 LINE",
"324 -5 LINE"
);
}
);
userData = {
com.fontlab.hintData = {
hhints = (
{
position = 406;
width = 95;
}
);
vhints = (
{
position = 389;
width = 98;
}
);
};
};
width = 562;
}
);
unicode = 0148;
},
{
glyphname = ntilde;
layers = (
{
layerId = master01;
paths = (
{
closed = 1;
nodes = (
"359 157 LINE SMOOTH",
"377 239 OFFCURVE",
"389 300 OFFCURVE",
"389 343 CURVE SMOOTH",
"389 380 OFFCURVE",
"379 406 OFFCURVE",
"351 406 CURVE SMOOTH",
"319 406 OFFCURVE",
"275 394 OFFCURVE",
"217 319 CURVE",
"179 266 OFFCURVE",
"144 193 OFFCURVE",
"131 135 CURVE SMOOTH",
"104 13 LINE",
"5 -5 LINE",
"110 489 LINE",
"210 507 LINE",
"189 408 LINE",
"240 464 OFFCURVE",
"307 501 OFFCURVE",
"373 501 CURVE SMOOTH",
"446.268 501 OFFCURVE",
"487.04 461.257 OFFCURVE",
"487.04 381.183 CURVE SMOOTH",
"487.04 321.878 OFFCURVE",
"469.363 245.76 OFFCURVE",
"446 127 CURVE SMOOTH",
"424 15 LINE",
"324 -5 LINE"
);
},
{
closed = 1;
nodes = (
"573 669 LINE",
"555 638 OFFCURVE",
"499 536 OFFCURVE",
"398 536 CURVE SMOOTH",
"366 536 OFFCURVE",
"343 553 OFFCURVE",
"328 584 CURVE SMOOTH",
"316 607 OFFCURVE",
"308 619 OFFCURVE",
"293 619 CURVE SMOOTH",
"258 619 OFFCURVE",
"226 563 OFFCURVE",
"222 551 CURVE",
"164 584 LINE",
"191 640 OFFCURVE",
"246 708 OFFCURVE",
"324 708 CURVE SMOOTH",
"365 708 OFFCURVE",
"385 691 OFFCURVE",
"401 658 CURVE SMOOTH",
"410 639 OFFCURVE",
"422 624 OFFCURVE",
"435 624 CURVE SMOOTH",
"456 624 OFFCURVE",
"487 647 OFFCURVE",
"512 701 CURVE"
);
}
);
userData = {
com.fontlab.hintData = {
hhints = (
{
position = 406;
width = 95;
},
{
position = 536;
width = 88;
},
{
position = 619;
width = 89;
}
);
vhints = (
{
position = 389;
width = 98;
}
);
};
};
width = 562;
}
);
unicode = 00F1;
},
{
glyphname = o;
layers = (
{
layerId = master01;
paths = (
{
closed = 1;
nodes = (
"99 0 OFFCURVE",
"36 76 OFFCURVE",
"36 177 CURVE SMOOTH",
"36 344 OFFCURVE",
"193 500 OFFCURVE",
"333 500 CURVE SMOOTH",
"432 500 OFFCURVE",
"496 422 OFFCURVE",
"496 322 CURVE SMOOTH",
"496 154 OFFCURVE",
"339 0 OFFCURVE",
"199 0 CURVE SMOOTH"
);
},
{
closed = 1;
nodes = (
"228 411 OFFCURVE",
"135 302 OFFCURVE",
"135 193 CURVE SMOOTH",
"135 134 OFFCURVE",
"164 89 OFFCURVE",
"217 89 CURVE SMOOTH",
"296 89 OFFCURVE",
"396 193 OFFCURVE",
"396 301 CURVE SMOOTH",
"396 363 OFFCURVE",
"363 411 OFFCURVE",
"310 411 CURVE SMOOTH"
);
}
);
userData = {
com.fontlab.hintData = {
hhints = (
{
position = 0;
width = 89;
},
{
position = 411;
width = 89;
}
);
vhints = (
{
position = 36;
width = 99;
},
{
position = 396;
width = 100;
}
);
};
};
width = 561;
}
);
unicode = 006F;
},
{
glyphname = oacute;
layers = (
{
layerId = master01;
paths = (
{
closed = 1;
nodes = (
"456 731 LINE",
"524 658 LINE",
"313 540 LINE",
"255 600 LINE"
);
},
{
closed = 1;
nodes = (
"99 0 OFFCURVE",
"36 76 OFFCURVE",
"36 177 CURVE SMOOTH",
"36 344 OFFCURVE",
"193 500 OFFCURVE",
"333 500 CURVE SMOOTH",
"432 500 OFFCURVE",
"496 422 OFFCURVE",
"496 322 CURVE SMOOTH",
"496 154 OFFCURVE",
"339 0 OFFCURVE",
"199 0 CURVE SMOOTH"
);
},
{
closed = 1;
nodes = (
"228 411 OFFCURVE",
"135 302 OFFCURVE",
"135 193 CURVE SMOOTH",
"135 134 OFFCURVE",
"164 89 OFFCURVE",
"217 89 CURVE SMOOTH",
"296 89 OFFCURVE",
"396 193 OFFCURVE",
"396 301 CURVE SMOOTH",
"396 363 OFFCURVE",
"363 411 OFFCURVE",
"310 411 CURVE SMOOTH"
);
}
);
userData = {
com.fontlab.hintData = {
hhints = (
{
position = 0;
width = 89;
},
{
position = 411;
width = 89;
}
);
vhints = (
{
position = 36;
width = 99;
},
{
position = 396;
width = 100;
}
);
};
};
width = 561;
}
);
unicode = 00F3;
},
{
glyphname = ocircumflex;
layers = (
{
layerId = master01;
paths = (
{
closed = 1;
nodes = (
"198 585 LINE",
"396 720 LINE",
"514 580 LINE",
"437 521 LINE",
"364 602 LINE",
"242 520 LINE"
);
},
{
closed = 1;
nodes = (
"99 0 OFFCURVE",
"36 76 OFFCURVE",
"36 177 CURVE SMOOTH",
"36 344 OFFCURVE",
"193 500 OFFCURVE",
"333 500 CURVE SMOOTH",
"432 500 OFFCURVE",
"496 422 OFFCURVE",
"496 322 CURVE SMOOTH",
"496 154 OFFCURVE",
"339 0 OFFCURVE",
"199 0 CURVE SMOOTH"
);
},
{
closed = 1;
nodes = (
"228 411 OFFCURVE",
"135 302 OFFCURVE",
"135 193 CURVE SMOOTH",
"135 134 OFFCURVE",
"164 89 OFFCURVE",
"217 89 CURVE SMOOTH",
"296 89 OFFCURVE",
"396 193 OFFCURVE",
"396 301 CURVE SMOOTH",
"396 363 OFFCURVE",
"363 411 OFFCURVE",
"310 411 CURVE SMOOTH"
);
}
);
userData = {
com.fontlab.hintData = {
hhints = (
{
position = 0;
width = 89;
},
{
position = 411;
width = 89;
}
);
vhints = (
{
position = 36;
width = 99;
},
{
position = 396;
width = 100;
}
);
};
};
width = 561;
}
);
unicode = 00F4;
},
{
glyphname = odieresis;
layers = (
{
layerId = master01;
paths = (
{
closed = 1;
nodes = (
"325 561 LINE",
"207 546 LINE",
"244 658 LINE",
"359 672 LINE"
);
},
{
closed = 1;
nodes = (
"490 561 LINE",
"373 546 LINE",
"409 658 LINE",
"525 672 LINE"
);
},
{
closed = 1;
nodes = (
"99 0 OFFCURVE",
"36 76 OFFCURVE",
"36 177 CURVE SMOOTH",
"36 344 OFFCURVE",
"193 500 OFFCURVE",
"333 500 CURVE SMOOTH",
"432 500 OFFCURVE",
"496 422 OFFCURVE",
"496 322 CURVE SMOOTH",
"496 154 OFFCURVE",
"339 0 OFFCURVE",
"199 0 CURVE SMOOTH"
);
},
{
closed = 1;
nodes = (
"228 411 OFFCURVE",
"135 302 OFFCURVE",
"135 193 CURVE SMOOTH",
"135 134 OFFCURVE",
"164 89 OFFCURVE",
"217 89 CURVE SMOOTH",
"296 89 OFFCURVE",
"396 193 OFFCURVE",
"396 301 CURVE SMOOTH",
"396 363 OFFCURVE",
"363 411 OFFCURVE",
"310 411 CURVE SMOOTH"
);
}
);
userData = {
com.fontlab.hintData = {
hhints = (
{
position = 0;
width = 89;
},
{
position = 411;
width = 89;
}
);
vhints = (
{
position = 36;
width = 99;
},
{
position = 396;
width = 100;
}
);
};
};
width = 561;
}
);
unicode = 00F6;
},
{
glyphname = ograve;
layers = (
{
layerId = master01;
paths = (
{
closed = 1;
nodes = (
"371 530 LINE",
"242 682 LINE",
"352 737 LINE",
"463 579 LINE"
);
},
{
closed = 1;
nodes = (
"99 0 OFFCURVE",
"36 76 OFFCURVE",
"36 177 CURVE SMOOTH",
"36 344 OFFCURVE",
"193 500 OFFCURVE",
"333 500 CURVE SMOOTH",
"432 500 OFFCURVE",
"496 422 OFFCURVE",
"496 322 CURVE SMOOTH",
"496 154 OFFCURVE",
"339 0 OFFCURVE",
"199 0 CURVE SMOOTH"
);
},
{
closed = 1;
nodes = (
"228 411 OFFCURVE",
"135 302 OFFCURVE",
"135 193 CURVE SMOOTH",
"135 134 OFFCURVE",
"164 89 OFFCURVE",
"217 89 CURVE SMOOTH",
"296 89 OFFCURVE",
"396 193 OFFCURVE",
"396 301 CURVE SMOOTH",
"396 363 OFFCURVE",
"363 411 OFFCURVE",
"310 411 CURVE SMOOTH"
);
}
);
userData = {
com.fontlab.hintData = {
hhints = (
{
position = 0;
width = 89;
},
{
position = 411;
width = 89;
}
);
vhints = (
{
position = 36;
width = 99;
},
{
position = 396;
width = 100;
}
);
};
};
width = 561;
}
);
unicode = 00F2;
},
{
glyphname = ohungarumlaut;
layers = (
{
layerId = master01;
paths = (
{
closed = 1;
nodes = (
"100 0 OFFCURVE",
"37 76 OFFCURVE",
"37 177 CURVE SMOOTH",
"37 344 OFFCURVE",
"194 500 OFFCURVE",
"334 500 CURVE SMOOTH",
"433 500 OFFCURVE",
"497 422 OFFCURVE",
"497 322 CURVE SMOOTH",
"497 154 OFFCURVE",
"339 0 OFFCURVE",
"200 0 CURVE SMOOTH"
);
},
{
closed = 1;
nodes = (
"229 411 OFFCURVE",
"136 302 OFFCURVE",
"136 193 CURVE SMOOTH",
"136 134 OFFCURVE",
"165 89 OFFCURVE",
"218 89 CURVE SMOOTH",
"297 89 OFFCURVE",
"396 193 OFFCURVE",
"396 301 CURVE SMOOTH",
"396 363 OFFCURVE",
"363 411 OFFCURVE",
"311 411 CURVE SMOOTH"
);
},
{
closed = 1;
nodes = (
"361 731 LINE",
"421 656 LINE",
"215 535 LINE",
"155 597 LINE"
);
},
{
closed = 1;
nodes = (
"580 731 LINE",
"641 656 LINE",
"424 535 LINE",
"374 597 LINE"
);
}
);
userData = {
com.fontlab.hintData = {
hhints = (
{
position = 0;
width = 89;
},
{
position = 411;
width = 89;
}
);
vhints = (
{
position = 37;
width = 99;
},
{
position = 396;
width = 101;
}
);
};
};
width = 581;
}
);
unicode = 0151;
},
{
glyphname = oslash;
layers = (
{
layerId = master01;
paths = (
{
closed = 1;
nodes = (
"462 437 LINE",
"485 407 OFFCURVE",
"496 366 OFFCURVE",
"496 323 CURVE SMOOTH",
"496 154 OFFCURVE",
"340 0 OFFCURVE",
"199 0 CURVE SMOOTH",
"173 0 OFFCURVE",
"148 5 OFFCURVE",
"126 15 CURVE",
"82 -40 LINE",
"11 6 LINE",
"63 70 LINE",
"44 98 OFFCURVE",
"35 132 OFFCURVE",
"35 170 CURVE SMOOTH",
"35 339 OFFCURVE",
"188 500 OFFCURVE",
"333 500 CURVE SMOOTH",
"355 500 OFFCURVE",
"376 497 OFFCURVE",
"396 488 CURVE",
"444 549 LINE",
"514 503 LINE"
);
},
{
closed = 1;
nodes = (
"332 408 LINE",
"325 410 OFFCURVE",
"316 411 OFFCURVE",
"310 411 CURVE SMOOTH",
"226 411 OFFCURVE",
"135 300 OFFCURVE",
"135 188 CURVE SMOOTH",
"135 180 OFFCURVE",
"135 171 OFFCURVE",
"136 163 CURVE"
);
},
{
closed = 1;
nodes = (
"311 89 OFFCURVE",
"395 210 OFFCURVE",
"395 302 CURVE SMOOTH",
"395 317 OFFCURVE",
"393 332 OFFCURVE",
"390 346 CURVE",
"188 94 LINE",
"198 90 OFFCURVE",
"206 89 OFFCURVE",
"217 89 CURVE SMOOTH"
);
}
);
userData = {
com.fontlab.hintData = {
hhints = (
{
position = 0;
width = 89;
},
{
position = 411;
width = 89;
}
);
vhints = (
{
position = 35;
width = 100;
},
{
position = 395;
width = 101;
}
);
};
};
width = 561;
}
);
unicode = 00F8;
},
{
glyphname = otilde;
layers = (
{
layerId = master01;
paths = (
{
closed = 1;
nodes = (
"99 0 OFFCURVE",
"36 76 OFFCURVE",
"36 177 CURVE SMOOTH",
"36 344 OFFCURVE",
"193 500 OFFCURVE",
"333 500 CURVE SMOOTH",
"432 500 OFFCURVE",
"496 422 OFFCURVE",
"496 322 CURVE SMOOTH",
"496 154 OFFCURVE",
"339 0 OFFCURVE",
"199 0 CURVE SMOOTH"
);
},
{
closed = 1;
nodes = (
"228 411 OFFCURVE",
"135 302 OFFCURVE",
"135 193 CURVE SMOOTH",
"135 134 OFFCURVE",
"164 89 OFFCURVE",
"217 89 CURVE SMOOTH",
"296 89 OFFCURVE",
"396 193 OFFCURVE",
"396 301 CURVE SMOOTH",
"396 363 OFFCURVE",
"363 411 OFFCURVE",
"310 411 CURVE SMOOTH"
);
},
{
closed = 1;
nodes = (
"569 669 LINE",
"551 638 OFFCURVE",
"495 536 OFFCURVE",
"394 536 CURVE SMOOTH",
"362 536 OFFCURVE",
"339 553 OFFCURVE",
"324 584 CURVE SMOOTH",
"312 607 OFFCURVE",
"304 619 OFFCURVE",
"289 619 CURVE SMOOTH",
"254 619 OFFCURVE",
"222 563 OFFCURVE",
"218 551 CURVE",
"160 584 LINE",
"187 640 OFFCURVE",
"242 708 OFFCURVE",
"320 708 CURVE SMOOTH",
"361 708 OFFCURVE",
"381 691 OFFCURVE",
"397 658 CURVE SMOOTH",
"406 639 OFFCURVE",
"418 624 OFFCURVE",
"431 624 CURVE SMOOTH",
"452 624 OFFCURVE",
"483 647 OFFCURVE",
"508 701 CURVE"
);
}
);
userData = {
com.fontlab.hintData = {
hhints = (
{
position = 0;
width = 89;
},
{
position = 411;
width = 89;
},
{
position = 536;
width = 88;
},
{
position = 619;
width = 89;
}
);
vhints = (
{
position = 36;
width = 99;
},
{
position = 396;
width = 100;
}
);
};
};
width = 561;
}
);
unicode = 00F5;
},
{
glyphname = oe;
layers = (
{
layerId = master01;
paths = (
{
closed = 1;
nodes = (
"653 92 OFFCURVE",
"701 115 OFFCURVE",
"749 156 CURVE",
"801 93 LINE",
"733 33 OFFCURVE",
"658 0 OFFCURVE",
"593 0 CURVE SMOOTH",
"511 0 OFFCURVE",
"448 43 OFFCURVE",
"416 107 CURVE",
"360 43 OFFCURVE",
"283 0 OFFCURVE",
"208 0 CURVE SMOOTH",
"107 0 OFFCURVE",
"44 76 OFFCURVE",
"44 177 CURVE SMOOTH",
"44 344 OFFCURVE",
"202 500 OFFCURVE",
"342 500 CURVE SMOOTH",
"409 500 OFFCURVE",
"463 467 OFFCURVE",
"488 406 CURVE",
"544 465 OFFCURVE",
"620 502 OFFCURVE",
"699 502 CURVE SMOOTH",
"778 502 OFFCURVE",
"842 427 OFFCURVE",
"849 338 CURVE",
"849 338 OFFCURVE",
"611 212 OFFCURVE",
"503 158 CURVE",
"522 122 OFFCURVE",
"564 92 OFFCURVE",
"612 92 CURVE SMOOTH"
);
},
{
closed = 1;
nodes = (
"319 89 OFFCURVE",
"404 212 OFFCURVE",
"404 301 CURVE SMOOTH",
"404 363 OFFCURVE",
"371 411 OFFCURVE",
"318 411 CURVE SMOOTH",
"237 411 OFFCURVE",
"143 302 OFFCURVE",
"143 192 CURVE SMOOTH",
"143 134 OFFCURVE",
"172 89 OFFCURVE",
"226 89 CURVE SMOOTH"
);
},
{
closed = 1;
nodes = (
"746 375 LINE",
"732 396 OFFCURVE",
"706 410 OFFCURVE",
"680 410 CURVE SMOOTH",
"590 410 OFFCURVE",
"512 334 OFFCURVE",
"494 247 CURVE"
);
}
);
userData = {
com.fontlab.hintData = {
hhints = (
{
position = 0;
width = 92;
},
{
position = 411;
width = 89;
}
);
vhints = (
{
position = 44;
width = 99;
}
);
};
};
width = 937;
}
);
unicode = 0153;
},
{
glyphname = p;
layers = (
{
layerId = master01;
paths = (
{
closed = 1;
nodes = (
"443 497 OFFCURVE",
"481 418 OFFCURVE",
"481 336 CURVE SMOOTH",
"481 185 OFFCURVE",
"382 6 OFFCURVE",
"201 6 CURVE SMOOTH",
"165 6 OFFCURVE",
"133 13 OFFCURVE",
"107 22 CURVE",
"68 -164 LINE",
"-33 -180 LINE",
"109 486 LINE",
"210 504 LINE",
"200 458 LINE",
"249 481 OFFCURVE",
"291 497 OFFCURVE",
"355 497 CURVE SMOOTH"
);
},
{
closed = 1;
nodes = (
"326 103 OFFCURVE",
"389 207 OFFCURVE",
"389 313 CURVE SMOOTH",
"389 360 OFFCURVE",
"372 407 OFFCURVE",
"322 407 CURVE SMOOTH",
"252 407 OFFCURVE",
"198 366 OFFCURVE",
"175 343 CURVE",
"129 126 LINE",
"150 117 OFFCURVE",
"187 103 OFFCURVE",
"224 103 CURVE SMOOTH"
);
}
);
userData = {
com.fontlab.hintData = {
hhints = (
{
position = 6;
width = 97;
},
{
position = 407;
width = 90;
}
);
vhints = (
{
position = 389;
width = 92;
}
);
};
};
width = 544;
}
);
unicode = 0070;
},
{
glyphname = thorn;
layers = (
{
layerId = master01;
paths = (
{
closed = 1;
nodes = (
"457 490 OFFCURVE",
"492 418 OFFCURVE",
"492 337 CURVE SMOOTH",
"492 186 OFFCURVE",
"391 0 OFFCURVE",
"206 0 CURVE SMOOTH",
"170 0 OFFCURVE",
"133 7 OFFCURVE",
"106 15 CURVE",
"66 -173 LINE",
"-27 -156 LINE",
"147 660 LINE",
"247 678 LINE",
"198 447 LINE",
"239 472 OFFCURVE",
"294 490 OFFCURVE",
"350 490 CURVE SMOOTH"
);
},
{
closed = 1;
nodes = (
"329 95 OFFCURVE",
"395 205 OFFCURVE",
"395 310 CURVE SMOOTH",
"395 352 OFFCURVE",
"381 394 OFFCURVE",
"332 394 CURVE SMOOTH",
"248 394 OFFCURVE",
"176 346 OFFCURVE",
"163 286 CURVE SMOOTH",
"126 111 LINE",
"146 104 OFFCURVE",
"182 95 OFFCURVE",
"219 95 CURVE SMOOTH"
);
}
);
userData = {
com.fontlab.hintData = {
hhints = (
{
position = 0;
width = 95;
},
{
position = 394;
width = 96;
}
);
vhints = (
{
position = 395;
width = 97;
}
);
};
};
width = 554;
}
);
unicode = 00FE;
},
{
glyphname = q;
layers = (
{
layerId = master01;
paths = (
{
closed = 1;
nodes = (
"386 497 OFFCURVE",
"402 496 OFFCURVE",
"417 494 CURVE",
"421 509 LINE",
"517 507 LINE",
"350 -166 LINE",
"251 -183 LINE",
"299 14 LINE",
"268 -3 OFFCURVE",
"246 -9 OFFCURVE",
"201 -9 CURVE SMOOTH",
"97 -9 OFFCURVE",
"31 63 OFFCURVE",
"31 162 CURVE SMOOTH",
"31 336 OFFCURVE",
"185 497 OFFCURVE",
"372 497 CURVE SMOOTH"
);
},
{
closed = 1;
nodes = (
"396 402 LINE",
"380 404 OFFCURVE",
"366 405 OFFCURVE",
"353 405 CURVE SMOOTH",
"236 405 OFFCURVE",
"125 307 OFFCURVE",
"125 181 CURVE SMOOTH",
"125 123 OFFCURVE",
"162 84 OFFCURVE",
"219 84 CURVE SMOOTH",
"277 84 OFFCURVE",
"325 116 OFFCURVE",
"339 172 CURVE SMOOTH"
);
}
);
userData = {
com.fontlab.hintData = {
hhints = (
{
position = -183;
width = 21;
},
{
position = -9;
width = 93;
},
{
position = 405;
width = 92;
}
);
vhints = (
{
position = 31;
width = 94;
}
);
};
};
width = 549;
}
);
unicode = 0071;
},
{
glyphname = r;
layers = (
{
layerId = master01;
paths = (
{
closed = 1;
nodes = (
"407 356 LINE",
"308 340 LINE",
"315 365 OFFCURVE",
"318 380 OFFCURVE",
"318 390 CURVE SMOOTH",
"318 398 OFFCURVE",
"315 407 OFFCURVE",
"304 407 CURVE SMOOTH",
"249 407 OFFCURVE",
"170 328 OFFCURVE",
"154 252 CURVE SMOOTH",
"103 12 LINE",
"2 -5 LINE",
"107 489 LINE",
"208 507 LINE",
"193 435 LINE",
"234 471 OFFCURVE",
"286 502 OFFCURVE",
"340 502 CURVE SMOOTH",
"389 502 OFFCURVE",
"422 472 OFFCURVE",
"422 431 CURVE SMOOTH",
"422 426 OFFCURVE",
"421 420 OFFCURVE",
"420 415 CURVE SMOOTH"
);
}
);
userData = {
com.fontlab.hintData = {
hhints = (
{
position = 407;
width = 95;
}
);
vhints = (
{
position = 318;
width = 104;
}
);
};
};
width = 427;
}
);
unicode = 0072;
},
{
glyphname = racute;
layers = (
{
layerId = master01;
paths = (
{
closed = 1;
nodes = (
"381 731 LINE",
"449 658 LINE",
"238 540 LINE",
"180 600 LINE"
);
},
{
closed = 1;
nodes = (
"407 356 LINE",
"308 340 LINE",
"315 365 OFFCURVE",
"318 380 OFFCURVE",
"318 390 CURVE SMOOTH",
"318 398 OFFCURVE",
"315 407 OFFCURVE",
"304 407 CURVE SMOOTH",
"249 407 OFFCURVE",
"170 328 OFFCURVE",
"154 252 CURVE SMOOTH",
"103 12 LINE",
"2 -5 LINE",
"107 489 LINE",
"208 507 LINE",
"193 435 LINE",
"234 471 OFFCURVE",
"286 502 OFFCURVE",
"340 502 CURVE SMOOTH",
"389 502 OFFCURVE",
"422 472 OFFCURVE",
"422 431 CURVE SMOOTH",
"422 426 OFFCURVE",
"421 420 OFFCURVE",
"420 415 CURVE SMOOTH"
);
}
);
userData = {
com.fontlab.hintData = {
hhints = (
{
position = 407;
width = 95;
}
);
vhints = (
{
position = 318;
width = 104;
}
);
};
};
width = 427;
}
);
unicode = 0155;
},
{
glyphname = rcaron;
layers = (
{
layerId = master01;
paths = (
{
closed = 1;
nodes = (
"480 652 LINE",
"285 532 LINE",
"163 657 LINE",
"240 722 LINE",
"311 639 LINE",
"438 722 LINE"
);
},
{
closed = 1;
nodes = (
"407 356 LINE",
"308 340 LINE",
"315 365 OFFCURVE",
"318 380 OFFCURVE",
"318 390 CURVE SMOOTH",
"318 398 OFFCURVE",
"315 407 OFFCURVE",
"304 407 CURVE SMOOTH",
"249 407 OFFCURVE",
"170 328 OFFCURVE",
"154 252 CURVE SMOOTH",
"103 12 LINE",
"2 -5 LINE",
"107 489 LINE",
"208 507 LINE",
"193 435 LINE",
"234 471 OFFCURVE",
"286 502 OFFCURVE",
"340 502 CURVE SMOOTH",
"389 502 OFFCURVE",
"422 472 OFFCURVE",
"422 431 CURVE SMOOTH",
"422 426 OFFCURVE",
"421 420 OFFCURVE",
"420 415 CURVE SMOOTH"
);
}
);
userData = {
com.fontlab.hintData = {
hhints = (
{
position = 407;
width = 95;
}
);
vhints = (
{
position = 318;
width = 104;
}
);
};
};
width = 428;
}
);
unicode = 0159;
},
{
glyphname = s;
layers = (
{
layerId = master01;
paths = (
{
closed = 1;
nodes = (
"157 237 OFFCURVE",
"90 268 OFFCURVE",
"90 338 CURVE SMOOTH",
"90 473 OFFCURVE",
"233 505 OFFCURVE",
"287 505 CURVE SMOOTH",
"366 505 OFFCURVE",
"445 488 OFFCURVE",
"445 410 CURVE SMOOTH",
"445 394 OFFCURVE",
"443 374 OFFCURVE",
"430 347 CURVE",
"333 329 LINE",
"350 357 OFFCURVE",
"351 375 OFFCURVE",
"351 380 CURVE SMOOTH",
"351 407 OFFCURVE",
"316 417 OFFCURVE",
"287 417 CURVE SMOOTH",
"217 417 OFFCURVE",
"190 386 OFFCURVE",
"190 360 CURVE SMOOTH",
"190 338 OFFCURVE",
"215 324 OFFCURVE",
"263 310 CURVE SMOOTH",
"354 283 OFFCURVE",
"398 242 OFFCURVE",
"398 184 CURVE SMOOTH",
"398 38 OFFCURVE",
"238 0 OFFCURVE",
"181 0 CURVE SMOOTH",
"96 0 OFFCURVE",
"23 55 OFFCURVE",
"17 151 CURVE",
"114 167 LINE",
"119 116 OFFCURVE",
"158 91 OFFCURVE",
"200 91 CURVE SMOOTH",
"259 91 OFFCURVE",
"299 122 OFFCURVE",
"299 156 CURVE SMOOTH",
"299 189 OFFCURVE",
"264 206 OFFCURVE",
"221 219 CURVE SMOOTH"
);
}
);
userData = {
com.fontlab.hintData = {
hhints = (
{
position = 0;
width = 91;
},
{
position = 417;
width = 88;
}
);
vhints = (
{
position = 90;
width = 100;
},
{
position = 299;
width = 99;
},
{
position = 351;
width = 94;
}
);
};
};
width = 486;
}
);
unicode = 0073;
},
{
glyphname = sacute;
layers = (
{
layerId = master01;
paths = (
{
closed = 1;
nodes = (
"402 731 LINE",
"471 658 LINE",
"260 540 LINE",
"202 600 LINE"
);
},
{
closed = 1;
nodes = (
"157 237 OFFCURVE",
"90 268 OFFCURVE",
"90 338 CURVE SMOOTH",
"90 473 OFFCURVE",
"233 505 OFFCURVE",
"287 505 CURVE SMOOTH",
"366 505 OFFCURVE",
"445 488 OFFCURVE",
"445 410 CURVE SMOOTH",
"445 394 OFFCURVE",
"443 374 OFFCURVE",
"430 347 CURVE",
"333 329 LINE",
"350 357 OFFCURVE",
"351 375 OFFCURVE",
"351 380 CURVE SMOOTH",
"351 407 OFFCURVE",
"316 417 OFFCURVE",
"287 417 CURVE SMOOTH",
"217 417 OFFCURVE",
"190 386 OFFCURVE",
"190 360 CURVE SMOOTH",
"190 338 OFFCURVE",
"215 324 OFFCURVE",
"263 310 CURVE SMOOTH",
"354 283 OFFCURVE",
"398 242 OFFCURVE",
"398 184 CURVE SMOOTH",
"398 38 OFFCURVE",
"238 0 OFFCURVE",
"181 0 CURVE SMOOTH",
"96 0 OFFCURVE",
"23 55 OFFCURVE",
"17 151 CURVE",
"114 167 LINE",
"119 116 OFFCURVE",
"158 91 OFFCURVE",
"200 91 CURVE SMOOTH",
"259 91 OFFCURVE",
"299 122 OFFCURVE",
"299 156 CURVE SMOOTH",
"299 189 OFFCURVE",
"264 206 OFFCURVE",
"221 219 CURVE SMOOTH"
);
}
);
userData = {
com.fontlab.hintData = {
hhints = (
{
position = 0;
width = 91;
},
{
position = 417;
width = 88;
}
);
vhints = (
{
position = 90;
width = 100;
},
{
position = 299;
width = 99;
},
{
position = 351;
width = 94;
}
);
};
};
width = 486;
}
);
unicode = 015B;
},
{
glyphname = scaron;
layers = (
{
layerId = master01;
paths = (
{
closed = 1;
nodes = (
"495 657 LINE",
"299 532 LINE",
"177 662 LINE",
"256 732 LINE",
"327 649 LINE",
"453 732 LINE"
);
},
{
closed = 1;
nodes = (
"157 237 OFFCURVE",
"90 268 OFFCURVE",
"90 338 CURVE SMOOTH",
"90 473 OFFCURVE",
"233 505 OFFCURVE",
"287 505 CURVE SMOOTH",
"366 505 OFFCURVE",
"445 488 OFFCURVE",
"445 410 CURVE SMOOTH",
"445 394 OFFCURVE",
"443 374 OFFCURVE",
"430 347 CURVE",
"333 329 LINE",
"350 357 OFFCURVE",
"351 375 OFFCURVE",
"351 380 CURVE SMOOTH",
"351 407 OFFCURVE",
"316 417 OFFCURVE",
"287 417 CURVE SMOOTH",
"217 417 OFFCURVE",
"190 386 OFFCURVE",
"190 360 CURVE SMOOTH",
"190 338 OFFCURVE",
"215 324 OFFCURVE",
"263 310 CURVE SMOOTH",
"354 283 OFFCURVE",
"398 242 OFFCURVE",
"398 184 CURVE SMOOTH",
"398 38 OFFCURVE",
"238 0 OFFCURVE",
"181 0 CURVE SMOOTH",
"96 0 OFFCURVE",
"23 55 OFFCURVE",
"17 151 CURVE",
"114 167 LINE",
"119 116 OFFCURVE",
"158 91 OFFCURVE",
"200 91 CURVE SMOOTH",
"259 91 OFFCURVE",
"299 122 OFFCURVE",
"299 156 CURVE SMOOTH",
"299 189 OFFCURVE",
"264 206 OFFCURVE",
"221 219 CURVE SMOOTH"
);
}
);
userData = {
com.fontlab.hintData = {
hhints = (
{
position = 0;
width = 91;
},
{
position = 417;
width = 88;
}
);
vhints = (
{
position = 90;
width = 100;
},
{
position = 299;
width = 99;
},
{
position = 351;
width = 94;
}
);
};
};
width = 486;
}
);
unicode = 0161;
},
{
glyphname = scedilla;
layers = (
{
layerId = master01;
paths = (
{
closed = 1;
nodes = (
"157 237 OFFCURVE",
"90 268 OFFCURVE",
"90 338 CURVE SMOOTH",
"90 473 OFFCURVE",
"233 505 OFFCURVE",
"287 505 CURVE SMOOTH",
"366 505 OFFCURVE",
"445 488 OFFCURVE",
"445 410 CURVE SMOOTH",
"445 394 OFFCURVE",
"443 374 OFFCURVE",
"430 347 CURVE",
"333 329 LINE",
"350 357 OFFCURVE",
"351 375 OFFCURVE",
"351 380 CURVE SMOOTH",
"351 407 OFFCURVE",
"316 417 OFFCURVE",
"287 417 CURVE SMOOTH",
"217 417 OFFCURVE",
"190 386 OFFCURVE",
"190 360 CURVE SMOOTH",
"190 338 OFFCURVE",
"215 324 OFFCURVE",
"263 310 CURVE SMOOTH",
"354 283 OFFCURVE",
"398 242 OFFCURVE",
"398 184 CURVE SMOOTH",
"398 46 OFFCURVE",
"256 5 OFFCURVE",
"192 0 CURVE",
"193 0 LINE",
"184 -33 LINE",
"229 -37 OFFCURVE",
"260 -54 OFFCURVE",
"260 -94 CURVE SMOOTH",
"260 -159 OFFCURVE",
"204 -196 OFFCURVE",
"146 -196 CURVE SMOOTH",
"115 -196 OFFCURVE",
"95 -186 OFFCURVE",
"78 -157 CURVE",
"129 -123 LINE",
"133 -132 OFFCURVE",
"144 -139 OFFCURVE",
"158 -139 CURVE SMOOTH",
"175 -139 OFFCURVE",
"191 -128 OFFCURVE",
"191 -110 CURVE SMOOTH",
"191 -97 OFFCURVE",
"182 -90 OFFCURVE",
"164 -90 CURVE SMOOTH",
"157 -90 OFFCURVE",
"146 -93 OFFCURVE",
"140 -98 CURVE",
"107 -54 LINE",
"139 4 LINE",
"70 19 OFFCURVE",
"23 77 OFFCURVE",
"17 151 CURVE",
"114 167 LINE",
"119 116 OFFCURVE",
"158 91 OFFCURVE",
"200 91 CURVE SMOOTH",
"259 91 OFFCURVE",
"299 122 OFFCURVE",
"299 156 CURVE SMOOTH",
"299 189 OFFCURVE",
"264 206 OFFCURVE",
"221 219 CURVE SMOOTH"
);
}
);
userData = {
com.fontlab.hintData = {
hhints = (
{
position = -196;
width = 57;
},
{
position = 417;
width = 88;
}
);
vhints = (
{
position = 90;
width = 100;
},
{
position = 191;
width = 69;
},
{
position = 299;
width = 99;
},
{
position = 351;
width = 94;
}
);
};
};
width = 486;
}
);
unicode = 015F;
},
{
glyphname = scircumflex;
layers = (
{
layerId = master01;
paths = (
{
closed = 1;
nodes = (
"157 237 OFFCURVE",
"90 268 OFFCURVE",
"90 338 CURVE SMOOTH",
"90 473 OFFCURVE",
"233 505 OFFCURVE",
"287 505 CURVE SMOOTH",
"366 505 OFFCURVE",
"445 488 OFFCURVE",
"445 410 CURVE SMOOTH",
"445 394 OFFCURVE",
"443 374 OFFCURVE",
"430 347 CURVE",
"333 329 LINE",
"350 357 OFFCURVE",
"351 375 OFFCURVE",
"351 380 CURVE SMOOTH",
"351 407 OFFCURVE",
"316 417 OFFCURVE",
"287 417 CURVE SMOOTH",
"217 417 OFFCURVE",
"190 386 OFFCURVE",
"190 360 CURVE SMOOTH",
"190 338 OFFCURVE",
"215 324 OFFCURVE",
"263 310 CURVE SMOOTH",
"354 283 OFFCURVE",
"398 242 OFFCURVE",
"398 184 CURVE SMOOTH",
"398 38 OFFCURVE",
"238 0 OFFCURVE",
"181 0 CURVE SMOOTH",
"96 0 OFFCURVE",
"23 55 OFFCURVE",
"17 151 CURVE",
"114 167 LINE",
"119 116 OFFCURVE",
"158 91 OFFCURVE",
"200 91 CURVE SMOOTH",
"259 91 OFFCURVE",
"299 122 OFFCURVE",
"299 156 CURVE SMOOTH",
"299 189 OFFCURVE",
"264 206 OFFCURVE",
"221 219 CURVE SMOOTH"
);
},
{
closed = 1;
nodes = (
"159 585 LINE",
"359 720 LINE",
"477 580 LINE",
"400 521 LINE",
"327 602 LINE",
"204 520 LINE"
);
}
);
userData = {
com.fontlab.hintData = {
hhints = (
{
position = 0;
width = 91;
},
{
position = 417;
width = 88;
}
);
vhints = (
{
position = 90;
width = 100;
},
{
position = 299;
width = 99;
},
{
position = 351;
width = 94;
}
);
};
};
width = 486;
}
);
unicode = 015D;
},
{
glyphname = germandbls;
layers = (
{
layerId = master01;
paths = (
{
closed = 1;
nodes = (
"457 444 OFFCURVE",
"434 390 OFFCURVE",
"392 360 CURVE",
"443 337 OFFCURVE",
"477 292 OFFCURVE",
"477 227 CURVE SMOOTH",
"477 101 OFFCURVE",
"364 -22 OFFCURVE",
"237 -22 CURVE SMOOTH",
"203 -22 OFFCURVE",
"163 -14 OFFCURVE",
"124 13 CURVE",
"186 95 LINE",
"207 78 OFFCURVE",
"234 71 OFFCURVE",
"252 71 CURVE SMOOTH",
"317 71 OFFCURVE",
"381 134 OFFCURVE",
"381 204 CURVE SMOOTH",
"381 250 OFFCURVE",
"350 291 OFFCURVE",
"296 291 CURVE SMOOTH",
"281 291 OFFCURVE",
"248 287 OFFCURVE",
"192 276 CURVE",
"240 375 LINE",
"333 387 OFFCURVE",
"362 434 OFFCURVE",
"362 471 CURVE SMOOTH",
"362 506 OFFCURVE",
"332 535 OFFCURVE",
"295 535 CURVE SMOOTH",
"252 535 OFFCURVE",
"204 499 OFFCURVE",
"195 457 CURVE SMOOTH",
"105 33 LINE",
"3 -14 LINE",
"103 457 LINE SMOOTH",
"123 551 OFFCURVE",
"220 627 OFFCURVE",
"315 627 CURVE SMOOTH",
"397 627 OFFCURVE",
"457 570 OFFCURVE",
"457 492 CURVE SMOOTH"
);
}
);
userData = {
com.fontlab.hintData = {
hhints = (
{
position = -22;
width = 93;
},
{
position = 276;
width = 99;
},
{
position = 535;
width = 92;
}
);
vhints = (
{
position = 362;
width = 95;
},
{
position = 381;
width = 96;
}
);
};
};
width = 551;
}
);
unicode = 00DF;
},
{
glyphname = t;
layers = (
{
layerId = master01;
paths = (
{
closed = 1;
nodes = (
"396 406 LINE",
"271 406 LINE",
"187 12 LINE",
"85 -5 LINE",
"173 406 LINE",
"48 406 LINE",
"68 502 LINE",
"193 502 LINE",
"223 644 LINE",
"325 660 LINE",
"291 502 LINE",
"416 502 LINE"
);
}
);
userData = {
com.fontlab.hintData = {
hhints = (
{
position = 406;
width = 96;
}
);
};
};
width = 399;
}
);
unicode = 0074;
},
{
glyphname = tcaron;
layers = (
{
layerId = master01;
paths = (
{
closed = 1;
nodes = (
"538 696 LINE",
"415 526 LINE",
"342 574 LINE",
"409 660 LINE",
"371 684 LINE",
"461 751 LINE"
);
},
{
closed = 1;
nodes = (
"383 406 LINE",
"257 406 LINE",
"173 12 LINE",
"77 -5 LINE",
"165 406 LINE",
"39 406 LINE",
"59 502 LINE",
"185 502 LINE",
"215 644 LINE",
"311 660 LINE",
"277 502 LINE",
"403 502 LINE"
);
}
);
userData = {
com.fontlab.hintData = {
hhints = (
{
position = 406;
width = 96;
}
);
};
};
width = 455;
}
);
unicode = 0165;
},
{
glyphname = u;
layers = (
{
layerId = master01;
paths = (
{
closed = 1;
nodes = (
"152 238 OFFCURVE",
"142 189 OFFCURVE",
"142 152 CURVE SMOOTH",
"142 112 OFFCURVE",
"153 85 OFFCURVE",
"189 85 CURVE SMOOTH",
"244 85 OFFCURVE",
"306 125 OFFCURVE",
"328 143 CURVE SMOOTH",
"333 147 OFFCURVE",
"336 155 OFFCURVE",
"339 167 CURVE SMOOTH",
"408 491 LINE",
"510 508 LINE",
"405 12 LINE",
"300 -4 LINE",
"308 36 LINE",
"269 14 OFFCURVE",
"216 -5 OFFCURVE",
"166 -5 CURVE SMOOTH",
"70 -5 OFFCURVE",
"43 48 OFFCURVE",
"43 121 CURVE SMOOTH",
"43 170 OFFCURVE",
"55 229 OFFCURVE",
"67 286 CURVE SMOOTH",
"76 328 OFFCURVE",
"100 418 OFFCURVE",
"128 492 CURVE",
"231 509 LINE",
"223 488 OFFCURVE",
"178 359 OFFCURVE",
"162 286 CURVE SMOOTH"
);
}
);
userData = {
com.fontlab.hintData = {
hhints = (
{
position = -5;
width = 90;
},
{
position = -4;
width = 21;
}
);
vhints = (
{
position = 43;
width = 99;
}
);
};
};
width = 542;
}
);
unicode = 0075;
},
{
glyphname = uacute;
layers = (
{
layerId = master01;
paths = (
{
closed = 1;
nodes = (
"429 731 LINE",
"497 658 LINE",
"286 540 LINE",
"229 600 LINE"
);
},
{
closed = 1;
nodes = (
"152 238 OFFCURVE",
"142 189 OFFCURVE",
"142 152 CURVE SMOOTH",
"142 112 OFFCURVE",
"153 85 OFFCURVE",
"189 85 CURVE SMOOTH",
"244 85 OFFCURVE",
"306 125 OFFCURVE",
"328 143 CURVE SMOOTH",
"333 147 OFFCURVE",
"336 155 OFFCURVE",
"339 167 CURVE SMOOTH",
"408 491 LINE",
"510 508 LINE",
"405 12 LINE",
"300 -4 LINE",
"308 36 LINE",
"269 14 OFFCURVE",
"216 -5 OFFCURVE",
"166 -5 CURVE SMOOTH",
"70 -5 OFFCURVE",
"43 48 OFFCURVE",
"43 121 CURVE SMOOTH",
"43 170 OFFCURVE",
"55 229 OFFCURVE",
"67 286 CURVE SMOOTH",
"76 328 OFFCURVE",
"100 418 OFFCURVE",
"128 492 CURVE",
"231 509 LINE",
"223 488 OFFCURVE",
"178 359 OFFCURVE",
"162 286 CURVE SMOOTH"
);
}
);
userData = {
com.fontlab.hintData = {
hhints = (
{
position = -5;
width = 90;
},
{
position = -4;
width = 21;
}
);
vhints = (
{
position = 43;
width = 99;
}
);
};
};
width = 542;
}
);
unicode = 00FA;
},
{
glyphname = ubreve;
layers = (
{
layerId = master01;
paths = (
{
closed = 1;
nodes = (
"152 238 OFFCURVE",
"142 189 OFFCURVE",
"142 152 CURVE SMOOTH",
"142 112 OFFCURVE",
"153 85 OFFCURVE",
"189 85 CURVE SMOOTH",
"244 85 OFFCURVE",
"306 125 OFFCURVE",
"328 143 CURVE SMOOTH",
"333 147 OFFCURVE",
"336 155 OFFCURVE",
"339 167 CURVE SMOOTH",
"408 491 LINE",
"510 508 LINE",
"405 12 LINE",
"300 -4 LINE",
"308 36 LINE",
"269 14 OFFCURVE",
"216 -5 OFFCURVE",
"166 -5 CURVE SMOOTH",
"70 -5 OFFCURVE",
"43 48 OFFCURVE",
"43 121 CURVE SMOOTH",
"43 170 OFFCURVE",
"55 229 OFFCURVE",
"67 286 CURVE SMOOTH",
"76 328 OFFCURVE",
"100 418 OFFCURVE",
"128 492 CURVE",
"231 509 LINE",
"223 488 OFFCURVE",
"178 359 OFFCURVE",
"162 286 CURVE SMOOTH"
);
},
{
closed = 1;
nodes = (
"387 626 OFFCURVE",
"421 649 OFFCURVE",
"455 706 CURVE",
"505 642 LINE",
"468 575 OFFCURVE",
"394 538 OFFCURVE",
"327 538 CURVE SMOOTH",
"254 538 OFFCURVE",
"198 572 OFFCURVE",
"183 637 CURVE",
"256 698 LINE",
"279 629 OFFCURVE",
"314 626 OFFCURVE",
"341 626 CURVE SMOOTH"
);
}
);
userData = {
com.fontlab.hintData = {
hhints = (
{
position = -5;
width = 90;
},
{
position = -4;
width = 21;
},
{
position = 538;
width = 88;
}
);
vhints = (
{
position = 43;
width = 99;
}
);
};
};
width = 542;
}
);
unicode = 016D;
},
{
glyphname = ucircumflex;
layers = (
{
layerId = master01;
paths = (
{
closed = 1;
nodes = (
"185 595 LINE",
"382 720 LINE",
"502 590 LINE",
"425 531 LINE",
"353 612 LINE",
"229 530 LINE"
);
},
{
closed = 1;
nodes = (
"152 238 OFFCURVE",
"142 189 OFFCURVE",
"142 152 CURVE SMOOTH",
"142 112 OFFCURVE",
"153 85 OFFCURVE",
"189 85 CURVE SMOOTH",
"244 85 OFFCURVE",
"306 125 OFFCURVE",
"328 143 CURVE SMOOTH",
"333 147 OFFCURVE",
"336 155 OFFCURVE",
"339 167 CURVE SMOOTH",
"408 491 LINE",
"510 508 LINE",
"405 12 LINE",
"300 -4 LINE",
"308 36 LINE",
"269 14 OFFCURVE",
"216 -5 OFFCURVE",
"166 -5 CURVE SMOOTH",
"70 -5 OFFCURVE",
"43 48 OFFCURVE",
"43 121 CURVE SMOOTH",
"43 170 OFFCURVE",
"55 229 OFFCURVE",
"67 286 CURVE SMOOTH",
"76 328 OFFCURVE",
"100 418 OFFCURVE",
"128 492 CURVE",
"231 509 LINE",
"223 488 OFFCURVE",
"178 359 OFFCURVE",
"162 286 CURVE SMOOTH"
);
}
);
userData = {
com.fontlab.hintData = {
hhints = (
{
position = -5;
width = 90;
},
{
position = -4;
width = 21;
}
);
vhints = (
{
position = 43;
width = 99;
}
);
};
};
width = 542;
}
);
unicode = 00FB;
},
{
glyphname = udieresis;
layers = (
{
layerId = master01;
paths = (
{
closed = 1;
nodes = (
"304 561 LINE",
"187 546 LINE",
"223 658 LINE",
"339 672 LINE"
);
},
{
closed = 1;
nodes = (
"471 561 LINE",
"353 546 LINE",
"390 658 LINE",
"505 672 LINE"
);
},
{
closed = 1;
nodes = (
"152 238 OFFCURVE",
"142 189 OFFCURVE",
"142 152 CURVE SMOOTH",
"142 112 OFFCURVE",
"153 85 OFFCURVE",
"189 85 CURVE SMOOTH",
"244 85 OFFCURVE",
"306 125 OFFCURVE",
"328 143 CURVE SMOOTH",
"333 147 OFFCURVE",
"336 155 OFFCURVE",
"339 167 CURVE SMOOTH",
"408 491 LINE",
"510 508 LINE",
"405 12 LINE",
"300 -4 LINE",
"308 36 LINE",
"269 14 OFFCURVE",
"216 -5 OFFCURVE",
"166 -5 CURVE SMOOTH",
"70 -5 OFFCURVE",
"43 48 OFFCURVE",
"43 121 CURVE SMOOTH",
"43 170 OFFCURVE",
"55 229 OFFCURVE",
"67 286 CURVE SMOOTH",
"76 328 OFFCURVE",
"100 418 OFFCURVE",
"128 492 CURVE",
"231 509 LINE",
"223 488 OFFCURVE",
"178 359 OFFCURVE",
"162 286 CURVE SMOOTH"
);
}
);
userData = {
com.fontlab.hintData = {
hhints = (
{
position = -5;
width = 90;
},
{
position = -4;
width = 21;
}
);
vhints = (
{
position = 43;
width = 99;
}
);
};
};
width = 542;
}
);
unicode = 00FC;
},
{
glyphname = ugrave;
layers = (
{
layerId = master01;
paths = (
{
closed = 1;
nodes = (
"356 530 LINE",
"227 682 LINE",
"337 737 LINE",
"448 579 LINE"
);
},
{
closed = 1;
nodes = (
"152 238 OFFCURVE",
"142 189 OFFCURVE",
"142 152 CURVE SMOOTH",
"142 112 OFFCURVE",
"153 85 OFFCURVE",
"189 85 CURVE SMOOTH",
"244 85 OFFCURVE",
"306 125 OFFCURVE",
"328 143 CURVE SMOOTH",
"333 147 OFFCURVE",
"336 155 OFFCURVE",
"339 167 CURVE SMOOTH",
"408 491 LINE",
"510 508 LINE",
"405 12 LINE",
"300 -4 LINE",
"308 36 LINE",
"269 14 OFFCURVE",
"216 -5 OFFCURVE",
"166 -5 CURVE SMOOTH",
"70 -5 OFFCURVE",
"43 48 OFFCURVE",
"43 121 CURVE SMOOTH",
"43 170 OFFCURVE",
"55 229 OFFCURVE",
"67 286 CURVE SMOOTH",
"76 328 OFFCURVE",
"100 418 OFFCURVE",
"128 492 CURVE",
"231 509 LINE",
"223 488 OFFCURVE",
"178 359 OFFCURVE",
"162 286 CURVE SMOOTH"
);
}
);
userData = {
com.fontlab.hintData = {
hhints = (
{
position = -5;
width = 90;
},
{
position = -4;
width = 21;
}
);
vhints = (
{
position = 43;
width = 99;
}
);
};
};
width = 542;
}
);
unicode = 00F9;
},
{
glyphname = uhungarumlaut;
layers = (
{
layerId = master01;
paths = (
{
closed = 1;
nodes = (
"333 731 LINE",
"393 656 LINE",
"187 535 LINE",
"127 597 LINE"
);
},
{
closed = 1;
nodes = (
"552 731 LINE",
"613 656 LINE",
"396 535 LINE",
"346 597 LINE"
);
},
{
closed = 1;
nodes = (
"152 238 OFFCURVE",
"142 189 OFFCURVE",
"142 152 CURVE SMOOTH",
"142 112 OFFCURVE",
"153 85 OFFCURVE",
"189 85 CURVE SMOOTH",
"244 85 OFFCURVE",
"306 125 OFFCURVE",
"328 143 CURVE SMOOTH",
"333 147 OFFCURVE",
"336 155 OFFCURVE",
"339 167 CURVE SMOOTH",
"408 491 LINE",
"510 508 LINE",
"405 12 LINE",
"300 -4 LINE",
"308 36 LINE",
"269 14 OFFCURVE",
"216 -5 OFFCURVE",
"166 -5 CURVE SMOOTH",
"70 -5 OFFCURVE",
"43 48 OFFCURVE",
"43 121 CURVE SMOOTH",
"43 170 OFFCURVE",
"55 229 OFFCURVE",
"67 286 CURVE SMOOTH",
"76 328 OFFCURVE",
"100 418 OFFCURVE",
"128 492 CURVE",
"231 509 LINE",
"223 488 OFFCURVE",
"178 359 OFFCURVE",
"162 286 CURVE SMOOTH"
);
}
);
userData = {
com.fontlab.hintData = {
hhints = (
{
position = -5;
width = 90;
},
{
position = -4;
width = 21;
}
);
vhints = (
{
position = 43;
width = 99;
}
);
};
};
width = 564;
}
);
unicode = 0171;
},
{
glyphname = uni0163;
layers = (
{
layerId = master01;
paths = (
{
closed = 1;
nodes = (
"396 406 LINE",
"271 406 LINE",
"187 12 LINE",
"85 -5 LINE",
"173 406 LINE",
"48 406 LINE",
"68 502 LINE",
"193 502 LINE",
"223 644 LINE",
"325 660 LINE",
"291 502 LINE",
"416 502 LINE"
);
},
{
closed = 1;
nodes = (
"221 -62 LINE",
"73 -247 LINE",
"-4 -198 LINE",
"64 -119 LINE",
"25 -95 LINE",
"130 -16 LINE"
);
}
);
userData = {
com.fontlab.hintData = {
hhints = (
{
position = 406;
width = 96;
}
);
};
};
width = 399;
}
);
unicode = 0163;
},
{
glyphname = uring;
layers = (
{
layerId = master01;
paths = (
{
closed = 1;
nodes = (
"152 238 OFFCURVE",
"142 189 OFFCURVE",
"142 152 CURVE SMOOTH",
"142 112 OFFCURVE",
"153 85 OFFCURVE",
"189 85 CURVE SMOOTH",
"244 85 OFFCURVE",
"306 125 OFFCURVE",
"328 143 CURVE SMOOTH",
"333 147 OFFCURVE",
"336 155 OFFCURVE",
"339 167 CURVE SMOOTH",
"408 491 LINE",
"510 508 LINE",
"405 12 LINE",
"300 -4 LINE",
"308 36 LINE",
"269 14 OFFCURVE",
"216 -5 OFFCURVE",
"166 -5 CURVE SMOOTH",
"70 -5 OFFCURVE",
"43 48 OFFCURVE",
"43 121 CURVE SMOOTH",
"43 170 OFFCURVE",
"55 229 OFFCURVE",
"67 286 CURVE SMOOTH",
"76 328 OFFCURVE",
"100 418 OFFCURVE",
"128 492 CURVE",
"231 509 LINE",
"223 488 OFFCURVE",
"178 359 OFFCURVE",
"162 286 CURVE SMOOTH"
);
},
{
closed = 1;
nodes = (
"264 542 OFFCURVE",
"223 580 OFFCURVE",
"223 632 CURVE SMOOTH",
"223 713 OFFCURVE",
"311 782 OFFCURVE",
"401 782 CURVE SMOOTH",
"470 782 OFFCURVE",
"507 740 OFFCURVE",
"507 690 CURVE SMOOTH",
"507 592 OFFCURVE",
"404 542 OFFCURVE",
"331 542 CURVE SMOOTH"
);
},
{
closed = 1;
nodes = (
"356 697 OFFCURVE",
"311 680 OFFCURVE",
"311 650 CURVE SMOOTH",
"311 636 OFFCURVE",
"328 626 OFFCURVE",
"351 626 CURVE SMOOTH",
"380 626 OFFCURVE",
"421 645 OFFCURVE",
"421 670 CURVE SMOOTH",
"421 685 OFFCURVE",
"404 697 OFFCURVE",
"380 697 CURVE SMOOTH"
);
}
);
userData = {
com.fontlab.hintData = {
hhints = (
{
position = -5;
width = 90;
},
{
position = -4;
width = 21;
},
{
position = 542;
width = 84;
},
{
position = 697;
width = 85;
}
);
vhints = (
{
position = 43;
width = 99;
},
{
position = 223;
width = 88;
},
{
position = 421;
width = 86;
}
);
};
};
width = 541;
}
);
unicode = 016F;
},
{
glyphname = v;
layers = (
{
layerId = master01;
paths = (
{
closed = 1;
nodes = (
"219 15 LINE",
"133 -3 LINE",
"48 471 LINE",
"145 507 LINE",
"204 156 LINE",
"412 507 LINE",
"495 473 LINE"
);
}
);
userData = {
com.fontlab.hintData = {
hhints = (
{
position = -3;
width = 21;
}
);
};
};
width = 473;
}
);
unicode = 0076;
},
{
glyphname = w;
layers = (
{
layerId = master01;
paths = (
{
closed = 1;
nodes = (
"432 15 LINE",
"340 -4 LINE",
"331 296 LINE",
"172 14 LINE",
"78 -5 LINE",
"84 481 LINE",
"183 502 LINE",
"178 196 LINE",
"335 484 LINE",
"424 499 LINE",
"429 192 LINE",
"579 485 LINE",
"687 502 LINE"
);
}
);
userData = {
com.fontlab.hintData = {
hhints = (
{
position = -4;
width = 21;
}
);
vhints = (
{
position = 78;
width = 100;
},
{
position = 331;
width = 98;
}
);
};
};
width = 679;
}
);
unicode = 0077;
},
{
glyphname = x;
layers = (
{
layerId = master01;
paths = (
{
closed = 1;
nodes = (
"13 -8 LINE",
"-42 61 LINE",
"197 261 LINE",
"78 449 LINE",
"165 511 LINE",
"279 326 LINE",
"496 511 LINE",
"550 444 LINE",
"327 256 LINE",
"454 53 LINE",
"368 -9 LINE",
"244 191 LINE"
);
}
);
userData = {
com.fontlab.hintData = {
hhints = (
{
position = 491;
width = 20;
}
);
};
};
width = 536;
}
);
unicode = 0078;
},
{
glyphname = y;
layers = (
{
layerId = master01;
paths = (
{
closed = 1;
nodes = (
"536 467 LINE",
"93 -187 LINE",
"14 -146 LINE",
"166 78 LINE",
"55 464 LINE",
"150 507 LINE",
"241 191 LINE",
"456 508 LINE"
);
}
);
width = 526;
}
);
unicode = 0079;
},
{
glyphname = yacute;
layers = (
{
layerId = master01;
paths = (
{
closed = 1;
nodes = (
"407 731 LINE",
"476 658 LINE",
"265 540 LINE",
"206 600 LINE"
);
},
{
closed = 1;
nodes = (
"536 466 LINE",
"93 -188 LINE",
"14 -147 LINE",
"166 77 LINE",
"55 463 LINE",
"150 506 LINE",
"241 190 LINE",
"456 507 LINE"
);
}
);
width = 526;
}
);
unicode = 00FD;
},
{
glyphname = ydieresis;
layers = (
{
layerId = master01;
paths = (
{
closed = 1;
nodes = (
"289 561 LINE",
"172 546 LINE",
"208 658 LINE",
"324 672 LINE"
);
},
{
closed = 1;
nodes = (
"455 561 LINE",
"337 546 LINE",
"374 658 LINE",
"490 672 LINE"
);
},
{
closed = 1;
nodes = (
"536 467 LINE",
"93 -187 LINE",
"14 -146 LINE",
"166 78 LINE",
"55 464 LINE",
"150 507 LINE",
"241 191 LINE",
"456 508 LINE"
);
}
);
width = 526;
}
);
unicode = 00FF;
},
{
glyphname = z;
layers = (
{
layerId = master01;
paths = (
{
closed = 1;
nodes = (
"0 0 LINE",
"-19 68 LINE",
"322 406 LINE",
"73 406 LINE",
"110 502 LINE",
"453 502 LINE",
"471 435 LINE",
"131 96 LINE",
"393 96 LINE",
"356 0 LINE"
);
}
);
userData = {
com.fontlab.hintData = {
hhints = (
{
position = 0;
width = 96;
},
{
position = 406;
width = 96;
}
);
};
};
width = 479;
}
);
unicode = 007A;
},
{
glyphname = zacute;
layers = (
{
layerId = master01;
paths = (
{
closed = 1;
nodes = (
"0 0 LINE",
"-19 68 LINE",
"322 406 LINE",
"73 406 LINE",
"110 502 LINE",
"453 502 LINE",
"471 435 LINE",
"131 96 LINE",
"393 96 LINE",
"356 0 LINE"
);
},
{
closed = 1;
nodes = (
"385 731 LINE",
"454 658 LINE",
"242 540 LINE",
"184 600 LINE"
);
}
);
userData = {
com.fontlab.hintData = {
hhints = (
{
position = 0;
width = 96;
},
{
position = 406;
width = 96;
}
);
};
};
width = 479;
}
);
unicode = 017A;
},
{
glyphname = zcaron;
layers = (
{
layerId = master01;
paths = (
{
closed = 1;
nodes = (
"488 657 LINE",
"290 522 LINE",
"172 662 LINE",
"251 732 LINE",
"322 649 LINE",
"447 732 LINE"
);
},
{
closed = 1;
nodes = (
"0 0 LINE",
"-19 68 LINE",
"322 406 LINE",
"73 406 LINE",
"110 502 LINE",
"453 502 LINE",
"471 435 LINE",
"131 96 LINE",
"393 96 LINE",
"356 0 LINE"
);
}
);
userData = {
com.fontlab.hintData = {
hhints = (
{
position = 0;
width = 96;
},
{
position = 406;
width = 96;
}
);
};
};
width = 479;
}
);
unicode = 017E;
},
{
glyphname = zdotaccent;
layers = (
{
layerId = master01;
paths = (
{
closed = 1;
nodes = (
"356 561 LINE",
"238 546 LINE",
"275 658 LINE",
"390 672 LINE"
);
},
{
closed = 1;
nodes = (
"0 0 LINE",
"-19 68 LINE",
"322 406 LINE",
"73 406 LINE",
"110 502 LINE",
"453 502 LINE",
"471 435 LINE",
"131 96 LINE",
"393 96 LINE",
"356 0 LINE"
);
}
);
userData = {
com.fontlab.hintData = {
hhints = (
{
position = 0;
width = 96;
},
{
position = 406;
width = 96;
}
);
};
};
width = 479;
}
);
unicode = 017C;
},
{
glyphname = ordfeminine;
layers = (
{
layerId = master01;
paths = (
{
closed = 1;
nodes = (
"283 333 LINE",
"188 315 LINE",
"192 334 LINE",
"174 328 OFFCURVE",
"158 326 OFFCURVE",
"143 326 CURVE SMOOTH",
"76 326 OFFCURVE",
"37 370 OFFCURVE",
"37 435 CURVE SMOOTH",
"37 546 OFFCURVE",
"135 661 OFFCURVE",
"240 661 CURVE SMOOTH",
"265 661 OFFCURVE",
"311 651 OFFCURVE",
"345 626 CURVE"
);
},
{
closed = 1;
nodes = (
"236 570 OFFCURVE",
"231 571 OFFCURVE",
"221 571 CURVE SMOOTH",
"171 571 OFFCURVE",
"130 505 OFFCURVE",
"130 454 CURVE SMOOTH",
"130 430 OFFCURVE",
"141 416 OFFCURVE",
"160 416 CURVE SMOOTH",
"177 416 OFFCURVE",
"198 426 OFFCURVE",
"213 433 CURVE",
"243 568 LINE"
);
}
);
userData = {
com.fontlab.hintData = {
hhints = (
{
position = 326;
width = 90;
},
{
position = 571;
width = 90;
}
);
vhints = (
{
position = 37;
width = 93;
}
);
};
};
width = 276;
}
);
unicode = 00AA;
},
{
glyphname = ordmasculine;
layers = (
{
layerId = master01;
paths = (
{
closed = 1;
nodes = (
"80 324 OFFCURVE",
"40 377 OFFCURVE",
"40 444 CURVE SMOOTH",
"40 559 OFFCURVE",
"146 665 OFFCURVE",
"244 665 CURVE SMOOTH",
"312 665 OFFCURVE",
"356 610 OFFCURVE",
"356 542 CURVE SMOOTH",
"356 430 OFFCURVE",
"249 324 OFFCURVE",
"153 324 CURVE SMOOTH"
);
},
{
closed = 1;
nodes = (
"183 577 OFFCURVE",
"133 520 OFFCURVE",
"133 460 CURVE SMOOTH",
"133 431 OFFCURVE",
"148 411 OFFCURVE",
"172 411 CURVE SMOOTH",
"211 411 OFFCURVE",
"261 465 OFFCURVE",
"261 522 CURVE SMOOTH",
"261 551 OFFCURVE",
"247 577 OFFCURVE",
"222 577 CURVE SMOOTH"
);
}
);
userData = {
com.fontlab.hintData = {
hhints = (
{
position = 324;
width = 87;
},
{
position = 577;
width = 88;
}
);
vhints = (
{
position = 40;
width = 93;
},
{
position = 261;
width = 95;
}
);
};
};
width = 311;
}
);
unicode = 00BA;
},
{
glyphname = zero;
layers = (
{
layerId = master01;
paths = (
{
closed = 1;
nodes = (
"131 -3 OFFCURVE",
"69 96 OFFCURVE",
"69 225 CURVE SMOOTH",
"69 444 OFFCURVE",
"242 669 OFFCURVE",
"404 669 CURVE SMOOTH",
"512 669 OFFCURVE",
"573 571 OFFCURVE",
"573 443 CURVE SMOOTH",
"573 219 OFFCURVE",
"400 -3 OFFCURVE",
"240 -3 CURVE SMOOTH"
);
},
{
closed = 1;
nodes = (
"287 574 OFFCURVE",
"165 413 OFFCURVE",
"165 243 CURVE SMOOTH",
"165 159 OFFCURVE",
"198 93 OFFCURVE",
"260 93 CURVE SMOOTH",
"357 93 OFFCURVE",
"478 254 OFFCURVE",
"478 423 CURVE SMOOTH",
"478 509 OFFCURVE",
"444 574 OFFCURVE",
"384 574 CURVE SMOOTH"
);
}
);
userData = {
com.fontlab.hintData = {
hhints = (
{
position = -3;
width = 96;
},
{
position = 574;
width = 95;
}
);
vhints = (
{
position = 69;
width = 96;
},
{
position = 478;
width = 95;
}
);
};
};
width = 640;
}
);
unicode = 0030;
},
{
glyphname = one;
layers = (
{
layerId = master01;
paths = (
{
closed = 1;
nodes = (
"331 95 LINE",
"294 0 LINE",
"8 0 LINE",
"44 95 LINE",
"143 95 LINE",
"231 479 LINE",
"141 411 LINE",
"92 481 LINE",
"374 694 LINE",
"237 95 LINE"
);
}
);
userData = {
com.fontlab.hintData = {
hhints = (
{
position = 0;
width = 95;
}
);
};
};
width = 440;
}
);
unicode = 0031;
},
{
glyphname = two;
layers = (
{
layerId = master01;
paths = (
{
closed = 1;
nodes = (
"438 95 LINE",
"401 0 LINE",
"6 0 LINE",
"15 47 LINE SMOOTH",
"44 196 OFFCURVE",
"118 256 OFFCURVE",
"243 330 CURVE SMOOTH",
"363 401 OFFCURVE",
"415 452 OFFCURVE",
"415 502 CURVE SMOOTH",
"415 547 OFFCURVE",
"366 564 OFFCURVE",
"330 564 CURVE SMOOTH",
"253 564 OFFCURVE",
"172 475 OFFCURVE",
"161 461 CURVE",
"112 537 LINE",
"148 574 OFFCURVE",
"241 658 OFFCURVE",
"350 658 CURVE SMOOTH",
"475 658 OFFCURVE",
"512 586 OFFCURVE",
"512 523 CURVE SMOOTH",
"512 404 OFFCURVE",
"391 317 OFFCURVE",
"278 251 CURVE SMOOTH",
"197 204 OFFCURVE",
"149 169 OFFCURVE",
"124 95 CURVE"
);
}
);
userData = {
com.fontlab.hintData = {
hhints = (
{
position = 0;
width = 95;
},
{
position = 564;
width = 94;
}
);
vhints = (
{
position = 415;
width = 97;
}
);
};
};
width = 550;
}
);
unicode = 0032;
},
{
glyphname = three;
layers = (
{
layerId = master01;
paths = (
{
closed = 1;
nodes = (
"526 464 OFFCURVE",
"469 411 OFFCURVE",
"410 374 CURVE",
"449 345 OFFCURVE",
"477 304 OFFCURVE",
"477 248 CURVE SMOOTH",
"477 118 OFFCURVE",
"354 -4 OFFCURVE",
"218 -4 CURVE SMOOTH",
"131 -4 OFFCURVE",
"47 46 OFFCURVE",
"36 156 CURVE",
"135 194 LINE",
"139 128 OFFCURVE",
"182 91 OFFCURVE",
"238 91 CURVE SMOOTH",
"308 91 OFFCURVE",
"379 154 OFFCURVE",
"379 231 CURVE SMOOTH",
"379 299 OFFCURVE",
"305 320 OFFCURVE",
"219 320 CURVE",
"234 413 LINE",
"345 419 OFFCURVE",
"427 463 OFFCURVE",
"427 516 CURVE SMOOTH",
"427 544 OFFCURVE",
"395 572 OFFCURVE",
"335 572 CURVE SMOOTH",
"277 572 OFFCURVE",
"208 520 OFFCURVE",
"193 508 CURVE",
"143 577 LINE",
"174 601 OFFCURVE",
"264 667 OFFCURVE",
"355 667 CURVE SMOOTH",
"456 667 OFFCURVE",
"526 610 OFFCURVE",
"526 535 CURVE SMOOTH"
);
}
);
userData = {
com.fontlab.hintData = {
hhints = (
{
position = -4;
width = 95;
},
{
position = 320;
width = 93;
},
{
position = 572;
width = 95;
}
);
vhints = (
{
position = 379;
width = 98;
},
{
position = 427;
width = 99;
}
);
};
};
width = 575;
}
);
unicode = 0033;
},
{
glyphname = four;
layers = (
{
layerId = master01;
paths = (
{
closed = 1;
nodes = (
"257 -5 LINE",
"291 152 LINE",
"-6 158 LINE",
"504 716 LINE",
"403 243 LINE",
"468 243 LINE",
"430 150 LINE",
"384 151 LINE",
"354 13 LINE"
);
},
{
closed = 1;
nodes = (
"311 246 LINE",
"349 424 LINE",
"186 246 LINE"
);
}
);
userData = {
com.fontlab.hintData = {
hhints = (
{
position = 152;
width = 94;
}
);
};
};
width = 544;
}
);
unicode = 0034;
},
{
glyphname = five;
layers = (
{
layerId = master01;
paths = (
{
closed = 1;
nodes = (
"156 0 OFFCURVE",
"65 28 OFFCURVE",
"33 153 CURVE",
"127 191 LINE",
"143 125 OFFCURVE",
"189 94 OFFCURVE",
"229 94 CURVE SMOOTH",
"327 94 OFFCURVE",
"412 198 OFFCURVE",
"412 295 CURVE SMOOTH",
"412 359 OFFCURVE",
"369 392 OFFCURVE",
"322 392 CURVE SMOOTH",
"273 392 OFFCURVE",
"215 356 OFFCURVE",
"178 312 CURVE",
"104 337 LINE",
"204 657 LINE",
"570 657 LINE",
"532 563 LINE",
"268 563 LINE",
"238 464 LINE",
"268 477 OFFCURVE",
"302 486 OFFCURVE",
"342 486 CURVE SMOOTH",
"452 486 OFFCURVE",
"506 402 OFFCURVE",
"506 309 CURVE SMOOTH",
"506 141 OFFCURVE",
"360 0 OFFCURVE",
"210 0 CURVE SMOOTH"
);
}
);
userData = {
com.fontlab.hintData = {
hhints = (
{
position = 0;
width = 94;
},
{
position = 392;
width = 94;
},
{
position = 563;
width = 94;
}
);
vhints = (
{
position = 412;
width = 94;
}
);
};
};
width = 588;
}
);
unicode = 0035;
},
{
glyphname = six;
layers = (
{
layerId = master01;
paths = (
{
closed = 1;
nodes = (
"458 587 LINE",
"378 557 OFFCURVE",
"291 498 OFFCURVE",
"237 434 CURVE",
"265 443 OFFCURVE",
"293 447 OFFCURVE",
"328 447 CURVE SMOOTH",
"347 447 OFFCURVE",
"486 442 OFFCURVE",
"486 299 CURVE SMOOTH",
"486 161 OFFCURVE",
"378 -5 OFFCURVE",
"222 -5 CURVE SMOOTH",
"98 -5 OFFCURVE",
"46 70 OFFCURVE",
"46 171 CURVE SMOOTH",
"46 393 OFFCURVE",
"227 590 OFFCURVE",
"447 676 CURVE"
);
},
{
closed = 1;
nodes = (
"148 262 OFFCURVE",
"141 217 OFFCURVE",
"141 189 CURVE SMOOTH",
"141 108 OFFCURVE",
"193 89 OFFCURVE",
"242 89 CURVE SMOOTH",
"329 89 OFFCURVE",
"392 193 OFFCURVE",
"392 275 CURVE SMOOTH",
"392 348 OFFCURVE",
"330 354 OFFCURVE",
"308 354 CURVE SMOOTH",
"239 354 OFFCURVE",
"185 318 OFFCURVE",
"161 300 CURVE"
);
}
);
userData = {
com.fontlab.hintData = {
hhints = (
{
position = -5;
width = 94;
},
{
position = 354;
width = 93;
}
);
vhints = (
{
position = 46;
width = 95;
},
{
position = 392;
width = 94;
}
);
};
};
width = 572;
}
);
unicode = 0036;
},
{
glyphname = seven;
layers = (
{
layerId = master01;
paths = (
{
closed = 1;
nodes = (
"45 35 LINE",
"426 565 LINE",
"138 565 LINE",
"142 659 LINE",
"598 659 LINE",
"118 -8 LINE"
);
}
);
userData = {
com.fontlab.hintData = {
hhints = (
{
position = 565;
width = 94;
}
);
};
};
width = 527;
}
);
unicode = 0037;
},
{
glyphname = eight;
layers = (
{
layerId = master01;
paths = (
{
closed = 1;
nodes = (
"110 -3 OFFCURVE",
"43 58 OFFCURVE",
"43 146 CURVE SMOOTH",
"43 253 OFFCURVE",
"122 322 OFFCURVE",
"184 357 CURVE",
"156 379 OFFCURVE",
"136 406 OFFCURVE",
"136 449 CURVE SMOOTH",
"136 586 OFFCURVE",
"257 669 OFFCURVE",
"370 669 CURVE SMOOTH",
"464 669 OFFCURVE",
"522 616 OFFCURVE",
"522 537 CURVE SMOOTH",
"522 450 OFFCURVE",
"465 395 OFFCURVE",
"411 364 CURVE",
"452 332 OFFCURVE",
"474 289 OFFCURVE",
"474 238 CURVE SMOOTH",
"474 104 OFFCURVE",
"351 -3 OFFCURVE",
"217 -3 CURVE SMOOTH"
);
},
{
closed = 1;
nodes = (
"221 286 OFFCURVE",
"139 247 OFFCURVE",
"139 164 CURVE SMOOTH",
"139 122 OFFCURVE",
"180 93 OFFCURVE",
"237 93 CURVE SMOOTH",
"292 93 OFFCURVE",
"375 130 OFFCURVE",
"375 210 CURVE SMOOTH",
"375 261 OFFCURVE",
"328 294 OFFCURVE",
"282 310 CURVE"
);
},
{
closed = 1;
nodes = (
"382 437 OFFCURVE",
"425 464 OFFCURVE",
"425 519 CURVE SMOOTH",
"425 552 OFFCURVE",
"393 573 OFFCURVE",
"349 573 CURVE SMOOTH",
"289 573 OFFCURVE",
"235 530 OFFCURVE",
"235 479 CURVE SMOOTH",
"235 448 OFFCURVE",
"265 428 OFFCURVE",
"318 411 CURVE"
);
}
);
userData = {
com.fontlab.hintData = {
hhints = (
{
position = -3;
width = 96;
},
{
position = 573;
width = 96;
}
);
vhints = (
{
position = 43;
width = 96;
},
{
position = 136;
width = 99;
},
{
position = 375;
width = 99;
},
{
position = 425;
width = 97;
}
);
};
};
width = 573;
}
);
unicode = 0038;
},
{
glyphname = nine;
layers = (
{
layerId = master01;
paths = (
{
closed = 1;
nodes = (
"114 78 LINE",
"203 111 OFFCURVE",
"283 167 OFFCURVE",
"336 231 CURVE",
"307 222 OFFCURVE",
"280 217 OFFCURVE",
"244 217 CURVE SMOOTH",
"226 217 OFFCURVE",
"86 222 OFFCURVE",
"86 365 CURVE SMOOTH",
"86 545 OFFCURVE",
"231 669 OFFCURVE",
"352 669 CURVE SMOOTH",
"475 669 OFFCURVE",
"526 596 OFFCURVE",
"526 495 CURVE SMOOTH",
"526 237 OFFCURVE",
"290 48 OFFCURVE",
"126 -9 CURVE"
);
},
{
closed = 1;
nodes = (
"425 402 OFFCURVE",
"432 445 OFFCURVE",
"432 474 CURVE SMOOTH",
"432 556 OFFCURVE",
"379 576 OFFCURVE",
"330 576 CURVE SMOOTH",
"243 576 OFFCURVE",
"182 470 OFFCURVE",
"182 389 CURVE SMOOTH",
"182 317 OFFCURVE",
"244 311 OFFCURVE",
"264 311 CURVE SMOOTH",
"333 311 OFFCURVE",
"387 346 OFFCURVE",
"410 364 CURVE"
);
}
);
userData = {
com.fontlab.hintData = {
hhints = (
{
position = 217;
width = 94;
},
{
position = 576;
width = 93;
}
);
vhints = (
{
position = 86;
width = 96;
},
{
position = 432;
width = 94;
}
);
};
};
width = 572;
}
);
unicode = 0039;
},
{
glyphname = onesuperior;
layers = (
{
layerId = master01;
paths = (
{
closed = 1;
nodes = (
"65 500 LINE",
"116 500 LINE",
"153 655 LINE",
"122 632 LINE",
"78 697 LINE",
"284 854 LINE",
"203 500 LINE",
"257 500 LINE",
"224 413 LINE",
"29 413 LINE"
);
}
);
userData = {
com.fontlab.hintData = {
hhints = (
{
position = 413;
width = 87;
}
);
vhints = (
{
position = 29;
width = 255;
}
);
};
};
width = 205;
}
);
unicode = 00B9;
},
{
glyphname = twosuperior;
layers = (
{
layerId = master01;
paths = (
{
closed = 1;
nodes = (
"171 519 OFFCURVE",
"152 507 OFFCURVE",
"140 486 CURVE",
"308 486 LINE",
"276 399 LINE",
"27 399 LINE",
"36 442 LINE SMOOTH",
"54 527 OFFCURVE",
"96 566 OFFCURVE",
"171 610 CURVE SMOOTH",
"228 643 OFFCURVE",
"253 667 OFFCURVE",
"253 685 CURVE SMOOTH",
"253 698 OFFCURVE",
"241 705 OFFCURVE",
"228 705 CURVE SMOOTH",
"202 705 OFFCURVE",
"171 687 OFFCURVE",
"131 638 CURVE",
"85 708 LINE",
"123 752 OFFCURVE",
"186 792 OFFCURVE",
"240 792 CURVE SMOOTH",
"319 792 OFFCURVE",
"341 745 OFFCURVE",
"341 704 CURVE SMOOTH",
"341 631 OFFCURVE",
"262 571 OFFCURVE",
"203 538 CURVE SMOOTH"
);
}
);
userData = {
com.fontlab.hintData = {
hhints = (
{
position = 399;
width = 87;
},
{
position = 705;
width = 87;
}
);
vhints = (
{
position = 253;
width = 88;
}
);
};
};
width = 263;
}
);
unicode = 00B2;
},
{
glyphname = threesuperior;
layers = (
{
layerId = master01;
paths = (
{
closed = 1;
nodes = (
"95 724 LINE",
"128 752 OFFCURVE",
"182 789 OFFCURVE",
"236 789 CURVE SMOOTH",
"298 789 OFFCURVE",
"341 754 OFFCURVE",
"341 706 CURVE SMOOTH",
"341 674 OFFCURVE",
"315 634 OFFCURVE",
"275 617 CURVE",
"296 605 OFFCURVE",
"315 575 OFFCURVE",
"315 544 CURVE SMOOTH",
"315 467 OFFCURVE",
"233 398 OFFCURVE",
"155 398 CURVE SMOOTH",
"110 398 OFFCURVE",
"50 422 OFFCURVE",
"44 511 CURVE",
"137 547 LINE",
"136 543 OFFCURVE",
"136 540 OFFCURVE",
"136 537 CURVE SMOOTH",
"136 503 OFFCURVE",
"151 485 OFFCURVE",
"174 485 CURVE SMOOTH",
"203 485 OFFCURVE",
"227 507 OFFCURVE",
"227 534 CURVE SMOOTH",
"227 554 OFFCURVE",
"205 574 OFFCURVE",
"153 574 CURVE SMOOTH",
"140 574 LINE",
"150 636 LINE",
"183 636 OFFCURVE",
"252 664 OFFCURVE",
"252 691 CURVE SMOOTH",
"252 699 OFFCURVE",
"244 703 OFFCURVE",
"230 703 CURVE SMOOTH",
"202 703 OFFCURVE",
"176 691 OFFCURVE",
"141 661 CURVE"
);
}
);
userData = {
com.fontlab.hintData = {
hhints = (
{
position = 398;
width = 87;
},
{
position = 574;
width = 62;
},
{
position = 703;
width = 86;
}
);
vhints = (
{
position = 227;
width = 88;
},
{
position = 252;
width = 89;
}
);
};
};
width = 262;
}
);
unicode = 00B3;
},
{
glyphname = period;
layers = (
{
layerId = master01;
paths = (
{
closed = 1;
nodes = (
"116 12 LINE",
"-2 -4 LINE",
"38 118 LINE",
"154 133 LINE"
);
}
);
userData = {
com.fontlab.hintData = {
hhints = (
{
position = -4;
width = 137;
}
);
vhints = (
{
position = -2;
width = 156;
}
);
};
};
width = 248;
}
);
unicode = 002E;
},
{
glyphname = comma;
layers = (
{
layerId = master01;
paths = (
{
closed = 1;
nodes = (
"222 69 LINE",
"75 -121 LINE",
"0 -73 LINE",
"67 14 LINE",
"30 37 LINE",
"135 125 LINE"
);
}
);
userData = {
com.fontlab.hintData = {
hhints = (
{
position = -121;
width = 246;
}
);
vhints = (
{
position = 0;
width = 222;
}
);
};
};
width = 343;
}
);
unicode = 002C;
},
{
glyphname = colon;
layers = (
{
layerId = master01;
paths = (
{
closed = 1;
nodes = (
"209 332 LINE",
"92 317 LINE",
"131 439 LINE",
"249 454 LINE"
);
},
{
closed = 1;
nodes = (
"117 12 LINE",
"-1 -4 LINE",
"39 118 LINE",
"154 133 LINE"
);
}
);
userData = {
com.fontlab.hintData = {
hhints = (
{
position = -4;
width = 21;
}
);
vhints = (
{
position = -1;
width = 250;
}
);
};
};
width = 276;
}
);
unicode = 003A;
},
{
glyphname = semicolon;
layers = (
{
layerId = master01;
paths = (
{
closed = 1;
nodes = (
"274 334 LINE",
"156 319 LINE",
"196 441 LINE",
"313 456 LINE"
);
},
{
closed = 1;
nodes = (
"222 68 LINE",
"75 -121 LINE",
"0 -73 LINE",
"68 14 LINE",
"30 37 LINE",
"134 124 LINE"
);
}
);
userData = {
com.fontlab.hintData = {
vhints = (
{
position = 0;
width = 313;
}
);
};
};
width = 358;
}
);
unicode = 003B;
},
{
glyphname = ellipsis;
layers = (
{
layerId = master01;
paths = (
{
closed = 1;
nodes = (
"127 12 LINE",
"10 -4 LINE",
"50 118 LINE",
"165 133 LINE"
);
},
{
closed = 1;
nodes = (
"360 12 LINE",
"243 -4 LINE",
"282 118 LINE",
"398 133 LINE"
);
},
{
closed = 1;
nodes = (
"593 12 LINE",
"476 -4 LINE",
"515 118 LINE",
"631 133 LINE"
);
}
);
userData = {
com.fontlab.hintData = {
hhints = (
{
position = -4;
width = 137;
}
);
};
};
width = 760;
}
);
unicode = 2026;
},
{
glyphname = exclam;
layers = (
{
layerId = master01;
paths = (
{
closed = 1;
nodes = (
"29 160 LINE",
"135 662 LINE",
"233 679 LINE",
"127 179 LINE"
);
},
{
closed = 1;
nodes = (
"86 12 LINE",
"-16 -5 LINE",
"20 117 LINE",
"122 134 LINE"
);
}
);
userData = {
com.fontlab.hintData = {
vhints = (
{
position = -16;
width = 249;
}
);
};
};
width = 211;
}
);
unicode = 0021;
},
{
glyphname = exclamdown;
layers = (
{
layerId = master01;
paths = (
{
closed = 1;
nodes = (
"157 340 LINE",
"50 -163 LINE",
"-49 -179 LINE",
"58 321 LINE"
);
},
{
closed = 1;
nodes = (
"98 488 LINE",
"200 505 LINE",
"165 383 LINE",
"62 366 LINE"
);
}
);
userData = {
com.fontlab.hintData = {
vhints = (
{
position = -49;
width = 249;
}
);
};
};
width = 211;
}
);
unicode = 00A1;
},
{
glyphname = question;
layers = (
{
layerId = master01;
paths = (
{
closed = 1;
nodes = (
"181 12 LINE",
"80 -5 LINE",
"113 107 LINE",
"215 124 LINE"
);
},
{
closed = 1;
nodes = (
"471 694 OFFCURVE",
"534 636 OFFCURVE",
"534 543 CURVE SMOOTH",
"534 410 OFFCURVE",
"436 340 OFFCURVE",
"369 290 CURVE SMOOTH",
"182 149 LINE",
"152 235 LINE",
"322 362 LINE SMOOTH",
"376 402 OFFCURVE",
"437 442 OFFCURVE",
"437 516 CURVE SMOOTH",
"437 561 OFFCURVE",
"410 599 OFFCURVE",
"341 599 CURVE SMOOTH",
"255 599 OFFCURVE",
"179 507 OFFCURVE",
"170 495 CURVE",
"114 566 LINE",
"147 603 OFFCURVE",
"249 694 OFFCURVE",
"358 694 CURVE SMOOTH"
);
}
);
userData = {
com.fontlab.hintData = {
hhints = (
{
position = 599;
width = 95;
}
);
vhints = (
{
position = 437;
width = 97;
}
);
};
};
width = 568;
}
);
unicode = 003F;
},
{
glyphname = questiondown;
layers = (
{
layerId = master01;
paths = (
{
closed = 1;
nodes = (
"335 681 LINE",
"436 698 LINE",
"403 586 LINE",
"301 569 LINE"
);
},
{
closed = 1;
nodes = (
"44 -1 OFFCURVE",
"-18 56 OFFCURVE",
"-18 150 CURVE SMOOTH",
"-18 283 OFFCURVE",
"80 352 OFFCURVE",
"147 403 CURVE SMOOTH",
"334 544 LINE",
"364 458 LINE",
"194 331 LINE SMOOTH",
"141 291 OFFCURVE",
"79 251 OFFCURVE",
"79 177 CURVE SMOOTH",
"79 132 OFFCURVE",
"106 94 OFFCURVE",
"175 94 CURVE SMOOTH",
"261 94 OFFCURVE",
"337 186 OFFCURVE",
"347 198 CURVE",
"402 127 LINE",
"370 90 OFFCURVE",
"267 -1 OFFCURVE",
"158 -1 CURVE SMOOTH"
);
}
);
userData = {
com.fontlab.hintData = {
hhints = (
{
position = -1;
width = 95;
}
);
vhints = (
{
position = -18;
width = 97;
}
);
};
};
width = 527;
}
);
unicode = 00BF;
},
{
glyphname = periodcentered;
layers = (
{
layerId = master01;
paths = (
{
closed = 1;
nodes = (
"290 200 LINE",
"172 185 LINE",
"212 306 LINE",
"327 321 LINE"
);
}
);
userData = {
com.fontlab.hintData = {
hhints = (
{
position = 185;
width = 136;
}
);
vhints = (
{
position = 172;
width = 155;
}
);
};
};
width = 526;
}
);
unicode = 00B7;
},
{
glyphname = bullet;
layers = (
{
layerId = master01;
paths = (
{
closed = 1;
nodes = (
"297 212 OFFCURVE",
"239 149 OFFCURVE",
"170 149 CURVE SMOOTH",
"120 149 OFFCURVE",
"87 185 OFFCURVE",
"87 231 CURVE SMOOTH",
"87 298 OFFCURVE",
"150 356 OFFCURVE",
"214 356 CURVE SMOOTH",
"264 356 OFFCURVE",
"297 321 OFFCURVE",
"297 275 CURVE SMOOTH"
);
}
);
userData = {
com.fontlab.hintData = {
hhints = (
{
position = 149;
width = 207;
}
);
vhints = (
{
position = 87;
width = 210;
}
);
};
};
width = 404;
}
);
unicode = 2022;
},
{
glyphname = asterisk;
layers = (
{
layerId = master01;
paths = (
{
closed = 1;
nodes = (
"369 460 LINE",
"279 404 LINE",
"251 459 LINE",
"199 404 LINE",
"134 460 LINE",
"186 514 LINE",
"125 535 LINE",
"175 626 LINE",
"235 605 LINE",
"250 673 LINE",
"345 673 LINE",
"330 605 LINE",
"400 626 LINE",
"409 534 LINE",
"342 514 LINE"
);
}
);
userData = {
com.fontlab.hintData = {
hhints = (
{
position = 404;
width = 269;
}
);
vhints = (
{
position = 125;
width = 284;
}
);
};
};
width = 443;
}
);
unicode = 002A;
},
{
glyphname = numbersign;
layers = (
{
layerId = master01;
paths = (
{
closed = 1;
nodes = (
"561 392 LINE",
"509 287 LINE",
"653 287 LINE",
"605 193 LINE",
"461 193 LINE",
"367 5 LINE",
"266 -2 LINE",
"363 193 LINE",
"270 193 LINE",
"176 5 LINE",
"75 -2 LINE",
"172 193 LINE",
"41 193 LINE",
"88 287 LINE",
"220 287 LINE",
"272 392 LINE",
"119 392 LINE",
"166 486 LINE",
"319 486 LINE",
"412 671 LINE",
"514 678 LINE",
"418 486 LINE",
"510 486 LINE",
"602 670 LINE",
"702 677 LINE",
"608 486 LINE",
"735 486 LINE",
"688 392 LINE"
);
},
{
closed = 1;
nodes = (
"463 392 LINE",
"370 392 LINE",
"318 287 LINE",
"411 287 LINE"
);
}
);
userData = {
com.fontlab.hintData = {
hhints = (
{
position = -2;
width = 21;
},
{
position = 193;
width = 94;
},
{
position = 392;
width = 94;
}
);
};
};
width = 777;
}
);
unicode = 0023;
},
{
glyphname = slash;
layers = (
{
layerId = master01;
paths = (
{
closed = 1;
nodes = (
"576 675 LINE",
"63 0 LINE",
"-44 0 LINE",
"469 675 LINE"
);
}
);
userData = {
com.fontlab.hintData = {
hhints = (
{
position = 0;
width = 21;
}
);
};
};
width = 518;
}
);
unicode = 002F;
},
{
glyphname = backslash;
layers = (
{
layerId = master01;
paths = (
{
closed = 1;
nodes = (
"433 0 LINE",
"325 0 LINE",
"98 676 LINE",
"205 676 LINE"
);
}
);
userData = {
com.fontlab.hintData = {
hhints = (
{
position = 0;
width = 21;
}
);
};
};
width = 518;
}
);
unicode = 005C;
},
{
glyphname = parenleft;
layers = (
{
layerId = master01;
paths = (
{
closed = 1;
nodes = (
"177 -116 LINE",
"100 -24 OFFCURVE",
"63 107 OFFCURVE",
"63 229 CURVE SMOOTH",
"63 425 OFFCURVE",
"188 646 OFFCURVE",
"393 792 CURVE",
"434 718 LINE",
"279 604 OFFCURVE",
"161 426 OFFCURVE",
"161 249 CURVE SMOOTH",
"161 138 OFFCURVE",
"196 24 OFFCURVE",
"256 -48 CURVE"
);
}
);
userData = {
com.fontlab.hintData = {
vhints = (
{
position = 63;
width = 98;
}
);
};
};
width = 403;
}
);
unicode = 0028;
},
{
glyphname = parenright;
layers = (
{
layerId = master01;
paths = (
{
closed = 1;
nodes = (
"248 792 LINE",
"325 700 OFFCURVE",
"361 570 OFFCURVE",
"361 448 CURVE SMOOTH",
"361 252 OFFCURVE",
"238 30 OFFCURVE",
"32 -116 CURVE",
"-9 -42 LINE",
"147 72 OFFCURVE",
"264 251 OFFCURVE",
"264 429 CURVE SMOOTH",
"264 539 OFFCURVE",
"228 652 OFFCURVE",
"168 724 CURVE"
);
}
);
userData = {
com.fontlab.hintData = {
vhints = (
{
position = 264;
width = 97;
}
);
};
};
width = 403;
}
);
unicode = 0029;
},
{
glyphname = braceleft;
layers = (
{
layerId = master01;
paths = (
{
closed = 1;
nodes = (
"89 379 LINE",
"130 395 OFFCURVE",
"159 420 OFFCURVE",
"166 453 CURVE SMOOTH",
"202 625 LINE SMOOTH",
"227 746 OFFCURVE",
"369 781 OFFCURVE",
"439 782 CURVE",
"417 688 LINE",
"357 686 OFFCURVE",
"305 663 OFFCURVE",
"297 625 CURVE SMOOTH",
"261 454 LINE SMOOTH",
"251 408 OFFCURVE",
"229 380 OFFCURVE",
"184 341 CURVE",
"198 320 OFFCURVE",
"216 296 OFFCURVE",
"216 258 CURVE SMOOTH",
"216 249 OFFCURVE",
"215 239 OFFCURVE",
"213 228 CURVE SMOOTH",
"175 49 LINE SMOOTH",
"174 45 OFFCURVE",
"173 38 OFFCURVE",
"173 35 CURVE SMOOTH",
"173 5 OFFCURVE",
"204 -16 OFFCURVE",
"269 -21 CURVE",
"247 -115 LINE",
"183 -113 OFFCURVE",
"75 -84 OFFCURVE",
"75 12 CURVE SMOOTH",
"75 22 OFFCURVE",
"77 33 OFFCURVE",
"79 44 CURVE SMOOTH",
"120 236 LINE SMOOTH",
"121 241 OFFCURVE",
"121 245 OFFCURVE",
"121 250 CURVE SMOOTH",
"121 276 OFFCURVE",
"104 296 OFFCURVE",
"74 310 CURVE"
);
}
);
userData = {
com.fontlab.hintData = {
hhints = (
{
position = -115;
width = 94;
},
{
position = 688;
width = 94;
}
);
vhints = (
{
position = 75;
width = 98;
},
{
position = 121;
width = 95;
}
);
};
};
width = 400;
}
);
unicode = 007B;
},
{
glyphname = braceright;
layers = (
{
layerId = master01;
paths = (
{
closed = 1;
nodes = (
"318 288 LINE",
"276 272 OFFCURVE",
"248 247 OFFCURVE",
"241 214 CURVE SMOOTH",
"204 42 LINE SMOOTH",
"178 -79 OFFCURVE",
"39 -114 OFFCURVE",
"-32 -115 CURVE",
"-10 -21 LINE",
"49 -19 OFFCURVE",
"101 4 OFFCURVE",
"109 42 CURVE SMOOTH",
"146 213 LINE SMOOTH",
"156 259 OFFCURVE",
"178 287 OFFCURVE",
"223 326 CURVE",
"208 347 OFFCURVE",
"190 371 OFFCURVE",
"190 408 CURVE SMOOTH",
"190 418 OFFCURVE",
"192 428 OFFCURVE",
"194 439 CURVE SMOOTH",
"231 614 LINE SMOOTH",
"233 622 OFFCURVE",
"234 629 OFFCURVE",
"234 632 CURVE SMOOTH",
"234 661 OFFCURVE",
"202 682 OFFCURVE",
"138 688 CURVE",
"160 782 LINE",
"223 780 OFFCURVE",
"331 750 OFFCURVE",
"331 654 CURVE SMOOTH",
"331 644 OFFCURVE",
"330 634 OFFCURVE",
"328 623 CURVE SMOOTH",
"287 431 LINE SMOOTH",
"286 426 OFFCURVE",
"285 422 OFFCURVE",
"285 417 CURVE SMOOTH",
"285 391 OFFCURVE",
"303 371 OFFCURVE",
"332 357 CURVE"
);
}
);
userData = {
com.fontlab.hintData = {
hhints = (
{
position = -115;
width = 94;
},
{
position = 688;
width = 94;
}
);
vhints = (
{
position = 190;
width = 95;
},
{
position = 234;
width = 97;
}
);
};
};
width = 400;
}
);
unicode = 007D;
},
{
glyphname = bracketleft;
layers = (
{
layerId = master01;
paths = (
{
closed = 1;
nodes = (
"-22 -113 LINE",
"168 778 LINE",
"393 778 LINE",
"356 683 LINE",
"242 683 LINE",
"93 -18 LINE",
"211 -18 LINE",
"172 -113 LINE"
);
}
);
userData = {
com.fontlab.hintData = {
hhints = (
{
position = -113;
width = 95;
},
{
position = 683;
width = 95;
}
);
};
};
width = 341;
}
);
unicode = 005B;
},
{
glyphname = bracketright;
layers = (
{
layerId = master01;
paths = (
{
closed = 1;
nodes = (
"384 778 LINE",
"194 -113 LINE",
"-32 -113 LINE",
"6 -18 LINE",
"120 -18 LINE",
"269 683 LINE",
"152 683 LINE",
"189 778 LINE"
);
}
);
userData = {
com.fontlab.hintData = {
hhints = (
{
position = -113;
width = 95;
},
{
position = 683;
width = 95;
}
);
};
};
width = 341;
}
);
unicode = 005D;
},
{
glyphname = hyphen;
layers = (
{
layerId = master01;
paths = (
{
closed = 1;
nodes = (
"48 203 LINE",
"85 297 LINE",
"398 297 LINE",
"360 203 LINE"
);
}
);
userData = {
com.fontlab.hintData = {
hhints = (
{
position = 203;
width = 94;
}
);
};
};
width = 468;
}
);
unicode = 002D;
},
{
glyphname = uni00AD;
layers = (
{
layerId = master01;
paths = (
{
closed = 1;
nodes = (
"360 206 LINE",
"48 206 LINE",
"85 301 LINE",
"398 301 LINE"
);
}
);
userData = {
com.fontlab.hintData = {
hhints = (
{
position = 206;
width = 95;
}
);
};
};
width = 468;
}
);
unicode = 00AD;
},
{
glyphname = endash;
layers = (
{
layerId = master01;
paths = (
{
closed = 1;
nodes = (
"51 202 LINE",
"87 296 LINE",
"540 296 LINE",
"502 202 LINE"
);
}
);
userData = {
com.fontlab.hintData = {
hhints = (
{
position = 202;
width = 94;
}
);
};
};
width = 622;
}
);
unicode = 2013;
},
{
glyphname = emdash;
layers = (
{
layerId = master01;
paths = (
{
closed = 1;
nodes = (
"57 202 LINE",
"95 298 LINE",
"803 298 LINE",
"765 202 LINE"
);
}
);
userData = {
com.fontlab.hintData = {
hhints = (
{
position = 202;
width = 96;
}
);
};
};
width = 903;
}
);
unicode = 2014;
},
{
glyphname = underscore;
layers = (
{
layerId = master01;
paths = (
{
closed = 1;
nodes = (
"-79 -49 LINE",
"-44 45 LINE",
"449 45 LINE",
"412 -49 LINE"
);
}
);
userData = {
com.fontlab.hintData = {
hhints = (
{
position = -49;
width = 94;
}
);
};
};
width = 502;
}
);
unicode = 005F;
},
{
glyphname = quotesinglbase;
layers = (
{
layerId = master01;
paths = (
{
closed = 1;
nodes = (
"221 72 LINE",
"75 -118 LINE",
"0 -70 LINE",
"67 16 LINE",
"31 40 LINE",
"134 127 LINE"
);
}
);
userData = {
com.fontlab.hintData = {
hhints = (
{
position = -118;
width = 245;
}
);
vhints = (
{
position = 0;
width = 221;
}
);
};
};
width = 342;
}
);
unicode = 201A;
},
{
glyphname = quotedblbase;
layers = (
{
layerId = master01;
paths = (
{
closed = 1;
nodes = (
"221 72 LINE",
"75 -118 LINE",
"0 -70 LINE",
"67 16 LINE",
"31 40 LINE",
"134 127 LINE"
);
},
{
closed = 1;
nodes = (
"412 72 LINE",
"266 -118 LINE",
"191 -70 LINE",
"258 16 LINE",
"221 40 LINE",
"325 127 LINE"
);
}
);
userData = {
com.fontlab.hintData = {
hhints = (
{
position = -118;
width = 245;
}
);
};
};
width = 533;
}
);
unicode = 201E;
},
{
glyphname = quotedblleft;
layers = (
{
layerId = master01;
paths = (
{
closed = 1;
nodes = (
"239 545 LINE",
"387 735 LINE",
"461 687 LINE",
"393 600 LINE",
"431 577 LINE",
"326 489 LINE"
);
},
{
closed = 1;
nodes = (
"48 545 LINE",
"196 735 LINE",
"270 687 LINE",
"202 600 LINE",
"240 577 LINE",
"135 489 LINE"
);
}
);
userData = {
com.fontlab.hintData = {
hhints = (
{
position = 489;
width = 246;
}
);
};
};
width = 374;
}
);
unicode = 201C;
},
{
glyphname = quotedblright;
layers = (
{
layerId = master01;
paths = (
{
closed = 1;
nodes = (
"267 677 LINE",
"121 487 LINE",
"46 535 LINE",
"113 621 LINE",
"77 645 LINE",
"180 732 LINE"
);
},
{
closed = 1;
nodes = (
"458 677 LINE",
"312 487 LINE",
"237 535 LINE",
"304 621 LINE",
"267 645 LINE",
"371 732 LINE"
);
}
);
userData = {
com.fontlab.hintData = {
hhints = (
{
position = 487;
width = 245;
}
);
};
};
width = 374;
}
);
unicode = 201D;
},
{
glyphname = quoteleft;
layers = (
{
layerId = master01;
paths = (
{
closed = 1;
nodes = (
"64 545 LINE",
"212 735 LINE",
"286 687 LINE",
"218 600 LINE",
"256 577 LINE",
"152 489 LINE"
);
}
);
userData = {
com.fontlab.hintData = {
hhints = (
{
position = 489;
width = 246;
}
);
vhints = (
{
position = 64;
width = 222;
}
);
};
};
width = 208;
}
);
unicode = 2018;
},
{
glyphname = quoteright;
layers = (
{
layerId = master01;
paths = (
{
closed = 1;
nodes = (
"283 677 LINE",
"137 487 LINE",
"62 535 LINE",
"129 621 LINE",
"93 645 LINE",
"196 732 LINE"
);
}
);
userData = {
com.fontlab.hintData = {
hhints = (
{
position = 487;
width = 245;
}
);
vhints = (
{
position = 62;
width = 221;
}
);
};
};
width = 208;
}
);
unicode = 2019;
},
{
glyphname = guillemotleft;
layers = (
{
layerId = master01;
paths = (
{
closed = 1;
nodes = (
"36 253 LINE",
"320 457 LINE",
"366 386 LINE",
"178 250 LINE",
"294 121 LINE",
"214 51 LINE"
);
},
{
closed = 1;
nodes = (
"262 253 LINE",
"546 457 LINE",
"592 386 LINE",
"405 250 LINE",
"520 121 LINE",
"441 51 LINE"
);
}
);
width = 635;
}
);
unicode = 00AB;
},
{
glyphname = guillemotright;
layers = (
{
layerId = master01;
paths = (
{
closed = 1;
nodes = (
"254 121 LINE",
"426 252 LINE",
"298 386 LINE",
"374 457 LINE",
"570 253 LINE",
"303 50 LINE"
);
},
{
closed = 1;
nodes = (
"28 121 LINE",
"200 252 LINE",
"71 386 LINE",
"147 457 LINE",
"343 253 LINE",
"78 51 LINE"
);
}
);
width = 635;
}
);
unicode = 00BB;
},
{
glyphname = guilsinglleft;
layers = (
{
layerId = master01;
paths = (
{
closed = 1;
nodes = (
"51 251 LINE",
"334 455 LINE",
"380 384 LINE",
"193 248 LINE",
"309 119 LINE",
"230 49 LINE"
);
}
);
userData = {
com.fontlab.hintData = {
vhints = (
{
position = 51;
width = 329;
}
);
};
};
width = 430;
}
);
unicode = 2039;
},
{
glyphname = guilsinglright;
layers = (
{
layerId = master01;
paths = (
{
closed = 1;
nodes = (
"43 121 LINE",
"215 252 LINE",
"87 386 LINE",
"163 457 LINE",
"359 253 LINE",
"94 51 LINE"
);
}
);
userData = {
com.fontlab.hintData = {
vhints = (
{
position = 43;
width = 316;
}
);
};
};
width = 430;
}
);
unicode = 203A;
},
{
glyphname = quotedbl;
layers = (
{
layerId = master01;
paths = (
{
closed = 1;
nodes = (
"80 450 LINE",
"125 660 LINE",
"224 678 LINE",
"179 467 LINE"
);
},
{
closed = 1;
nodes = (
"229 450 LINE",
"274 660 LINE",
"373 678 LINE",
"328 467 LINE"
);
}
);
userData = {
com.fontlab.hintData = {
hhints = (
{
position = 450;
width = 228;
}
);
vhints = (
{
position = 80;
width = 293;
}
);
};
};
width = 338;
}
);
unicode = 0022;
},
{
glyphname = quotesingle;
layers = (
{
layerId = master01;
paths = (
{
closed = 1;
nodes = (
"100 450 LINE",
"145 660 LINE",
"243 678 LINE",
"198 467 LINE"
);
}
);
userData = {
com.fontlab.hintData = {
hhints = (
{
position = 450;
width = 228;
}
);
vhints = (
{
position = 100;
width = 143;
}
);
};
};
width = 228;
}
);
unicode = 0027;
},
{
glyphname = .notdef;
layers = (
{
layerId = master01;
paths = (
{
closed = 1;
nodes = (
"492 681 LINE",
"492 0 LINE",
"15 0 LINE",
"15 681 LINE"
);
},
{
closed = 1;
nodes = (
"99 511 LINE",
"99 183 LINE",
"202 342 LINE"
);
},
{
closed = 1;
nodes = (
"253 418 LINE",
"369 597 LINE",
"143 597 LINE"
);
},
{
closed = 1;
nodes = (
"135 84 LINE",
"361 84 LINE",
"251 263 LINE"
);
},
{
closed = 1;
nodes = (
"408 167 LINE",
"408 502 LINE",
"301 339 LINE"
);
}
);
userData = {
com.fontlab.hintData = {
hhints = (
{
position = 0;
width = 84;
},
{
position = 597;
width = 84;
}
);
vhints = (
{
position = 15;
width = 84;
},
{
position = 408;
width = 84;
}
);
};
};
width = 526;
}
);
},
{
glyphname = Euro;
layers = (
{
layerId = master01;
paths = (
{
closed = 1;
nodes = (
"227 0 OFFCURVE",
"128 84 OFFCURVE",
"128 206 CURVE SMOOTH",
"128 213 OFFCURVE",
"128 220 OFFCURVE",
"129 227 CURVE",
"49 227 LINE",
"84 315 LINE",
"142 315 LINE",
"148 333 OFFCURVE",
"153 352 OFFCURVE",
"161 370 CURVE",
"79 370 LINE",
"115 457 LINE",
"205 457 LINE",
"249 534 OFFCURVE",
"371 674 OFFCURVE",
"512 674 CURVE SMOOTH",
"577 674 OFFCURVE",
"635 646 OFFCURVE",
"678 597 CURVE",
"597 533 LINE",
"572 557 OFFCURVE",
"537 579 OFFCURVE",
"487 579 CURVE SMOOTH",
"425 579 OFFCURVE",
"348 517 OFFCURVE",
"305 457 CURVE",
"507 457 LINE",
"471 370 LINE",
"255 370 LINE",
"246 352 OFFCURVE",
"239 333 OFFCURVE",
"234 315 CURVE",
"457 315 LINE",
"422 227 LINE",
"224 227 LINE",
"232 145 OFFCURVE",
"293 95 OFFCURVE",
"372 95 CURVE SMOOTH",
"422 95 OFFCURVE",
"466 110 OFFCURVE",
"507 132 CURVE",
"562 66 LINE",
"493 25 OFFCURVE",
"419 0 OFFCURVE",
"358 0 CURVE SMOOTH"
);
}
);
userData = {
com.fontlab.hintData = {
hhints = (
{
position = 0;
width = 95;
},
{
position = 227;
width = 88;
},
{
position = 370;
width = 87;
},
{
position = 579;
width = 95;
}
);
vhints = (
{
position = 128;
width = 96;
},
{
position = 142;
width = 92;
}
);
};
};
width = 689;
}
);
unicode = 20AC;
},
{
glyphname = cent;
layers = (
{
layerId = master01;
paths = (
{
closed = 1;
nodes = (
"244 22 LINE",
"149 -9 LINE",
"173 98 LINE",
"92 128 OFFCURVE",
"53 189 OFFCURVE",
"53 261 CURVE SMOOTH",
"53 376 OFFCURVE",
"152 533 OFFCURVE",
"288 580 CURVE",
"304 648 LINE",
"399 682 LINE",
"377 588 LINE",
"425 579 OFFCURVE",
"468 547 OFFCURVE",
"493 499 CURVE",
"408 430 LINE",
"394 466 OFFCURVE",
"377 487 OFFCURVE",
"356 493 CURVE",
"330 383 OFFCURVE",
"281 185 OFFCURVE",
"281 185 CURVE",
"321 196 OFFCURVE",
"370 231 OFFCURVE",
"401 274 CURVE",
"456 203 LINE",
"402 141 OFFCURVE",
"332 98 OFFCURVE",
"261 90 CURVE"
);
},
{
closed = 1;
nodes = (
"264 476 LINE",
"171 415 OFFCURVE",
"148 311 OFFCURVE",
"148 283 CURVE SMOOTH",
"148 249 OFFCURVE",
"163 218 OFFCURVE",
"196 197 CURVE"
);
}
);
userData = {
com.fontlab.hintData = {
vhints = (
{
position = 53;
width = 95;
}
);
};
};
width = 532;
}
);
unicode = 00A2;
},
{
glyphname = currency;
layers = (
{
layerId = master01;
paths = (
{
closed = 1;
nodes = (
"421 247 OFFCURVE",
"406 209 OFFCURVE",
"380 171 CURVE",
"433 104 LINE",
"354 38 LINE",
"300 105 LINE",
"273 91 OFFCURVE",
"243 83 OFFCURVE",
"214 83 CURVE SMOOTH",
"184 83 OFFCURVE",
"157 91 OFFCURVE",
"136 105 CURVE",
"54 37 LINE",
"2 103 LINE",
"85 171 LINE",
"80 185 OFFCURVE",
"77 201 OFFCURVE",
"77 218 CURVE SMOOTH",
"77 260 OFFCURVE",
"95 298 OFFCURVE",
"120 333 CURVE",
"66 403 LINE",
"146 468 LINE",
"201 398 LINE",
"228 412 OFFCURVE",
"256 418 OFFCURVE",
"285 418 CURVE SMOOTH",
"314 418 OFFCURVE",
"339 412 OFFCURVE",
"361 398 CURVE",
"445 468 LINE",
"496 403 LINE",
"413 334 LINE",
"419 320 OFFCURVE",
"421 305 OFFCURVE",
"421 289 CURVE SMOOTH"
);
},
{
closed = 1;
nodes = (
"280 175 OFFCURVE",
"327 218 OFFCURVE",
"327 267 CURVE SMOOTH",
"327 301 OFFCURVE",
"302 326 OFFCURVE",
"266 326 CURVE SMOOTH",
"219 326 OFFCURVE",
"171 284 OFFCURVE",
"171 235 CURVE SMOOTH",
"171 201 OFFCURVE",
"197 175 OFFCURVE",
"234 175 CURVE SMOOTH"
);
}
);
userData = {
com.fontlab.hintData = {
hhints = (
{
position = 83;
width = 92;
},
{
position = 326;
width = 92;
}
);
vhints = (
{
position = 77;
width = 94;
},
{
position = 327;
width = 94;
}
);
};
};
width = 526;
}
);
unicode = 00A4;
},
{
glyphname = dollar;
layers = (
{
layerId = master01;
paths = (
{
closed = 1;
nodes = (
"383 387 LINE",
"482 353 OFFCURVE",
"532 302 OFFCURVE",
"532 232 CURVE SMOOTH",
"532 105 OFFCURVE",
"414 22 OFFCURVE",
"301 4 CURVE",
"289 -55 LINE",
"191 -73 LINE",
"207 3 LINE",
"114 18 OFFCURVE",
"49 85 OFFCURVE",
"38 180 CURVE",
"142 196 LINE",
"150 139 OFFCURVE",
"185 108 OFFCURVE",
"227 98 CURVE",
"273 314 LINE",
"203 340 OFFCURVE",
"140 384 OFFCURVE",
"140 458 CURVE SMOOTH",
"140 587 OFFCURVE",
"268 647 OFFCURVE",
"347 659 CURVE",
"359 716 LINE",
"456 733 LINE",
"442 664 LINE",
"506 658 OFFCURVE",
"596 635 OFFCURVE",
"596 545 CURVE SMOOTH",
"596 525 OFFCURVE",
"591 507 OFFCURVE",
"582 477 CURVE",
"482 458 LINE",
"497 491 OFFCURVE",
"499 512 OFFCURVE",
"499 517 CURVE SMOOTH",
"499 549 OFFCURVE",
"465 567 OFFCURVE",
"422 573 CURVE"
);
},
{
closed = 1;
nodes = (
"291 555 OFFCURVE",
"245 523 OFFCURVE",
"245 476 CURVE SMOOTH",
"245 454 OFFCURVE",
"261 436 OFFCURVE",
"296 419 CURVE",
"327 566 LINE"
);
},
{
closed = 1;
nodes = (
"370 116 OFFCURVE",
"427 154 OFFCURVE",
"427 213 CURVE SMOOTH",
"427 248 OFFCURVE",
"398 267 OFFCURVE",
"361 283 CURVE",
"322 102 LINE"
);
}
);
userData = {
com.fontlab.hintData = {
hhints = (
{
position = 573;
width = 91;
}
);
vhints = (
{
position = 140;
width = 105;
},
{
position = 427;
width = 105;
},
{
position = 499;
width = 97;
}
);
};
};
width = 631;
}
);
unicode = 0024;
},
{
glyphname = sterling;
layers = (
{
layerId = master01;
paths = (
{
closed = 1;
nodes = (
"665 177 LINE",
"609 11 OFFCURVE",
"503 -9 OFFCURVE",
"456 -9 CURVE SMOOTH",
"397 -9 OFFCURVE",
"355 16 OFFCURVE",
"306 52 CURVE SMOOTH",
"295 60 OFFCURVE",
"280 65 OFFCURVE",
"263 65 CURVE SMOOTH",
"236 65 OFFCURVE",
"193 47 OFFCURVE",
"123 -11 CURVE",
"76 64 LINE",
"199 150 OFFCURVE",
"203 210 OFFCURVE",
"203 263 CURVE SMOOTH",
"203 273 OFFCURVE",
"203 284 OFFCURVE",
"202 298 CURVE",
"77 298 LINE",
"115 392 LINE",
"200 392 LINE",
"217 600 OFFCURVE",
"330 706 OFFCURVE",
"499 706 CURVE SMOOTH",
"646 706 OFFCURVE",
"680 591 OFFCURVE",
"680 508 CURVE SMOOTH",
"680 494 OFFCURVE",
"679 482 OFFCURVE",
"678 471 CURVE",
"583 466 LINE",
"584 475 OFFCURVE",
"584 483 OFFCURVE",
"584 492 CURVE SMOOTH",
"584 566 OFFCURVE",
"551 611 OFFCURVE",
"472 611 CURVE SMOOTH",
"368 611 OFFCURVE",
"302 541 OFFCURVE",
"296 392 CURVE",
"541 392 LINE",
"504 298 LINE",
"297 298 LINE",
"298 283 OFFCURVE",
"298 275 OFFCURVE",
"298 265 CURVE SMOOTH",
"298 220 OFFCURVE",
"292 197 OFFCURVE",
"276 159 CURVE",
"289 159 LINE SMOOTH",
"327 159 OFFCURVE",
"357 145 OFFCURVE",
"381 124 CURVE SMOOTH",
"414 95 OFFCURVE",
"437 85 OFFCURVE",
"476 85 CURVE SMOOTH",
"517 85 OFFCURVE",
"550 120 OFFCURVE",
"575 189 CURVE"
);
}
);
userData = {
com.fontlab.hintData = {
hhints = (
{
position = -9;
width = 94;
},
{
position = 65;
width = 94;
},
{
position = 298;
width = 94;
},
{
position = 611;
width = 95;
}
);
vhints = (
{
position = 203;
width = 95;
},
{
position = 584;
width = 96;
}
);
};
};
width = 790;
}
);
unicode = 00A3;
},
{
glyphname = yen;
layers = (
{
layerId = master01;
paths = (
{
closed = 1;
nodes = (
"96 262 LINE",
"133 356 LINE",
"218 356 LINE",
"135 672 LINE",
"240 672 LINE",
"314 391 LINE",
"515 672 LINE",
"620 672 LINE",
"393 356 LINE",
"492 356 LINE",
"454 262 LINE",
"332 262 LINE",
"320 206 LINE",
"460 206 LINE",
"422 112 LINE",
"300 112 LINE",
"279 12 LINE",
"180 -5 LINE",
"205 112 LINE",
"64 112 LINE",
"101 206 LINE",
"225 206 LINE",
"237 262 LINE"
);
}
);
userData = {
com.fontlab.hintData = {
hhints = (
{
position = 112;
width = 94;
},
{
position = 262;
width = 94;
}
);
};
};
width = 611;
}
);
unicode = 00A5;
},
{
glyphname = plus;
layers = (
{
layerId = master01;
paths = (
{
closed = 1;
nodes = (
"372 204 LINE",
"258 204 LINE",
"233 89 LINE",
"136 73 LINE",
"164 204 LINE",
"33 204 LINE",
"69 298 LINE",
"184 298 LINE",
"207 407 LINE",
"305 426 LINE",
"278 298 LINE",
"410 298 LINE"
);
}
);
userData = {
com.fontlab.hintData = {
hhints = (
{
position = 204;
width = 94;
}
);
};
};
width = 467;
}
);
unicode = 002B;
},
{
glyphname = multiply;
layers = (
{
layerId = master01;
paths = (
{
closed = 1;
nodes = (
"308 176 LINE",
"227 109 LINE",
"166 186 LINE",
"70 108 LINE",
"18 174 LINE",
"115 253 LINE",
"59 324 LINE",
"139 390 LINE",
"195 319 LINE",
"289 397 LINE",
"342 330 LINE",
"247 253 LINE"
);
}
);
userData = {
com.fontlab.hintData = {
hhints = (
{
position = 109;
width = 288;
}
);
vhints = (
{
position = 18;
width = 324;
}
);
};
};
width = 380;
}
);
unicode = 00D7;
},
{
glyphname = divide;
layers = (
{
layerId = master01;
paths = (
{
closed = 1;
nodes = (
"274 336 LINE",
"173 326 LINE",
"204 419 LINE",
"304 431 LINE"
);
},
{
closed = 1;
nodes = (
"210 99 LINE",
"108 87 LINE",
"139 182 LINE",
"240 194 LINE"
);
},
{
closed = 1;
nodes = (
"69 301 LINE",
"379 301 LINE",
"344 218 LINE",
"34 218 LINE"
);
}
);
userData = {
com.fontlab.hintData = {
hhints = (
{
position = 218;
width = 83;
}
);
};
};
width = 433;
}
);
unicode = 00F7;
},
{
glyphname = equal;
layers = (
{
layerId = master01;
paths = (
{
closed = 1;
nodes = (
"74 292 LINE",
"111 386 LINE",
"470 386 LINE",
"433 292 LINE"
);
},
{
closed = 1;
nodes = (
"36 113 LINE",
"72 206 LINE",
"431 206 LINE",
"395 113 LINE"
);
}
);
userData = {
com.fontlab.hintData = {
hhints = (
{
position = 113;
width = 93;
},
{
position = 292;
width = 94;
}
);
};
};
width = 531;
}
);
unicode = 003D;
},
{
glyphname = greater;
layers = (
{
layerId = master01;
paths = (
{
closed = 1;
nodes = (
"23 69 LINE",
"346 252 LINE",
"116 435 LINE",
"186 512 LINE",
"518 251 LINE",
"56 -10 LINE"
);
}
);
userData = {
com.fontlab.hintData = {
hhints = (
{
position = 492;
width = 20;
}
);
};
};
width = 594;
}
);
unicode = 003E;
},
{
glyphname = less;
layers = (
{
layerId = master01;
paths = (
{
closed = 1;
nodes = (
"48 251 LINE",
"510 513 LINE",
"543 433 LINE",
"218 249 LINE",
"450 68 LINE",
"380 -11 LINE"
);
}
);
width = 594;
}
);
unicode = 003C;
},
{
glyphname = plusminus;
layers = (
{
layerId = master01;
paths = (
{
closed = 1;
nodes = (
"38 93 LINE",
"347 93 LINE",
"311 0 LINE",
"1 0 LINE"
);
},
{
closed = 1;
nodes = (
"375 246 LINE",
"264 246 LINE",
"240 134 LINE",
"142 117 LINE",
"170 246 LINE",
"42 246 LINE",
"78 340 LINE",
"190 340 LINE",
"213 447 LINE",
"310 465 LINE",
"284 340 LINE",
"414 340 LINE"
);
}
);
userData = {
com.fontlab.hintData = {
hhints = (
{
position = 0;
width = 93;
},
{
position = 246;
width = 94;
}
);
};
};
width = 461;
}
);
unicode = 00B1;
},
{
glyphname = asciitilde;
layers = (
{
layerId = master01;
paths = (
{
closed = 1;
nodes = (
"592 314 LINE",
"569 272 OFFCURVE",
"492 136 OFFCURVE",
"383 136 CURVE SMOOTH",
"315 136 OFFCURVE",
"289 174 OFFCURVE",
"268 214 CURVE SMOOTH",
"255 239 OFFCURVE",
"243 261 OFFCURVE",
"223 261 CURVE SMOOTH",
"176 261 OFFCURVE",
"130 172 OFFCURVE",
"124 157 CURVE",
"47 200 LINE",
"84 275 OFFCURVE",
"157 366 OFFCURVE",
"245 366 CURVE SMOOTH",
"320 366 OFFCURVE",
"346 315 OFFCURVE",
"367 278 CURVE SMOOTH",
"379 257 OFFCURVE",
"389 241 OFFCURVE",
"406 241 CURVE SMOOTH",
"435 241 OFFCURVE",
"478 285 OFFCURVE",
"512 357 CURVE"
);
}
);
userData = {
com.fontlab.hintData = {
hhints = (
{
position = 136;
width = 105;
},
{
position = 261;
width = 105;
}
);
};
};
width = 671;
}
);
unicode = 007E;
},
{
glyphname = logicalnot;
layers = (
{
layerId = master01;
paths = (
{
closed = 1;
nodes = (
"358 241 LINE",
"58 241 LINE",
"94 333 LINE",
"469 333 LINE",
"424 125 LINE",
"326 96 LINE"
);
}
);
userData = {
com.fontlab.hintData = {
hhints = (
{
position = 241;
width = 92;
}
);
};
};
width = 542;
}
);
unicode = 00AC;
},
{
glyphname = asciicircum;
layers = (
{
layerId = master01;
paths = (
{
closed = 1;
nodes = (
"189 718 LINE",
"388 854 LINE",
"506 714 LINE",
"428 645 LINE",
"355 726 LINE",
"232 644 LINE"
);
}
);
userData = {
com.fontlab.hintData = {
hhints = (
{
position = 644;
width = 210;
}
);
vhints = (
{
position = 189;
width = 317;
}
);
};
};
width = 526;
}
);
unicode = 005E;
},
{
glyphname = mu;
layers = (
{
layerId = master01;
paths = (
{
closed = 1;
nodes = (
"84 368 OFFCURVE",
"115 461 OFFCURVE",
"126 493 CURVE",
"230 510 LINE",
"222 489 OFFCURVE",
"184 393 OFFCURVE",
"168 317 CURVE SMOOTH",
"151 239 OFFCURVE",
"143 185 OFFCURVE",
"143 149 CURVE SMOOTH",
"143 101 OFFCURVE",
"158 85 OFFCURVE",
"186 85 CURVE SMOOTH",
"241 85 OFFCURVE",
"307 125 OFFCURVE",
"327 144 CURVE",
"332 147 OFFCURVE",
"336 159 OFFCURVE",
"338 168 CURVE SMOOTH",
"407 492 LINE",
"510 509 LINE",
"404 13 LINE",
"299 -3 LINE",
"307 37 LINE",
"269 15 OFFCURVE",
"215 -5 OFFCURVE",
"165 -5 CURVE SMOOTH",
"150 -5 OFFCURVE",
"133 -4 OFFCURVE",
"120 0 CURVE",
"100 -163 LINE",
"8 -146 LINE",
"11 -111 OFFCURVE",
"47 195 OFFCURVE",
"67 288 CURVE SMOOTH"
);
}
);
userData = {
com.fontlab.hintData = {
hhints = (
{
position = -5;
width = 90;
},
{
position = -3;
width = 21;
},
{
position = 490;
width = 20;
}
);
};
};
width = 541;
}
);
unicode = 00B5;
},
